<?xml version="1.0" encoding="UTF-8"?>
<!DOCTYPE svg PUBLIC "-//W3C//DTD SVG 1.1//EN" "http://www.w3.org/Graphics/SVG/1.1/DTD/svg11.dtd">
<svg version="1.1" xmlns="http://www.w3.org/2000/svg" xmlns:xlink="http://www.w3.org/1999/xlink" x="0" y="0" width="2000" height="300" viewBox="0, 0, 2000, 300">
  <defs>
    <linearGradient id="Gradient_1" gradientUnits="userSpaceOnUse" x1="-394.863" y1="-1181.655" x2="-414.204" y2="-1164.843" gradientTransform="matrix(0.937, 0.35, -0.35, 0.937, 0, 0)">
      <stop offset="0" stop-color="#3C3527"/>
      <stop offset="1" stop-color="#1E1912"/>
    </linearGradient>
  </defs>
  <g id="Layer_1" opacity="0.902" transform="translate(998.182, 1375.667)">
    <path d="M-998.182,-1375.667 L1001.818,-1375.667 L1001.818,-1075.667 L-998.182,-1075.667 L-998.182,-1375.667 z" fill="#A290D5"/>
    <g>
      <path d="M612.185,-1201.007 L608.753,-1200.081 C610.761,-1200.623 611.964,-1202.713 611.423,-1204.717 L583.615,-1307.752 L587.044,-1308.677 L614.851,-1205.642 C615.392,-1203.638 614.189,-1201.548 612.185,-1201.007" fill="#B7B5B0"/>
      <path d="M335.148,-1152.881 C335.023,-1153.344 335.301,-1153.841 335.773,-1153.968 L350.818,-1158.029 C351.289,-1158.156 351.78,-1157.867 351.905,-1157.403 L356.053,-1142.035 C356.18,-1141.562 355.899,-1141.075 355.428,-1140.948 L340.383,-1136.887 C339.91,-1136.76 339.424,-1137.039 339.296,-1137.512 L335.148,-1152.881 M330.284,-1170.906 C330.157,-1171.375 330.436,-1171.866 330.908,-1171.994 L350.507,-1177.283 C350.978,-1177.411 351.468,-1177.126 351.594,-1176.657 L355.127,-1163.567 C355.254,-1163.098 354.974,-1162.606 354.503,-1162.479 L334.904,-1157.189 C334.431,-1157.062 333.943,-1157.347 333.817,-1157.815 L330.284,-1170.906 M325.417,-1188.937 C325.292,-1189.401 325.572,-1189.888 326.045,-1190.015 L354.461,-1197.685 C354.937,-1197.813 355.421,-1197.532 355.546,-1197.068 L359.081,-1183.971 C359.208,-1183.499 358.93,-1183.016 358.455,-1182.888 L330.038,-1175.219 C329.565,-1175.091 329.079,-1175.368 328.952,-1175.84 L325.417,-1188.937 M320.552,-1206.963 C320.427,-1207.426 320.706,-1207.918 321.179,-1208.045 L345.329,-1214.563 C345.802,-1214.691 346.29,-1214.406 346.415,-1213.943 L349.949,-1200.85 C350.077,-1200.374 349.798,-1199.886 349.325,-1199.758 L325.174,-1193.24 C324.702,-1193.113 324.214,-1193.394 324.086,-1193.87 L320.552,-1206.963 M315.689,-1224.984 C315.561,-1225.457 315.841,-1225.943 316.314,-1226.071 L331.358,-1230.131 C331.83,-1230.258 332.318,-1229.979 332.445,-1229.506 L335.978,-1216.418 C336.105,-1215.946 335.824,-1215.458 335.353,-1215.331 L320.308,-1211.27 C319.836,-1211.143 319.349,-1211.423 319.221,-1211.896 L315.689,-1224.984 M333.718,-1229.85 C333.59,-1230.323 333.872,-1230.809 334.343,-1230.937 L349.379,-1234.995 C349.856,-1235.124 350.34,-1234.843 350.468,-1234.37 L354,-1221.282 C354.128,-1220.81 353.851,-1220.323 353.374,-1220.194 L338.338,-1216.136 C337.866,-1216.009 337.378,-1216.289 337.25,-1216.762 L333.718,-1229.85 M351.747,-1234.716 C351.619,-1235.188 351.898,-1235.675 352.365,-1235.801 L367.411,-1239.861 C367.882,-1239.989 368.369,-1239.709 368.497,-1239.236 L372.029,-1226.148 C372.157,-1225.675 371.877,-1225.188 371.406,-1225.061 L356.36,-1221 C355.892,-1220.874 355.407,-1221.155 355.279,-1221.628 L351.747,-1234.716 M369.77,-1239.58 C369.642,-1240.052 369.922,-1240.539 370.39,-1240.665 L385.435,-1244.726 C385.905,-1244.853 386.401,-1244.576 386.529,-1244.103 L390.061,-1231.015 C390.189,-1230.542 389.899,-1230.052 389.429,-1229.925 L374.385,-1225.865 C373.916,-1225.738 373.429,-1226.019 373.302,-1226.491 L369.77,-1239.58 M387.792,-1244.443 C387.664,-1244.916 387.948,-1245.404 388.417,-1245.53 L403.461,-1249.591 C403.933,-1249.718 404.422,-1249.439 404.549,-1248.966 L408.082,-1235.878 C408.209,-1235.406 407.927,-1234.917 407.456,-1234.79 L392.411,-1230.73 C391.942,-1230.603 391.451,-1230.883 391.324,-1231.355 L387.792,-1244.443 M405.821,-1249.309 C405.693,-1249.782 405.974,-1250.269 406.443,-1250.396 L421.487,-1254.456 C421.96,-1254.583 422.441,-1254.302 422.569,-1253.829 L426.101,-1240.741 C426.229,-1240.269 425.955,-1239.783 425.482,-1239.655 L410.437,-1235.595 C409.969,-1235.468 409.481,-1235.749 409.353,-1236.221 L405.821,-1249.309 M423.851,-1254.176 C423.724,-1254.648 424.003,-1255.135 424.477,-1255.263 L439.513,-1259.321 C439.983,-1259.448 440.472,-1259.169 440.6,-1258.696 L444.132,-1245.608 C444.26,-1245.135 443.978,-1244.647 443.507,-1244.52 L428.472,-1240.462 C427.998,-1240.334 427.511,-1240.615 427.384,-1241.087 L423.851,-1254.176 M441.872,-1259.039 C441.744,-1259.512 442.024,-1259.998 442.497,-1260.126 L457.539,-1264.186 C458.013,-1264.314 458.492,-1264.032 458.619,-1263.559 L462.151,-1250.471 C462.279,-1249.998 462.008,-1249.513 461.534,-1249.385 L446.492,-1245.325 C446.018,-1245.198 445.531,-1245.478 445.404,-1245.951 L441.872,-1259.039 M459.894,-1263.903 C459.766,-1264.376 460.046,-1264.862 460.517,-1264.989 L475.561,-1269.05 C476.036,-1269.178 476.522,-1268.898 476.649,-1268.425 L480.182,-1255.337 C480.309,-1254.864 480.03,-1254.377 479.556,-1254.249 L464.512,-1250.189 C464.041,-1250.062 463.554,-1250.342 463.426,-1250.815 L459.894,-1263.903 M477.924,-1268.769 C477.797,-1269.242 478.075,-1269.728 478.549,-1269.856 L493.593,-1273.916 C494.062,-1274.043 494.544,-1273.762 494.672,-1273.289 L498.204,-1260.201 C498.331,-1259.728 498.056,-1259.242 497.588,-1259.115 L482.544,-1255.055 C482.07,-1254.927 481.584,-1255.208 481.456,-1255.681 L477.924,-1268.769 M495.954,-1273.635 C495.826,-1274.108 496.107,-1274.594 496.573,-1274.72 L511.622,-1278.782 C512.087,-1278.907 512.577,-1278.629 512.705,-1278.156 L516.237,-1265.068 C516.365,-1264.595 516.081,-1264.107 515.617,-1263.981 L500.567,-1259.92 C500.101,-1259.794 499.613,-1260.074 499.486,-1260.547 L495.954,-1273.635 M513.973,-1278.498 C513.845,-1278.971 514.128,-1279.458 514.601,-1279.586 L529.644,-1283.646 C530.117,-1283.774 530.604,-1283.494 530.731,-1283.021 L534.264,-1269.933 C534.391,-1269.46 534.112,-1268.973 533.639,-1268.845 L518.595,-1264.785 C518.122,-1264.657 517.633,-1264.937 517.505,-1265.41 L513.973,-1278.498 M532.005,-1283.365 C531.877,-1283.838 532.157,-1284.324 532.623,-1284.45 L547.674,-1288.512 C548.142,-1288.638 548.626,-1288.358 548.754,-1287.885 L552.286,-1274.797 C552.413,-1274.324 552.137,-1273.838 551.668,-1273.711 L536.617,-1269.649 C536.151,-1269.523 535.665,-1269.804 535.537,-1270.277 L532.005,-1283.365 M550.031,-1288.229 C549.903,-1288.703 550.19,-1289.191 550.652,-1289.316 L574.803,-1295.833 C575.273,-1295.96 575.763,-1295.682 575.891,-1295.209 L579.423,-1282.121 C579.55,-1281.648 579.268,-1281.16 578.798,-1281.033 L554.647,-1274.515 C554.184,-1274.39 553.69,-1274.669 553.563,-1275.141 L550.031,-1288.229 M589.157,-1246.066 C589.217,-1245.846 589.192,-1245.603 589.069,-1245.394 C588.943,-1245.18 588.75,-1245.042 588.527,-1244.981 L577.756,-1242.075 C577.534,-1242.015 577.297,-1242.037 577.085,-1242.16 C576.876,-1242.279 576.73,-1242.476 576.67,-1242.695 L572.036,-1259.865 L568.619,-1258.943 C568.404,-1258.885 568.165,-1258.915 567.949,-1259.033 C567.736,-1259.155 567.6,-1259.355 567.541,-1259.576 L564.007,-1272.668 C563.948,-1272.887 563.966,-1273.124 564.09,-1273.333 C564.214,-1273.552 564.408,-1273.689 564.623,-1273.747 L579.668,-1277.808 C579.89,-1277.868 580.127,-1277.847 580.345,-1277.72 C580.556,-1277.602 580.699,-1277.408 580.758,-1277.188 L589.157,-1246.066 M599.644,-1207.776 C599.771,-1207.304 599.488,-1206.816 599.015,-1206.688 L583.977,-1202.63 C583.507,-1202.503 583.014,-1202.781 582.886,-1203.254 L581.043,-1210.083 C580.916,-1210.552 581.201,-1211.046 581.671,-1211.172 L596.709,-1215.231 C597.183,-1215.359 597.674,-1215.074 597.8,-1214.606 L599.644,-1207.776 M578.323,-1215.106 L581.471,-1203.441 C581.568,-1203.081 581.582,-1202.697 581.488,-1202.394 C581.39,-1202.075 581.211,-1201.884 580.993,-1201.825 L565.949,-1197.764 C565.732,-1197.706 565.474,-1197.78 565.231,-1198.006 C564.998,-1198.221 564.817,-1198.56 564.72,-1198.92 L560.715,-1213.758 C560.657,-1213.973 560.682,-1214.217 560.801,-1214.423 C560.924,-1214.639 561.122,-1214.787 561.339,-1214.845 L576.383,-1218.906 C576.601,-1218.964 576.84,-1218.934 577.057,-1218.811 C577.265,-1218.693 577.408,-1218.494 577.466,-1218.279 L578.323,-1215.106 M563.589,-1198.046 C563.716,-1197.573 563.436,-1197.086 562.965,-1196.959 L547.929,-1192.901 C547.451,-1192.772 546.96,-1193.051 546.833,-1193.524 L544.99,-1200.353 C544.863,-1200.821 545.145,-1201.315 545.624,-1201.444 L560.659,-1205.502 C561.13,-1205.629 561.619,-1205.344 561.745,-1204.875 L563.589,-1198.046 M545.569,-1193.182 C545.697,-1192.71 545.409,-1192.221 544.938,-1192.094 L529.893,-1188.034 C529.426,-1187.907 528.938,-1188.187 528.81,-1188.659 L524.662,-1204.028 C524.537,-1204.492 524.816,-1204.988 525.283,-1205.115 L540.328,-1209.175 C540.799,-1209.302 541.296,-1209.015 541.421,-1208.551 L545.569,-1193.182 M527.537,-1188.316 C527.664,-1187.843 527.386,-1187.357 526.912,-1187.229 L507.172,-1181.901 C506.706,-1181.776 506.21,-1182.053 506.083,-1182.526 L501.935,-1197.894 C501.81,-1198.358 502.096,-1198.857 502.562,-1198.982 L522.302,-1204.31 C522.776,-1204.438 523.264,-1204.148 523.389,-1203.685 L527.537,-1188.316 M499.335,-1202.487 C499.462,-1202.018 499.179,-1201.525 498.705,-1201.397 L483.666,-1197.338 C483.197,-1197.212 482.709,-1197.497 482.582,-1197.965 L479.05,-1211.056 C478.923,-1211.524 479.201,-1212.016 479.67,-1212.143 L494.709,-1216.202 C495.184,-1216.33 495.676,-1216.046 495.802,-1215.577 L499.335,-1202.487 M504.815,-1182.183 C504.942,-1181.711 504.659,-1181.223 504.184,-1181.095 L417.04,-1157.576 C416.575,-1157.451 416.078,-1157.727 415.95,-1158.2 L411.802,-1173.569 C411.677,-1174.032 411.965,-1174.531 412.43,-1174.657 L499.574,-1198.176 C500.049,-1198.304 500.542,-1198.016 500.667,-1197.552 L504.815,-1182.183 M409.201,-1178.161 C409.327,-1177.692 409.047,-1177.2 408.583,-1177.074 L393.538,-1173.014 C393.067,-1172.887 392.577,-1173.172 392.451,-1173.64 L388.918,-1186.73 C388.792,-1187.199 389.072,-1187.692 389.543,-1187.819 L404.587,-1191.879 C405.052,-1192.004 405.541,-1191.72 405.668,-1191.251 L409.201,-1178.161 M414.68,-1157.857 C414.808,-1157.385 414.526,-1156.898 414.062,-1156.772 L394.316,-1151.443 C393.847,-1151.317 393.361,-1151.596 393.234,-1152.069 L389.086,-1167.438 C388.961,-1167.901 389.237,-1168.397 389.706,-1168.524 L409.452,-1173.853 C409.917,-1173.979 410.407,-1173.69 410.532,-1173.226 L414.68,-1157.857 M392.009,-1151.739 C392.137,-1151.266 391.854,-1150.779 391.383,-1150.651 L376.338,-1146.591 C375.868,-1146.464 375.382,-1146.744 375.254,-1147.217 L371.106,-1162.586 C370.981,-1163.049 371.258,-1163.545 371.728,-1163.672 L386.773,-1167.732 C387.244,-1167.86 387.736,-1167.571 387.861,-1167.108 L392.009,-1151.739 M366.579,-1181.621 L368.532,-1182.148 C369.001,-1182.275 369.489,-1181.99 369.615,-1181.521 L373.148,-1168.43 C373.275,-1167.962 372.996,-1167.47 372.528,-1167.344 L357.482,-1163.283 C357.015,-1163.157 356.525,-1163.441 356.398,-1163.91 L352.866,-1177 C352.739,-1177.469 353.02,-1177.962 353.487,-1178.088 L366.579,-1181.621 M386.001,-1210.581 C386.13,-1210.104 385.849,-1209.616 385.376,-1209.488 L370.333,-1205.428 C369.865,-1205.302 369.372,-1205.582 369.244,-1206.058 L365.71,-1219.15 C365.585,-1219.614 365.869,-1220.106 366.338,-1220.233 L381.381,-1224.293 C381.853,-1224.42 382.343,-1224.137 382.468,-1223.673 L386.001,-1210.581 M387.641,-1186.386 L391.174,-1173.295 C391.301,-1172.827 391.025,-1172.336 390.554,-1172.209 L375.508,-1168.148 C375.045,-1168.023 374.551,-1168.307 374.425,-1168.775 L370.892,-1181.865 C370.765,-1182.334 371.049,-1182.828 371.512,-1182.953 L386.558,-1187.013 C387.03,-1187.14 387.515,-1186.855 387.641,-1186.386 M388.569,-1206.89 L390.521,-1207.417 C390.992,-1207.544 391.472,-1207.262 391.597,-1206.798 L395.132,-1193.701 C395.259,-1193.229 394.986,-1192.747 394.514,-1192.62 L379.463,-1188.558 C378.999,-1188.432 378.511,-1188.709 378.384,-1189.181 L374.849,-1202.278 C374.724,-1202.742 375.005,-1203.229 375.469,-1203.354 L388.569,-1206.89 M404.028,-1215.446 C404.156,-1214.969 403.876,-1214.481 403.403,-1214.353 L388.358,-1210.293 C387.89,-1210.167 387.403,-1210.448 387.274,-1210.924 L383.741,-1224.016 C383.616,-1224.48 383.894,-1224.971 384.363,-1225.098 L399.407,-1229.158 C399.88,-1229.286 400.369,-1229.002 400.495,-1228.538 L404.028,-1215.446 M406.591,-1211.754 L408.543,-1212.281 C409.015,-1212.408 409.503,-1212.128 409.628,-1211.664 L413.162,-1198.567 C413.29,-1198.095 413.008,-1197.611 412.536,-1197.484 L397.491,-1193.423 C397.023,-1193.297 396.54,-1193.575 396.413,-1194.047 L392.878,-1207.144 C392.753,-1207.608 393.03,-1208.094 393.497,-1208.22 L406.591,-1211.754 M422.053,-1220.31 C422.181,-1219.834 421.902,-1219.346 421.429,-1219.218 L406.385,-1215.158 C405.92,-1215.033 405.433,-1215.314 405.305,-1215.79 L401.771,-1228.882 C401.646,-1229.346 401.924,-1229.837 402.389,-1229.963 L417.434,-1234.023 C417.906,-1234.151 418.394,-1233.866 418.52,-1233.402 L422.053,-1220.31 M423.697,-1196.117 L427.23,-1183.026 C427.356,-1182.558 427.078,-1182.066 426.604,-1181.938 L411.561,-1177.878 C411.096,-1177.753 410.597,-1178.035 410.47,-1178.503 L406.938,-1191.594 C406.811,-1192.062 407.1,-1192.557 407.565,-1192.683 L422.608,-1196.743 C423.082,-1196.871 423.571,-1196.586 423.697,-1196.117 M424.62,-1216.62 L426.572,-1217.146 C427.045,-1217.274 427.525,-1216.992 427.65,-1216.528 L431.185,-1203.431 C431.312,-1202.959 431.038,-1202.477 430.565,-1202.35 L415.518,-1198.289 C415.048,-1198.162 414.564,-1198.439 414.437,-1198.911 L410.902,-1212.008 C410.777,-1212.472 411.055,-1212.958 411.525,-1213.085 L424.62,-1216.62 M440.075,-1225.174 C440.203,-1224.698 439.923,-1224.21 439.458,-1224.084 L424.414,-1220.024 C423.942,-1219.897 423.454,-1220.178 423.326,-1220.654 L419.792,-1233.746 C419.667,-1234.21 419.947,-1234.701 420.418,-1234.828 L435.463,-1238.889 C435.927,-1239.014 436.416,-1238.73 436.542,-1238.266 L440.075,-1225.174 M441.722,-1200.981 L445.255,-1187.891 C445.381,-1187.422 445.099,-1186.93 444.634,-1186.804 L429.592,-1182.745 C429.122,-1182.618 428.629,-1182.901 428.502,-1183.37 L424.97,-1196.46 C424.843,-1196.929 425.127,-1197.422 425.597,-1197.549 L440.638,-1201.609 C441.103,-1201.734 441.595,-1201.45 441.722,-1200.981 M442.648,-1221.485 L444.6,-1222.012 C445.066,-1222.138 445.555,-1221.858 445.68,-1221.394 L449.215,-1208.297 C449.342,-1207.825 449.059,-1207.341 448.594,-1207.215 L433.543,-1203.153 C433.076,-1203.027 432.592,-1203.304 432.464,-1203.776 L428.929,-1216.873 C428.804,-1217.337 429.083,-1217.824 429.55,-1217.95 L442.648,-1221.485 M458.101,-1230.039 C458.23,-1229.563 457.952,-1229.075 457.478,-1228.948 L442.437,-1224.888 C441.969,-1224.762 441.483,-1225.043 441.355,-1225.52 L437.821,-1238.612 C437.696,-1239.076 437.973,-1239.566 438.442,-1239.693 L453.483,-1243.752 C453.956,-1243.88 454.443,-1243.595 454.568,-1243.131 L458.101,-1230.039 M459.747,-1205.846 L463.28,-1192.756 C463.406,-1192.287 463.126,-1191.795 462.659,-1191.669 L447.616,-1187.609 C447.149,-1187.483 446.659,-1187.767 446.533,-1188.236 L443,-1201.326 C442.873,-1201.795 443.153,-1202.287 443.621,-1202.414 L458.664,-1206.474 C459.131,-1206.599 459.62,-1206.315 459.747,-1205.846 M460.67,-1226.349 L462.622,-1226.876 C463.09,-1227.002 463.58,-1226.723 463.706,-1226.259 L467.24,-1213.162 C467.368,-1212.69 467.083,-1212.205 466.616,-1212.079 L451.574,-1208.02 C451.109,-1207.894 450.613,-1208.168 450.485,-1208.64 L446.95,-1221.737 C446.825,-1222.201 447.116,-1222.691 447.581,-1222.816 L460.67,-1226.349 M476.125,-1234.904 C476.253,-1234.427 475.98,-1233.941 475.508,-1233.814 L460.463,-1229.753 C459.992,-1229.626 459.503,-1229.907 459.375,-1230.383 L455.841,-1243.475 C455.716,-1243.939 455.996,-1244.431 456.468,-1244.558 L471.513,-1248.618 C471.984,-1248.745 472.466,-1248.46 472.592,-1247.996 L476.125,-1234.904 M477.774,-1210.711 L481.307,-1197.621 C481.434,-1197.152 481.157,-1196.661 480.686,-1196.534 L465.64,-1192.473 C465.168,-1192.346 464.678,-1192.63 464.552,-1193.099 L461.019,-1206.189 C460.892,-1206.658 461.172,-1207.151 461.645,-1207.278 L476.69,-1211.339 C477.162,-1211.466 477.648,-1211.18 477.774,-1210.711 M478.695,-1231.214 L480.647,-1231.74 C481.116,-1231.867 481.604,-1231.587 481.729,-1231.123 L485.264,-1218.026 C485.392,-1217.554 485.109,-1217.07 484.641,-1216.944 L469.6,-1212.885 C469.128,-1212.757 468.643,-1213.034 468.515,-1213.506 L464.981,-1226.603 C464.855,-1227.067 465.135,-1227.554 465.606,-1227.681 L478.695,-1231.214 M494.153,-1239.769 C494.281,-1239.293 494.008,-1238.806 493.533,-1238.678 L478.487,-1234.617 C478.021,-1234.492 477.534,-1234.773 477.405,-1235.249 L473.872,-1248.341 C473.747,-1248.805 474.025,-1249.296 474.491,-1249.422 L489.538,-1253.483 C490.012,-1253.611 490.494,-1253.325 490.619,-1252.861 L494.153,-1239.769 M496.722,-1236.079 L498.674,-1236.606 C499.145,-1236.733 499.629,-1236.452 499.754,-1235.988 L503.289,-1222.891 C503.416,-1222.419 503.138,-1221.936 502.667,-1221.809 L487.623,-1217.749 C487.153,-1217.622 486.669,-1217.899 486.541,-1218.371 L483.007,-1231.468 C482.881,-1231.932 483.16,-1232.419 483.629,-1232.545 L496.722,-1236.079 M512.183,-1244.635 C512.312,-1244.159 512.031,-1243.671 511.558,-1243.543 L496.514,-1239.483 C496.045,-1239.356 495.556,-1239.637 495.428,-1240.113 L491.894,-1253.205 C491.769,-1253.669 492.049,-1254.161 492.519,-1254.287 L507.563,-1258.348 C508.036,-1258.475 508.525,-1258.191 508.65,-1257.727 L512.183,-1244.635 M513.829,-1220.442 L517.362,-1207.352 C517.488,-1206.883 517.207,-1206.391 516.735,-1206.263 L501.693,-1202.203 C501.227,-1202.078 500.73,-1202.36 500.603,-1202.829 L497.07,-1215.919 C496.944,-1216.388 497.232,-1216.882 497.697,-1217.008 L512.74,-1221.068 C513.211,-1221.195 513.702,-1220.911 513.829,-1220.442 M514.751,-1240.945 L516.703,-1241.471 C517.167,-1241.597 517.66,-1241.318 517.785,-1240.854 L521.32,-1227.757 C521.447,-1227.285 521.16,-1226.8 520.696,-1226.675 L505.651,-1222.614 C505.181,-1222.487 504.694,-1222.764 504.566,-1223.235 L501.032,-1236.333 C500.906,-1236.797 501.188,-1237.284 501.658,-1237.411 L514.751,-1240.945 M530.206,-1249.499 C530.334,-1249.023 530.053,-1248.535 529.591,-1248.41 L514.545,-1244.349 C514.072,-1244.221 513.587,-1244.503 513.458,-1244.979 L509.925,-1258.072 C509.8,-1258.535 510.077,-1259.026 510.549,-1259.154 L525.595,-1263.214 C526.058,-1263.339 526.547,-1263.055 526.672,-1262.591 L530.206,-1249.499 M531.854,-1225.307 L535.387,-1212.216 C535.513,-1211.748 535.239,-1211.257 534.765,-1211.129 L519.721,-1207.069 C519.247,-1206.941 518.76,-1207.226 518.634,-1207.695 L515.101,-1220.785 C514.974,-1221.254 515.251,-1221.746 515.726,-1221.874 L530.769,-1225.934 C531.244,-1226.062 531.727,-1225.776 531.854,-1225.307 M532.777,-1245.81 L534.729,-1246.336 C535.198,-1246.463 535.687,-1246.183 535.812,-1245.72 L539.347,-1232.622 C539.475,-1232.151 539.191,-1231.666 538.722,-1231.54 L523.675,-1227.479 C523.202,-1227.351 522.72,-1227.629 522.593,-1228.101 L519.058,-1241.198 C518.933,-1241.662 519.208,-1242.148 519.681,-1242.275 L532.777,-1245.81 M548.236,-1254.365 C548.364,-1253.889 548.084,-1253.401 547.61,-1253.273 L532.567,-1249.213 C532.104,-1249.088 531.612,-1249.368 531.483,-1249.844 L527.95,-1262.936 C527.825,-1263.4 528.108,-1263.893 528.572,-1264.018 L543.614,-1268.077 C544.089,-1268.205 544.577,-1267.921 544.702,-1267.458 L548.236,-1254.365 M549.88,-1230.172 L553.413,-1217.081 C553.539,-1216.613 553.258,-1216.12 552.788,-1215.993 L537.748,-1211.934 C537.276,-1211.807 536.785,-1212.091 536.659,-1212.56 L533.126,-1225.65 C532.999,-1226.119 533.281,-1226.611 533.753,-1226.739 L548.793,-1230.798 C549.263,-1230.925 549.753,-1230.641 549.88,-1230.172 M550.802,-1250.674 L552.754,-1251.201 C553.223,-1251.328 553.709,-1251.047 553.835,-1250.583 L557.369,-1237.486 C557.497,-1237.014 557.217,-1236.531 556.747,-1236.404 L541.707,-1232.345 C541.232,-1232.217 540.745,-1232.493 540.617,-1232.965 L537.083,-1246.062 C536.957,-1246.526 537.239,-1247.014 537.713,-1247.142 L550.802,-1250.674 M566.262,-1259.23 C566.39,-1258.754 566.108,-1258.265 565.642,-1258.139 L550.598,-1254.079 C550.125,-1253.952 549.637,-1254.233 549.508,-1254.709 L545.975,-1267.801 C545.85,-1268.265 546.129,-1268.756 546.602,-1268.884 L561.646,-1272.944 C562.112,-1273.07 562.603,-1272.786 562.729,-1272.323 L566.262,-1259.23 M587.448,-1241.231 L589.398,-1241.757 C589.868,-1241.884 590.359,-1241.599 590.485,-1241.13 L594.018,-1228.04 C594.145,-1227.572 593.863,-1227.079 593.393,-1226.952 L555.774,-1216.799 C555.302,-1216.672 554.812,-1216.956 554.686,-1217.425 L551.153,-1230.515 C551.027,-1230.984 551.307,-1231.476 551.778,-1231.604 L587.448,-1241.231 M575.395,-1242.351 C575.522,-1241.879 575.242,-1241.396 574.772,-1241.269 L559.726,-1237.208 C559.257,-1237.082 558.774,-1237.359 558.647,-1237.831 L555.112,-1250.928 C554.987,-1251.392 555.264,-1251.878 555.733,-1252.005 L570.779,-1256.066 C571.249,-1256.193 571.735,-1255.912 571.86,-1255.448 L575.395,-1242.351 M354.259,-1201.09 L352.307,-1200.563 C351.836,-1200.436 351.351,-1200.718 351.223,-1201.194 L347.689,-1214.286 C347.564,-1214.75 347.84,-1215.241 348.312,-1215.368 L363.354,-1219.428 C363.833,-1219.557 364.316,-1219.271 364.442,-1218.808 L367.975,-1205.716 C368.104,-1205.239 367.828,-1204.752 367.35,-1204.623 L354.259,-1201.09 M356.819,-1197.412 C356.693,-1197.875 356.981,-1198.365 357.446,-1198.49 L372.492,-1202.551 C372.964,-1202.678 373.451,-1202.398 373.576,-1201.934 L377.111,-1188.837 C377.238,-1188.365 376.957,-1187.882 376.485,-1187.754 L361.439,-1183.693 C360.975,-1183.568 360.481,-1183.843 360.353,-1184.314 L356.819,-1197.412 M374.027,-1146.886 C374.154,-1146.413 373.875,-1145.926 373.4,-1145.798 L358.361,-1141.74 C357.893,-1141.613 357.404,-1141.892 357.276,-1142.365 L353.128,-1157.734 C353.003,-1158.197 353.283,-1158.694 353.751,-1158.82 L368.79,-1162.879 C369.265,-1163.007 369.754,-1162.718 369.879,-1162.254 L374.027,-1146.886 M336.77,-1126.677 L608.753,-1200.081 C610.761,-1200.623 611.964,-1202.713 611.423,-1204.717 L583.615,-1307.752 L304.332,-1232.377 L332.14,-1129.342 C332.681,-1127.338 334.765,-1126.135 336.77,-1126.677" fill="#C5C5BD"/>
      <path d="M389.745,-1150.282 L389.43,-1150.125 L376.338,-1146.591 C375.868,-1146.464 375.381,-1146.744 375.254,-1147.217 L371.106,-1162.586 C370.981,-1163.049 371.258,-1163.545 371.728,-1163.672 L384.82,-1167.206 L384.821,-1167.206 L386.773,-1167.732 C387.244,-1167.86 387.736,-1167.571 387.861,-1167.108 L392.009,-1151.739 C392.137,-1151.266 391.854,-1150.779 391.383,-1150.652 L389.43,-1150.125 L389.745,-1150.282 z M390.057,-1151.212 L390.057,-1151.212 L390.079,-1150.86 L390.057,-1151.212 z" fill="#FFFFFF"/>
      <path d="M350.818,-1158.029 C351.289,-1158.156 351.78,-1157.867 351.905,-1157.403 L356.053,-1142.035 C356.18,-1141.562 355.899,-1141.075 355.428,-1140.948 L340.383,-1136.887 C339.91,-1136.76 339.424,-1137.039 339.296,-1137.512 L335.148,-1152.881 C335.023,-1153.344 335.3,-1153.841 335.773,-1153.968 L350.818,-1158.029 z M354.091,-1141.047 C353.8,-1140.583 353.964,-1140.758 353.642,-1140.485 C354.003,-1140.765 353.857,-1140.597 354.083,-1140.99 L354.091,-1141.047 z M349.84,-1157.104 L349.898,-1157.018 L349.889,-1157.042 L349.84,-1157.104 z" fill="#FFFFFF"/>
      <path d="M368.79,-1162.879 C369.265,-1163.007 369.754,-1162.718 369.879,-1162.254 L374.027,-1146.886 C374.154,-1146.413 373.875,-1145.926 373.4,-1145.798 L358.361,-1141.74 C357.893,-1141.613 357.404,-1141.892 357.276,-1142.365 L353.128,-1157.734 C353.003,-1158.197 353.283,-1158.694 353.751,-1158.82 L368.79,-1162.879 z M372.068,-1145.922 C371.859,-1145.508 371.988,-1145.664 371.726,-1145.421 C371.977,-1145.616 371.854,-1145.488 372.057,-1145.841 L372.068,-1145.922 z M359.474,-1142.53 C359.625,-1142.385 359.532,-1142.458 359.767,-1142.329 C359.569,-1142.469 359.667,-1142.402 359.474,-1142.53 z M355.08,-1158.272 L355.08,-1158.26 L359.228,-1142.892 C359.322,-1142.664 359.26,-1142.736 359.36,-1142.639 C359.272,-1142.805 359.316,-1142.72 359.229,-1142.892 L355.081,-1158.261 L355.08,-1158.272 z M355.537,-1159.283 C355.241,-1159.041 355.337,-1159.18 355.211,-1158.896 C355.346,-1159.167 355.25,-1159.029 355.537,-1159.283 z" fill="#FFFFFF"/>
      <path d="M332.861,-1172.521 C332.667,-1172.447 332.74,-1172.494 332.628,-1172.406 C332.74,-1172.494 332.667,-1172.447 332.861,-1172.521 L350.507,-1177.283 C350.978,-1177.411 351.468,-1177.126 351.594,-1176.657 L355.127,-1163.567 C355.254,-1163.098 354.974,-1162.606 354.502,-1162.479 L334.904,-1157.189 C334.431,-1157.062 333.943,-1157.347 333.817,-1157.815 L330.284,-1170.906 C330.157,-1171.375 330.436,-1171.866 330.908,-1171.994 L332.861,-1172.521 z M353.203,-1162.864 C353.141,-1162.411 353.214,-1162.623 352.988,-1162.229 C353.214,-1162.623 353.141,-1162.411 353.203,-1162.864 z" fill="#FFFFFF"/>
      <path d="M386.558,-1187.013 C387.029,-1187.14 387.515,-1186.855 387.641,-1186.386 L391.174,-1173.296 C391.301,-1172.827 391.025,-1172.336 390.554,-1172.209 L377.46,-1168.675 C377.173,-1168.629 377.344,-1168.638 376.947,-1168.695 C377.344,-1168.638 377.173,-1168.628 377.46,-1168.675 L375.508,-1168.148 C375.045,-1168.023 374.551,-1168.307 374.425,-1168.775 L370.892,-1181.865 C370.765,-1182.334 371.049,-1182.828 371.512,-1182.953 L373.464,-1183.479 L373.464,-1183.479 L386.558,-1187.013 z M376.377,-1169.302 L376.377,-1169.302 L376.425,-1169.177 L376.377,-1169.302 z M384.993,-1186.469 C385.293,-1186.384 385.152,-1186.442 385.415,-1186.297 C385.159,-1186.461 385.299,-1186.402 384.993,-1186.469 z" fill="#FFFFFF"/>
      <path d="M355.439,-1178.615 C355.18,-1178.507 355.284,-1178.583 355.114,-1178.405 C355.294,-1178.571 355.188,-1178.497 355.439,-1178.615 L368.532,-1182.148 C369.001,-1182.275 369.489,-1181.99 369.615,-1181.521 L373.148,-1168.431 C373.275,-1167.962 372.996,-1167.47 372.527,-1167.344 L357.483,-1163.283 C357.015,-1163.157 356.525,-1163.441 356.398,-1163.91 L352.866,-1177 C352.739,-1177.469 353.02,-1177.962 353.487,-1178.088 L355.439,-1178.615 z M367.608,-1181.136 L367.663,-1180.994 C367.61,-1181.134 367.638,-1181.092 367.608,-1181.136 z M367.388,-1181.432 L367.55,-1181.223 C367.481,-1181.326 367.532,-1181.254 367.388,-1181.432 z" fill="#FFFFFF"/>
      <path d="M372.492,-1202.551 C372.964,-1202.678 373.451,-1202.398 373.576,-1201.934 L377.111,-1188.837 C377.238,-1188.365 376.957,-1187.882 376.485,-1187.754 L361.439,-1183.694 C360.975,-1183.568 360.481,-1183.842 360.353,-1184.314 L356.819,-1197.412 C356.693,-1197.875 356.981,-1198.365 357.446,-1198.49 L372.492,-1202.551 z M363.071,-1184.212 C363.086,-1184.205 363.077,-1184.207 363.098,-1184.208 L363.071,-1184.212 z M362.306,-1184.841 L362.37,-1184.674 L362.372,-1184.672 C362.371,-1184.673 362.37,-1184.673 362.37,-1184.674 L362.306,-1184.841 z M358.759,-1198.217 C358.754,-1198.203 358.755,-1198.209 358.755,-1198.196 L358.759,-1198.217 z M359.117,-1198.864 C358.885,-1198.651 358.947,-1198.767 358.874,-1198.553 C359.037,-1198.753 358.955,-1198.65 359.117,-1198.864 z" fill="#FFFFFF"/>
      <path d="M354.461,-1197.685 C354.937,-1197.813 355.421,-1197.532 355.546,-1197.068 L359.081,-1183.971 C359.208,-1183.499 358.93,-1183.016 358.455,-1182.888 L356.502,-1182.361 C356.778,-1182.466 356.623,-1182.388 356.943,-1182.636 C356.623,-1182.388 356.778,-1182.466 356.502,-1182.361 L330.038,-1175.219 C329.565,-1175.091 329.079,-1175.367 328.952,-1175.84 L325.417,-1188.937 C325.292,-1189.401 325.572,-1189.888 326.044,-1190.015 L354.461,-1197.685 z M331.473,-1175.762 L331.473,-1175.762 L331.748,-1175.725 L331.473,-1175.762 z M357.153,-1183.294 L357.147,-1183.188 L357.157,-1183.267 L357.153,-1183.294 z M353.539,-1196.682 L353.593,-1196.541 C353.541,-1196.68 353.569,-1196.638 353.539,-1196.682 z M353.321,-1196.974 L353.482,-1196.767 C353.414,-1196.87 353.464,-1196.798 353.321,-1196.974 z M327.891,-1190.504 C327.785,-1190.453 327.834,-1190.484 327.744,-1190.412 C327.834,-1190.484 327.785,-1190.453 327.891,-1190.504 z" fill="#FFFFFF"/>
      <path d="M379.428,-1223.766 L381.381,-1224.293 C381.853,-1224.42 382.343,-1224.137 382.468,-1223.673 L386.001,-1210.581 C386.13,-1210.104 385.849,-1209.616 385.376,-1209.488 L370.333,-1205.428 C369.864,-1205.302 369.372,-1205.582 369.244,-1206.058 L365.71,-1219.15 C365.585,-1219.614 365.869,-1220.106 366.337,-1220.233 L379.428,-1223.766 L379.429,-1223.766 L379.428,-1223.766 z M383.951,-1209.43 C383.788,-1209.227 383.869,-1209.332 383.707,-1209.115 C383.942,-1209.331 383.879,-1209.214 383.951,-1209.43 L383.951,-1209.43 z M384.067,-1209.792 L384.064,-1209.774 C384.068,-1209.786 384.067,-1209.78 384.067,-1209.792 z M379.816,-1223.75 C380.118,-1223.665 379.977,-1223.723 380.241,-1223.579 C379.984,-1223.743 380.124,-1223.684 379.816,-1223.75 z" fill="#FFFFFF"/>
      <path d="M363.354,-1219.428 C363.833,-1219.557 364.316,-1219.271 364.442,-1218.808 L367.975,-1205.716 C368.104,-1205.239 367.828,-1204.752 367.35,-1204.623 L352.307,-1200.563 C351.836,-1200.436 351.351,-1200.718 351.223,-1201.194 L347.689,-1214.286 C347.564,-1214.75 347.84,-1215.241 348.311,-1215.368 L363.354,-1219.428 z M365.84,-1204.373 L365.63,-1204.21 C365.733,-1204.279 365.661,-1204.228 365.84,-1204.373 z M353.175,-1201.721 C353.246,-1201.53 353.2,-1201.622 353.317,-1201.445 C353.2,-1201.622 353.247,-1201.53 353.175,-1201.721 z M349.624,-1215.066 L349.613,-1214.988 L349.617,-1214.962 L349.624,-1215.066 z M361.791,-1218.886 C362.093,-1218.801 361.952,-1218.859 362.216,-1218.715 C361.959,-1218.879 362.1,-1218.82 361.791,-1218.886 z" fill="#FFFFFF"/>
      <path d="M345.329,-1214.563 C345.802,-1214.691 346.29,-1214.406 346.415,-1213.943 L349.948,-1200.85 C350.077,-1200.374 349.798,-1199.886 349.325,-1199.758 L325.174,-1193.24 C324.701,-1193.113 324.214,-1193.394 324.086,-1193.87 L320.552,-1206.963 C320.427,-1207.426 320.706,-1207.917 321.178,-1208.045 L345.329,-1214.563 z M344.319,-1213.688 L344.463,-1213.416 C344.381,-1213.62 344.432,-1213.531 344.319,-1213.688 z M343.925,-1213.974 L344.316,-1213.691 C344.161,-1213.907 344.272,-1213.791 343.925,-1213.974 z" fill="#FFFFFF"/>
      <path d="M349.379,-1234.995 C349.856,-1235.124 350.34,-1234.843 350.468,-1234.37 L354,-1221.282 C354.128,-1220.81 353.851,-1220.323 353.374,-1220.194 L340.29,-1216.663 L340.286,-1216.662 L338.337,-1216.136 C337.866,-1216.009 337.378,-1216.29 337.25,-1216.762 L333.718,-1229.85 C333.59,-1230.323 333.871,-1230.809 334.343,-1230.937 L349.379,-1234.995 z M352.047,-1220.755 C352.095,-1220.465 352.084,-1220.637 352.031,-1220.238 C352.084,-1220.637 352.095,-1220.465 352.047,-1220.755 z M348.204,-1234.329 C348.286,-1234.223 348.369,-1234.117 348.451,-1234.011 L348.451,-1234.01 L348.451,-1234.011 C348.369,-1234.117 348.286,-1234.223 348.204,-1234.329 z" fill="#FFFFFF"/>
      <path d="M365.459,-1239.334 C365.659,-1239.368 365.556,-1239.362 365.767,-1239.349 C365.556,-1239.362 365.659,-1239.368 365.459,-1239.334 L367.411,-1239.861 C367.882,-1239.989 368.369,-1239.709 368.497,-1239.236 L372.029,-1226.148 C372.157,-1225.675 371.877,-1225.188 371.406,-1225.061 L358.312,-1221.527 L358.309,-1221.526 L356.359,-1221 C355.892,-1220.874 355.407,-1221.155 355.279,-1221.627 L351.747,-1234.716 C351.619,-1235.188 351.898,-1235.675 352.365,-1235.801 L365.459,-1239.334 z M369.891,-1224.809 L369.683,-1224.646 C369.786,-1224.715 369.713,-1224.665 369.891,-1224.809 z" fill="#FFFFFF"/>
      <path d="M331.358,-1230.131 C331.83,-1230.258 332.318,-1229.979 332.445,-1229.506 L335.978,-1216.418 C336.105,-1215.946 335.824,-1215.458 335.353,-1215.331 L322.261,-1211.797 L322.257,-1211.797 L320.308,-1211.271 C319.835,-1211.143 319.348,-1211.424 319.221,-1211.896 L315.689,-1224.984 C315.561,-1225.457 315.841,-1225.943 316.314,-1226.071 L331.358,-1230.131 z" fill="#FFFFFF"/>
      <path d="M596.709,-1215.231 C597.183,-1215.359 597.674,-1215.074 597.801,-1214.606 L599.644,-1207.776 C599.771,-1207.304 599.488,-1206.816 599.015,-1206.689 L597.065,-1206.162 C597.163,-1206.187 597.206,-1206.215 597.065,-1206.162 L583.977,-1202.63 C583.507,-1202.503 583.014,-1202.781 582.886,-1203.254 L581.043,-1210.083 C580.916,-1210.552 581.201,-1211.045 581.671,-1211.172 L583.617,-1211.697 L583.621,-1211.699 L596.709,-1215.231 z M597.503,-1206.437 L597.295,-1206.275 C597.398,-1206.344 597.326,-1206.293 597.503,-1206.437 z" fill="#FFFFFF"/>
      <path d="M560.659,-1205.502 C561.13,-1205.629 561.619,-1205.344 561.745,-1204.875 L563.589,-1198.046 C563.716,-1197.573 563.436,-1197.086 562.965,-1196.959 L547.929,-1192.901 C547.451,-1192.772 546.96,-1193.051 546.833,-1193.524 L544.99,-1200.353 C544.863,-1200.821 545.145,-1201.314 545.624,-1201.443 L547.572,-1201.969 L547.575,-1201.97 L560.659,-1205.502 z" fill="#FFFFFF"/>
      <path d="M563.29,-1215.372 C563.074,-1215.314 562.876,-1215.166 562.752,-1214.95 C562.876,-1215.166 563.074,-1215.314 563.29,-1215.372 L576.383,-1218.906 C576.601,-1218.964 576.84,-1218.934 577.057,-1218.811 C577.265,-1218.693 577.408,-1218.494 577.466,-1218.279 L581.471,-1203.441 C581.568,-1203.081 581.582,-1202.697 581.488,-1202.394 C581.39,-1202.075 581.211,-1201.884 580.992,-1201.825 L567.9,-1198.291 C567.684,-1198.233 567.426,-1198.307 567.183,-1198.533 C567.426,-1198.307 567.684,-1198.233 567.9,-1198.291 L565.948,-1197.765 C565.732,-1197.706 565.474,-1197.78 565.231,-1198.006 C564.999,-1198.222 564.817,-1198.56 564.72,-1198.92 L560.715,-1213.758 C560.657,-1213.973 560.682,-1214.217 560.8,-1214.423 C560.924,-1214.639 561.122,-1214.787 561.339,-1214.845 L563.29,-1215.372 z M579.411,-1201.614 C579.317,-1201.496 579.368,-1201.555 579.258,-1201.437 C579.368,-1201.555 579.317,-1201.496 579.411,-1201.614 z M579.563,-1202.718 L579.578,-1202.638 L579.578,-1202.642 L579.563,-1202.718 z M575.403,-1217.985 L575.469,-1217.88 L575.458,-1217.91 L575.403,-1217.985 z M575.297,-1218.119 L575.397,-1217.994 C575.368,-1218.039 575.333,-1218.079 575.297,-1218.119 z M574.789,-1218.392 C575.006,-1218.318 574.901,-1218.354 575.104,-1218.284 L575.228,-1218.196 C575.227,-1218.197 575.227,-1218.198 575.226,-1218.199 C575.185,-1218.228 575.145,-1218.256 575.104,-1218.284 C574.901,-1218.354 575.006,-1218.318 574.789,-1218.392 z" fill="#FFFFFF"/>
      <path d="M535.705,-1227.266 C535.539,-1227.204 535.617,-1227.243 535.468,-1227.151 C535.617,-1227.243 535.539,-1227.204 535.705,-1227.266 L548.793,-1230.798 C549.263,-1230.925 549.753,-1230.641 549.88,-1230.172 L553.413,-1217.082 C553.539,-1216.613 553.258,-1216.12 552.788,-1215.993 L537.748,-1211.934 C537.276,-1211.807 536.785,-1212.091 536.659,-1212.56 L533.126,-1225.65 C532.999,-1226.119 533.28,-1226.611 533.753,-1226.739 L535.705,-1227.266 z M551.445,-1216.068 C551.417,-1215.99 551.433,-1216.028 551.398,-1215.955 C551.433,-1216.028 551.417,-1215.99 551.445,-1216.068 z" fill="#FFFFFF"/>
      <path d="M553.73,-1232.131 C553.674,-1232.109 553.618,-1232.088 553.562,-1232.067 C553.562,-1232.067 553.562,-1232.067 553.562,-1232.066 L553.73,-1232.131 L589.398,-1241.757 C589.868,-1241.884 590.359,-1241.599 590.485,-1241.13 L594.018,-1228.04 C594.145,-1227.572 593.863,-1227.079 593.393,-1226.952 L555.773,-1216.799 C555.302,-1216.672 554.812,-1216.956 554.686,-1217.425 L551.153,-1230.515 C551.026,-1230.984 551.306,-1231.476 551.778,-1231.604 L553.73,-1232.131 z M592.05,-1227.127 C591.965,-1226.825 592.023,-1226.966 591.88,-1226.702 C592.042,-1226.96 591.984,-1226.819 592.05,-1227.127 z M588.412,-1240.845 L588.467,-1240.762 C588.441,-1240.826 588.46,-1240.798 588.412,-1240.845 z" fill="#FFFFFF"/>
      <path d="M507.172,-1181.901 C506.706,-1181.776 506.211,-1182.053 506.083,-1182.526 L501.935,-1197.895 C501.81,-1198.358 502.096,-1198.857 502.562,-1198.982 L522.302,-1204.31 C522.776,-1204.438 523.264,-1204.148 523.389,-1203.685 L527.537,-1188.316 C527.664,-1187.843 527.386,-1187.357 526.912,-1187.229 L507.172,-1181.901 z M525.458,-1187.14 C525.287,-1186.865 525.394,-1186.992 525.129,-1186.766 C525.412,-1186.979 525.306,-1186.851 525.458,-1187.14 z M521.083,-1203.644 C521.393,-1203.303 521.289,-1203.474 521.437,-1203.158 L521.374,-1203.323 C521.282,-1203.438 521.214,-1203.571 521.083,-1203.644 z" fill="#FFFFFF"/>
      <path d="M540.328,-1209.175 C540.799,-1209.302 541.296,-1209.015 541.421,-1208.551 L545.569,-1193.183 C545.697,-1192.71 545.409,-1192.221 544.938,-1192.094 L529.893,-1188.034 C529.426,-1187.907 528.938,-1188.187 528.81,-1188.66 L524.662,-1204.028 C524.537,-1204.492 524.816,-1204.988 525.283,-1205.115 L540.328,-1209.175 z M543.606,-1192.198 C543.325,-1191.741 543.485,-1191.913 543.17,-1191.644 C543.516,-1191.912 543.372,-1191.749 543.598,-1192.137 L543.606,-1192.198 z M531.312,-1188.589 L531.33,-1188.578 L531.35,-1188.576 L531.312,-1188.589 z" fill="#FFFFFF"/>
      <path d="M417.04,-1157.576 C416.575,-1157.451 416.078,-1157.727 415.95,-1158.2 L411.802,-1173.569 C411.677,-1174.032 411.965,-1174.531 412.43,-1174.657 L414.382,-1175.184 L414.382,-1175.184 L499.574,-1198.176 C500.049,-1198.304 500.542,-1198.016 500.667,-1197.552 L504.814,-1182.184 C504.942,-1181.71 504.659,-1181.223 504.184,-1181.095 L417.04,-1157.576 z M502.678,-1180.899 C502.586,-1180.752 502.659,-1180.857 502.401,-1180.632 C502.667,-1180.846 502.604,-1180.734 502.678,-1180.899 z M502.876,-1181.347 L502.875,-1181.343 C502.876,-1181.345 502.876,-1181.343 502.876,-1181.347 z M498.652,-1197.191 L498.715,-1197.026 L502.863,-1181.657 L502.863,-1181.656 L502.863,-1181.657 L498.715,-1197.026 L498.652,-1197.191 z M498.013,-1197.632 C498.169,-1197.606 498.303,-1197.536 498.439,-1197.46 C498.312,-1197.568 498.172,-1197.601 498.013,-1197.632 z" fill="#FFFFFF"/>
      <path d="M494.709,-1216.202 C495.184,-1216.33 495.676,-1216.046 495.802,-1215.577 L499.335,-1202.487 C499.461,-1202.018 499.179,-1201.525 498.705,-1201.397 L496.753,-1200.87 L496.921,-1200.935 L496.753,-1200.87 L483.666,-1197.338 C483.196,-1197.212 482.709,-1197.497 482.582,-1197.965 L479.049,-1211.056 C478.923,-1211.524 479.201,-1212.016 479.67,-1212.143 L492.757,-1215.675 L492.775,-1215.678 L492.757,-1215.675 L494.709,-1216.202 z M497.366,-1201.572 C497.28,-1201.271 497.339,-1201.412 497.194,-1201.148 C497.358,-1201.405 497.299,-1201.264 497.366,-1201.572 L497.366,-1201.572 z M485.038,-1197.923 C485.073,-1197.906 485.055,-1197.914 485.093,-1197.901 L485.038,-1197.923 z M484.534,-1198.492 C484.621,-1198.265 484.561,-1198.372 484.716,-1198.173 C484.561,-1198.372 484.621,-1198.265 484.534,-1198.492 L484.534,-1198.492 z M493.796,-1215.193 L493.85,-1215.05 L497.383,-1201.96 L497.383,-1201.959 L497.383,-1201.96 L493.85,-1215.05 C493.798,-1215.191 493.826,-1215.148 493.796,-1215.193 L493.796,-1215.193 z M493.574,-1215.488 L493.738,-1215.279 C493.668,-1215.382 493.719,-1215.31 493.574,-1215.488 L493.574,-1215.488 z" fill="#FFFFFF"/>
      <path d="M469.599,-1212.885 C469.128,-1212.757 468.643,-1213.034 468.515,-1213.506 L464.98,-1226.603 C464.855,-1227.067 465.135,-1227.554 465.606,-1227.681 L478.695,-1231.214 C479.159,-1231.243 478.943,-1231.294 479.344,-1231.065 C478.943,-1231.294 479.159,-1231.243 478.695,-1231.214 L480.647,-1231.741 C481.116,-1231.867 481.604,-1231.587 481.729,-1231.123 L485.264,-1218.026 C485.392,-1217.554 485.109,-1217.07 484.641,-1216.944 L469.599,-1212.885 z M470.612,-1213.757 C470.768,-1213.539 470.656,-1213.656 471.004,-1213.472 L470.612,-1213.757 z M470.467,-1214.033 C470.548,-1213.827 470.497,-1213.917 470.611,-1213.758 L470.467,-1214.033 z M467.277,-1228.056 C467.055,-1227.87 467.132,-1227.979 467.03,-1227.742 C467.196,-1227.945 467.114,-1227.841 467.277,-1228.056 z" fill="#FFFFFF"/>
      <path d="M498.674,-1236.606 C499.145,-1236.733 499.629,-1236.452 499.754,-1235.988 L503.289,-1222.891 C503.416,-1222.419 503.138,-1221.936 502.667,-1221.809 L500.715,-1221.282 L487.623,-1217.749 C487.153,-1217.622 486.669,-1217.899 486.541,-1218.371 L483.006,-1231.468 C482.881,-1231.932 483.16,-1232.419 483.629,-1232.545 L498.674,-1236.606 z M501.153,-1221.556 C501.025,-1221.435 500.891,-1221.348 500.728,-1221.287 C500.897,-1221.332 501.021,-1221.449 501.153,-1221.556 L501.153,-1221.556 z M488.638,-1218.622 C488.793,-1218.405 488.682,-1218.522 489.029,-1218.337 L488.638,-1218.622 z M488.493,-1218.898 C488.574,-1218.692 488.524,-1218.782 488.637,-1218.623 L488.493,-1218.898 z M501.362,-1222.214 L501.355,-1222.108 L501.366,-1222.187 L501.362,-1222.214 z" fill="#FFFFFF"/>
      <path d="M530.769,-1225.934 C531.244,-1226.062 531.727,-1225.776 531.854,-1225.307 L535.387,-1212.216 C535.513,-1211.748 535.239,-1211.257 534.765,-1211.129 L521.673,-1207.596 L521.475,-1207.575 C521.578,-1207.573 521.512,-1207.571 521.673,-1207.596 L519.721,-1207.069 C519.247,-1206.941 518.76,-1207.226 518.633,-1207.695 L515.101,-1220.785 C514.974,-1221.254 515.251,-1221.746 515.726,-1221.874 L530.769,-1225.934 z M521.105,-1207.642 C521.268,-1207.569 521.189,-1207.583 521.335,-1207.579 L521.105,-1207.642 z M533.42,-1211.186 C533.399,-1211.134 533.411,-1211.16 533.384,-1211.107 C533.411,-1211.16 533.399,-1211.134 533.42,-1211.186 z M517.487,-1222.312 C517.385,-1222.264 517.423,-1222.295 517.364,-1222.231 L517.487,-1222.312 z" fill="#FFFFFF"/>
      <path d="M499.649,-1217.535 C499.389,-1217.427 499.494,-1217.503 499.322,-1217.324 C499.504,-1217.491 499.397,-1217.416 499.649,-1217.535 L512.74,-1221.068 C513.211,-1221.195 513.702,-1220.911 513.829,-1220.442 L517.361,-1207.352 C517.488,-1206.883 517.207,-1206.391 516.735,-1206.263 L501.693,-1202.203 C501.227,-1202.078 500.73,-1202.36 500.603,-1202.829 L497.07,-1215.919 C496.944,-1216.388 497.232,-1216.882 497.697,-1217.008 L499.649,-1217.535 z M515.439,-1206.649 C515.376,-1206.196 515.449,-1206.408 515.222,-1206.013 C515.449,-1206.408 515.376,-1206.196 515.439,-1206.649 z M511.614,-1220.336 L511.813,-1220.082 C511.738,-1220.159 511.696,-1220.265 511.614,-1220.336 z M511.306,-1220.523 L511.583,-1220.363 C511.497,-1220.423 511.398,-1220.471 511.306,-1220.523 z" fill="#FFFFFF"/>
      <path d="M516.703,-1241.471 C517.167,-1241.597 517.66,-1241.318 517.785,-1240.854 L521.319,-1227.757 C521.447,-1227.285 521.16,-1226.8 520.696,-1226.675 L518.744,-1226.148 C519.016,-1226.252 518.863,-1226.175 519.179,-1226.421 C518.863,-1226.175 519.016,-1226.252 518.744,-1226.148 L505.651,-1222.614 C505.181,-1222.487 504.694,-1222.763 504.566,-1223.236 L501.031,-1236.333 C500.906,-1236.797 501.188,-1237.284 501.658,-1237.411 L516.703,-1241.471 z M506.767,-1223.362 C506.943,-1223.182 506.812,-1223.291 507.228,-1223.145 L506.767,-1223.362 z M506.564,-1223.643 C506.649,-1223.471 506.598,-1223.536 506.697,-1223.435 L506.564,-1223.643 z M519.392,-1227.08 L519.386,-1226.975 L519.397,-1227.053 L519.392,-1227.08 z" fill="#FFFFFF"/>
      <path d="M507.563,-1258.348 C508.036,-1258.475 508.525,-1258.191 508.65,-1257.727 L512.183,-1244.635 C512.312,-1244.159 512.031,-1243.671 511.558,-1243.543 L496.514,-1239.483 C496.044,-1239.356 495.556,-1239.637 495.428,-1240.113 L491.894,-1253.205 C491.769,-1253.669 492.049,-1254.161 492.519,-1254.287 L505.611,-1257.821 L505.612,-1257.821 L505.611,-1257.821 L507.563,-1258.348 z M509.849,-1243.137 L509.766,-1243.082 C509.83,-1243.108 509.802,-1243.089 509.849,-1243.137 z M506.635,-1257.366 L506.698,-1257.2 L510.231,-1244.109 L510.261,-1243.93 L510.231,-1244.109 L506.698,-1257.201 L506.635,-1257.366 z M505.999,-1257.805 C506.3,-1257.72 506.159,-1257.778 506.424,-1257.634 C506.166,-1257.798 506.307,-1257.739 505.999,-1257.805 z" fill="#FFFFFF"/>
      <path d="M510.549,-1259.154 L512.501,-1259.68 L512.501,-1259.68 L525.595,-1263.214 C526.058,-1263.339 526.547,-1263.055 526.672,-1262.591 L530.206,-1249.499 C530.334,-1249.023 530.053,-1248.534 529.591,-1248.41 L516.497,-1244.876 C516.024,-1244.748 515.539,-1245.03 515.41,-1245.506 L511.877,-1258.598 L511.876,-1258.602 L511.876,-1258.598 L515.41,-1245.506 C515.538,-1245.03 516.024,-1244.748 516.497,-1244.876 L514.545,-1244.349 C514.072,-1244.221 513.587,-1244.503 513.458,-1244.979 L509.925,-1258.071 C509.8,-1258.535 510.077,-1259.026 510.549,-1259.154 z M511.941,-1259.146 C511.898,-1259.067 511.886,-1258.972 511.865,-1258.885 C511.887,-1258.973 511.91,-1259.061 511.941,-1259.146 z M512.333,-1259.616 L512.333,-1259.616 C512.098,-1259.482 512.161,-1259.568 512.083,-1259.418 C512.131,-1259.475 512.426,-1259.559 512.333,-1259.616 z" fill="#FFFFFF"/>
      <path d="M489.538,-1253.483 C490.012,-1253.611 490.494,-1253.325 490.619,-1252.861 L494.153,-1239.769 C494.281,-1239.293 494.008,-1238.806 493.533,-1238.678 L478.487,-1234.617 C478.021,-1234.492 477.534,-1234.773 477.405,-1235.249 L473.872,-1248.341 C473.747,-1248.805 474.025,-1249.296 474.491,-1249.422 L489.538,-1253.483 z M479.357,-1235.776 C479.462,-1235.499 479.384,-1235.655 479.633,-1235.334 C479.384,-1235.655 479.462,-1235.499 479.357,-1235.776 z M475.801,-1249.007 C475.801,-1248.956 475.801,-1249.003 475.824,-1248.868 L475.801,-1249.007 z M475.94,-1249.552 L475.842,-1249.381 C475.787,-1249.182 475.8,-1249.281 475.801,-1249.083 L475.842,-1249.381 L475.94,-1249.552 z M488.3,-1252.826 C488.339,-1252.802 488.308,-1252.821 488.395,-1252.769 L488.3,-1252.826 z M487.963,-1252.96 L488.124,-1252.924 C488.069,-1252.954 488.118,-1252.929 487.963,-1252.96 z" fill="#FFFFFF"/>
      <path d="M579.541,-1242.572 L579.71,-1242.602 L577.756,-1242.075 C577.534,-1242.015 577.297,-1242.037 577.085,-1242.16 C576.876,-1242.279 576.73,-1242.476 576.67,-1242.695 L572.036,-1259.865 L573.989,-1260.392 L573.989,-1260.392 L570.571,-1259.47 C570.357,-1259.412 570.114,-1259.441 569.902,-1259.56 C569.689,-1259.682 569.55,-1259.882 569.49,-1260.102 L565.957,-1273.194 C565.898,-1273.413 565.919,-1273.651 566.043,-1273.86 L566.065,-1273.891 L566.043,-1273.86 C565.919,-1273.651 565.898,-1273.413 565.957,-1273.194 L569.49,-1260.102 C569.55,-1259.882 569.689,-1259.682 569.902,-1259.56 C570.114,-1259.441 570.357,-1259.412 570.572,-1259.47 L568.618,-1258.943 C568.404,-1258.885 568.165,-1258.915 567.949,-1259.033 C567.736,-1259.155 567.6,-1259.355 567.541,-1259.576 L564.007,-1272.668 C563.948,-1272.887 563.966,-1273.124 564.09,-1273.333 C564.214,-1273.552 564.408,-1273.689 564.623,-1273.747 L566.576,-1274.274 L566.561,-1274.269 L566.576,-1274.274 L579.668,-1277.808 C579.89,-1277.868 580.127,-1277.847 580.345,-1277.72 C580.556,-1277.602 580.699,-1277.408 580.758,-1277.188 L589.157,-1246.066 C589.217,-1245.846 589.192,-1245.603 589.069,-1245.394 C588.943,-1245.18 588.75,-1245.042 588.527,-1244.981 L579.709,-1242.602 C579.428,-1242.553 579.597,-1242.566 579.201,-1242.614 L579.541,-1242.572 z M586.939,-1244.667 L586.804,-1244.565 C586.908,-1244.616 586.864,-1244.582 586.939,-1244.667 L586.939,-1244.667 z" fill="#FFFFFF"/>
      <path d="M541.706,-1232.345 C541.232,-1232.217 540.745,-1232.493 540.618,-1232.965 L537.083,-1246.062 C536.958,-1246.526 537.239,-1247.014 537.713,-1247.142 L552.754,-1251.201 C553.223,-1251.328 553.709,-1251.047 553.834,-1250.583 L557.369,-1237.486 C557.497,-1237.014 557.216,-1236.531 556.747,-1236.404 L541.706,-1232.345 z M555.232,-1236.151 L555.024,-1235.99 C555.127,-1236.058 555.055,-1236.008 555.232,-1236.151 z M542.716,-1233.215 C542.872,-1232.998 542.76,-1233.115 543.109,-1232.932 L542.716,-1233.215 z M542.569,-1233.492 C542.651,-1233.286 542.6,-1233.376 542.714,-1233.218 L542.569,-1233.492 z M551.786,-1250.264 L551.82,-1250.221 L551.82,-1250.222 L551.786,-1250.264 z M539.383,-1247.516 C539.16,-1247.331 539.237,-1247.44 539.135,-1247.203 C539.302,-1247.406 539.219,-1247.301 539.383,-1247.516 z" fill="#FFFFFF"/>
      <path d="M523.674,-1227.479 C523.201,-1227.351 522.72,-1227.628 522.593,-1228.101 L519.058,-1241.198 C518.933,-1241.662 519.208,-1242.148 519.681,-1242.275 L534.729,-1246.336 C535.198,-1246.463 535.687,-1246.183 535.812,-1245.72 L539.347,-1232.622 C539.474,-1232.151 539.191,-1231.666 538.722,-1231.54 L536.77,-1231.013 L523.674,-1227.479 z M521.475,-1242.724 C521.038,-1242.569 520.985,-1242.113 521.009,-1241.725 L524.544,-1228.627 C524.688,-1228.15 525.115,-1227.972 525.576,-1228.002 C525.078,-1227.888 524.746,-1228.223 524.544,-1228.628 L521.01,-1241.725 C520.917,-1242.13 521.099,-1242.536 521.475,-1242.724 z M537.42,-1231.945 L537.413,-1231.84 L537.424,-1231.919 L537.42,-1231.945 z" fill="#FFFFFF"/>
      <path d="M570.779,-1256.066 C571.249,-1256.193 571.735,-1255.912 571.86,-1255.448 L575.395,-1242.351 C575.522,-1241.879 575.242,-1241.396 574.772,-1241.269 L572.823,-1240.743 C573.095,-1240.847 572.942,-1240.77 573.258,-1241.016 C572.942,-1240.77 573.095,-1240.847 572.823,-1240.743 L559.726,-1237.208 C559.257,-1237.082 558.774,-1237.359 558.647,-1237.831 L555.112,-1250.928 C554.987,-1251.392 555.264,-1251.878 555.733,-1252.005 L570.779,-1256.066 z M560.743,-1238.083 C560.898,-1237.865 560.787,-1237.982 561.133,-1237.797 L560.743,-1238.083 z M560.599,-1238.358 C560.68,-1238.153 560.629,-1238.243 560.742,-1238.084 L560.599,-1238.358 z M573.47,-1241.675 L573.463,-1241.569 L573.474,-1241.648 L573.47,-1241.675 z M569.857,-1255.063 L569.911,-1254.922 C569.858,-1255.061 569.886,-1255.019 569.857,-1255.063 z M557.043,-1251.584 C557.045,-1251.531 557.043,-1251.575 557.064,-1251.455 L557.043,-1251.584 z M557.055,-1251.772 C557.04,-1251.667 557.039,-1251.703 557.04,-1251.662 L557.055,-1251.772 z M569.637,-1255.355 L569.799,-1255.149 C569.73,-1255.251 569.78,-1255.179 569.637,-1255.355 z" fill="#FFFFFF"/>
      <path d="M561.646,-1272.944 C562.112,-1273.07 562.603,-1272.786 562.729,-1272.322 L566.262,-1259.23 C566.39,-1258.754 566.108,-1258.265 565.642,-1258.139 L550.598,-1254.079 C550.125,-1253.952 549.637,-1254.233 549.508,-1254.709 L545.975,-1267.801 C545.85,-1268.265 546.129,-1268.756 546.602,-1268.884 L561.646,-1272.944 z M564.309,-1258.703 C564.357,-1258.411 564.346,-1258.585 564.293,-1258.182 C564.346,-1258.585 564.357,-1258.411 564.309,-1258.703 z M560.634,-1272.06 L560.689,-1271.99 L560.712,-1271.96 L560.713,-1271.959 L560.712,-1271.96 C560.642,-1272.05 560.668,-1272.017 560.634,-1272.06 z M548.273,-1269.26 C548.101,-1269.165 548.037,-1269.003 547.945,-1268.84 C548.024,-1269.021 548.118,-1269.144 548.273,-1269.26 z" fill="#FFFFFF"/>
      <path d="M543.614,-1268.077 C544.088,-1268.205 544.577,-1267.921 544.702,-1267.458 L548.236,-1254.365 C548.364,-1253.889 548.084,-1253.401 547.609,-1253.273 L532.567,-1249.213 C532.104,-1249.088 531.612,-1249.368 531.483,-1249.844 L527.95,-1262.936 C527.824,-1263.4 528.108,-1263.893 528.571,-1264.017 L543.614,-1268.077 z" fill="#FFFFFF"/>
      <path d="M545.721,-1287.985 L545.897,-1288.014 L545.721,-1287.985 L547.673,-1288.512 C548.142,-1288.638 548.626,-1288.358 548.753,-1287.885 L552.286,-1274.797 C552.413,-1274.324 552.137,-1273.838 551.668,-1273.711 L549.716,-1273.184 L549.882,-1273.248 L549.716,-1273.184 L538.569,-1270.176 L538.565,-1270.175 L536.617,-1269.649 C536.151,-1269.524 535.664,-1269.804 535.537,-1270.276 L532.004,-1283.365 C531.877,-1283.838 532.157,-1284.324 532.622,-1284.45 L545.721,-1287.985 z M546.754,-1287.484 L546.802,-1287.358 L550.334,-1274.27 L550.363,-1274.093 L550.334,-1274.27 L546.802,-1287.358 C546.786,-1287.4 546.77,-1287.442 546.754,-1287.484 L546.754,-1287.484 z" fill="#FFFFFF"/>
      <path d="M511.622,-1278.782 C512.087,-1278.907 512.577,-1278.629 512.705,-1278.156 L516.237,-1265.068 C516.364,-1264.595 516.081,-1264.107 515.617,-1263.981 L502.519,-1260.446 L502.515,-1260.446 L500.567,-1259.92 C500.101,-1259.794 499.613,-1260.075 499.486,-1260.547 L495.953,-1273.635 C495.826,-1274.108 496.107,-1274.594 496.572,-1274.72 L511.622,-1278.782 z M514.104,-1263.785 C514.014,-1263.638 514.086,-1263.743 513.83,-1263.518 C514.093,-1263.732 514.032,-1263.62 514.104,-1263.785 z M514.298,-1264.232 L514.298,-1264.229 C514.299,-1264.23 514.299,-1264.229 514.299,-1264.232 z M510.609,-1277.903 L510.753,-1277.629 L510.689,-1277.797 L510.609,-1277.903 z M510.274,-1278.148 L510.607,-1277.905 C510.467,-1278.091 510.564,-1277.995 510.274,-1278.148 z" fill="#FFFFFF"/>
      <path d="M574.803,-1295.834 C575.273,-1295.96 575.763,-1295.682 575.89,-1295.209 L579.423,-1282.121 C579.55,-1281.648 579.268,-1281.16 578.798,-1281.033 L556.6,-1275.042 L556.596,-1275.042 L554.647,-1274.515 C554.184,-1274.39 553.69,-1274.669 553.563,-1275.141 L550.031,-1288.229 C549.903,-1288.703 550.19,-1289.191 550.652,-1289.316 L574.803,-1295.834 z" fill="#FFFFFF"/>
      <path d="M529.644,-1283.646 C530.117,-1283.773 530.604,-1283.494 530.731,-1283.021 L534.264,-1269.933 C534.391,-1269.46 534.112,-1268.973 533.639,-1268.845 L520.547,-1265.312 L520.543,-1265.311 L518.595,-1264.785 C518.122,-1264.658 517.632,-1264.938 517.505,-1265.41 L513.973,-1278.498 C513.845,-1278.971 514.128,-1279.458 514.6,-1279.586 L529.644,-1283.646 z" fill="#FFFFFF"/>
      <path d="M394.316,-1151.443 C393.846,-1151.316 393.361,-1151.596 393.234,-1152.069 L389.086,-1167.438 C388.961,-1167.901 389.236,-1168.397 389.706,-1168.524 L409.452,-1173.853 C409.917,-1173.979 410.407,-1173.69 410.532,-1173.226 L414.68,-1157.857 C414.808,-1157.385 414.526,-1156.898 414.062,-1156.772 L394.316,-1151.443 z M407.847,-1173.346 C408.524,-1172.952 408.324,-1173.209 408.58,-1172.699 L412.728,-1157.331 C412.765,-1156.758 412.809,-1157.081 412.42,-1156.401 C412.809,-1157.081 412.765,-1156.758 412.728,-1157.331 L408.58,-1172.699 C408.324,-1173.209 408.524,-1172.952 407.847,-1173.346 z" fill="#FFFFFF"/>
      <path d="M422.608,-1196.743 C423.082,-1196.871 423.571,-1196.586 423.697,-1196.117 L427.23,-1183.026 C427.356,-1182.558 427.078,-1182.066 426.604,-1181.938 L411.561,-1177.878 C411.096,-1177.753 410.597,-1178.035 410.47,-1178.503 L406.938,-1191.594 C406.811,-1192.062 407.1,-1192.557 407.565,-1192.683 L409.517,-1193.21 C409.305,-1193.128 409.398,-1193.182 409.233,-1193.053 C409.398,-1193.182 409.305,-1193.128 409.517,-1193.21 L422.608,-1196.743 z M425.286,-1182.133 C425.272,-1181.984 425.294,-1182.047 425.236,-1181.942 C425.294,-1182.047 425.272,-1181.984 425.286,-1182.133 L425.286,-1182.133 z" fill="#FFFFFF"/>
      <path d="M465.64,-1192.473 C465.168,-1192.346 464.678,-1192.63 464.552,-1193.099 L461.019,-1206.189 C460.892,-1206.658 461.172,-1207.151 461.645,-1207.278 L476.69,-1211.339 C477.162,-1211.466 477.648,-1211.18 477.774,-1210.711 L481.307,-1197.621 C481.434,-1197.152 481.157,-1196.661 480.686,-1196.534 L465.64,-1192.473 z M467.335,-1192.982 L467.415,-1192.971 L467.441,-1192.975 L467.335,-1192.982 z M479.294,-1196.547 L479.01,-1196.154 C479.227,-1196.31 479.11,-1196.198 479.294,-1196.547 z" fill="#FFFFFF"/>
      <path d="M427.549,-1198.076 C427.335,-1197.994 427.429,-1198.049 427.263,-1197.919 C427.429,-1198.049 427.335,-1197.994 427.549,-1198.076 L440.638,-1201.609 C441.103,-1201.734 441.595,-1201.45 441.722,-1200.981 L445.255,-1187.891 C445.381,-1187.422 445.099,-1186.93 444.634,-1186.804 L429.592,-1182.745 C429.122,-1182.618 428.629,-1182.901 428.502,-1183.37 L424.969,-1196.46 C424.843,-1196.929 425.127,-1197.422 425.597,-1197.549 L427.549,-1198.076 z M443.244,-1186.809 C443.162,-1186.583 443.224,-1186.687 443.05,-1186.501 C443.231,-1186.683 443.169,-1186.578 443.244,-1186.809 z M439.098,-1201.076 C439.256,-1201.054 439.17,-1201.079 439.347,-1200.977 C439.17,-1201.079 439.256,-1201.054 439.098,-1201.076 z" fill="#FFFFFF"/>
      <path d="M445.573,-1202.94 C445.313,-1202.833 445.418,-1202.909 445.247,-1202.73 C445.428,-1202.896 445.322,-1202.822 445.573,-1202.94 L458.664,-1206.474 C459.131,-1206.599 459.62,-1206.315 459.747,-1205.846 L463.28,-1192.756 C463.406,-1192.287 463.126,-1191.795 462.659,-1191.669 L447.616,-1187.609 C447.149,-1187.483 446.659,-1187.767 446.533,-1188.236 L443,-1201.326 C442.873,-1201.795 443.153,-1202.287 443.62,-1202.414 L445.573,-1202.94 z M461.318,-1191.858 C461.247,-1191.578 461.298,-1191.709 461.167,-1191.462 C461.316,-1191.703 461.264,-1191.571 461.318,-1191.858 z" fill="#FFFFFF"/>
      <path d="M431.502,-1218.477 C431.447,-1218.456 431.392,-1218.435 431.336,-1218.414 C431.336,-1218.414 431.336,-1218.414 431.336,-1218.414 L431.502,-1218.477 L444.6,-1222.012 C445.066,-1222.138 445.555,-1221.858 445.68,-1221.394 L449.215,-1208.297 C449.342,-1207.825 449.059,-1207.341 448.594,-1207.215 L433.543,-1203.153 C433.076,-1203.027 432.592,-1203.304 432.464,-1203.776 L428.929,-1216.873 C428.804,-1217.337 429.083,-1217.824 429.55,-1217.95 L431.502,-1218.477 z M447.076,-1206.962 C446.875,-1206.798 446.971,-1206.868 446.79,-1206.747 C446.971,-1206.868 446.875,-1206.798 447.076,-1206.962 z M434.983,-1203.698 C434.983,-1203.698 434.983,-1203.698 434.983,-1203.698 C435.029,-1203.691 435.076,-1203.685 435.122,-1203.679 L434.983,-1203.698 z M434.691,-1203.865 L434.691,-1203.865 L434.721,-1203.848 L434.691,-1203.865 z M434.417,-1204.303 C434.49,-1204.111 434.444,-1204.183 434.529,-1204.073 C434.444,-1204.183 434.49,-1204.111 434.417,-1204.303 z M430.854,-1217.574 C430.852,-1217.536 430.877,-1217.43 430.882,-1217.4 L430.854,-1217.574 z" fill="#FFFFFF"/>
      <path d="M408.543,-1212.281 C409.015,-1212.408 409.503,-1212.128 409.628,-1211.664 L413.162,-1198.567 C413.29,-1198.095 413.008,-1197.611 412.536,-1197.484 L410.584,-1196.957 L397.491,-1193.423 C397.023,-1193.297 396.541,-1193.574 396.413,-1194.047 L392.878,-1207.144 C392.753,-1207.607 393.03,-1208.094 393.497,-1208.22 L408.543,-1212.281 z M411.023,-1197.231 C410.82,-1197.068 410.917,-1197.138 410.734,-1197.016 C410.917,-1197.138 410.82,-1197.068 411.023,-1197.231 L411.023,-1197.231 z M399.124,-1193.941 C399.138,-1193.935 399.13,-1193.937 399.149,-1193.938 L399.124,-1193.941 z M411.235,-1197.889 L411.228,-1197.784 L411.239,-1197.863 L411.235,-1197.889 z M398.429,-1194.407 L398.429,-1194.406 L398.432,-1194.402 L398.429,-1194.407 z" fill="#FFFFFF"/>
      <path d="M424.62,-1216.62 L424.629,-1216.621 L424.62,-1216.62 L426.572,-1217.146 C427.045,-1217.274 427.525,-1216.992 427.65,-1216.528 L431.185,-1203.431 C431.312,-1202.959 431.038,-1202.477 430.565,-1202.35 L428.613,-1201.823 C428.887,-1201.927 428.733,-1201.85 429.05,-1202.097 C428.733,-1201.85 428.887,-1201.927 428.613,-1201.823 L415.518,-1198.289 C415.048,-1198.162 414.564,-1198.439 414.437,-1198.911 L410.902,-1212.008 C410.777,-1212.472 411.055,-1212.958 411.525,-1213.085 L424.62,-1216.62 z M416.534,-1199.162 C416.689,-1198.945 416.578,-1199.062 416.925,-1198.877 L416.534,-1199.162 z M425.697,-1216.001 L429.232,-1202.904 C429.28,-1202.615 429.269,-1202.786 429.217,-1202.388 C429.269,-1202.786 429.28,-1202.615 429.232,-1202.904 L425.697,-1216.001 z M416.389,-1199.438 C416.47,-1199.233 416.419,-1199.322 416.533,-1199.164 L416.389,-1199.438 z M413.197,-1213.46 L413.197,-1213.46 C412.976,-1213.274 413.052,-1213.383 412.952,-1213.146 C413.117,-1213.35 413.035,-1213.245 413.197,-1213.46 z" fill="#FFFFFF"/>
      <path d="M462.622,-1226.876 C463.09,-1227.002 463.58,-1226.723 463.706,-1226.259 L467.24,-1213.162 C467.368,-1212.69 467.083,-1212.205 466.616,-1212.079 L464.664,-1211.552 C464.937,-1211.656 464.783,-1211.579 465.1,-1211.826 C464.783,-1211.579 464.937,-1211.656 464.664,-1211.552 L451.574,-1208.02 C451.109,-1207.894 450.613,-1208.168 450.485,-1208.64 L446.95,-1221.737 C446.825,-1222.201 447.116,-1222.691 447.581,-1222.816 L462.622,-1226.876 z M453.203,-1208.537 C453.219,-1208.531 453.21,-1208.533 453.231,-1208.534 L453.203,-1208.537 z M465.313,-1212.484 L465.306,-1212.379 L465.317,-1212.458 L465.313,-1212.484 z M452.486,-1209.039 L452.501,-1208.999 L452.503,-1208.997 C452.503,-1208.998 452.502,-1208.999 452.501,-1208.999 L452.486,-1209.039 z M461.659,-1225.936 L461.706,-1225.857 L461.69,-1225.897 L461.659,-1225.936 z M449.023,-1222.948 C448.926,-1222.823 448.913,-1222.73 448.894,-1222.578 C448.896,-1222.737 448.943,-1222.817 449.023,-1222.948 z" fill="#FFFFFF"/>
      <path d="M404.587,-1191.879 C405.051,-1192.004 405.541,-1191.72 405.668,-1191.251 L409.2,-1178.161 C409.327,-1177.692 409.047,-1177.2 408.583,-1177.074 L393.538,-1173.014 C393.067,-1172.887 392.577,-1173.171 392.451,-1173.64 L388.918,-1186.73 C388.791,-1187.199 389.071,-1187.691 389.542,-1187.819 L404.587,-1191.879 z" fill="#FFFFFF"/>
      <path d="M390.521,-1207.417 C390.992,-1207.544 391.472,-1207.262 391.597,-1206.798 L395.132,-1193.701 C395.259,-1193.229 394.985,-1192.747 394.514,-1192.62 L379.463,-1188.558 C378.998,-1188.433 378.511,-1188.708 378.384,-1189.181 L374.849,-1202.278 C374.724,-1202.742 375.005,-1203.229 375.469,-1203.354 L390.521,-1207.417 z M380.389,-1189.568 C380.563,-1189.283 380.451,-1189.375 380.689,-1189.253 C380.453,-1189.382 380.563,-1189.288 380.389,-1189.568 z M389.363,-1206.661 L389.363,-1206.661 C389.596,-1206.44 389.501,-1206.568 389.645,-1206.271 L393.18,-1193.174 C393.217,-1192.948 393.217,-1193.056 393.19,-1192.85 C393.217,-1193.056 393.217,-1192.948 393.18,-1193.174 L389.645,-1206.271 C389.508,-1206.575 389.604,-1206.446 389.363,-1206.661 z M377.407,-1203.876 C377.154,-1203.769 377.256,-1203.844 377.09,-1203.669 C377.265,-1203.832 377.162,-1203.759 377.407,-1203.876 z" fill="#FFFFFF"/>
      <path d="M435.463,-1238.889 C435.927,-1239.014 436.416,-1238.73 436.542,-1238.266 L440.075,-1225.174 C440.203,-1224.698 439.923,-1224.21 439.458,-1224.084 L424.414,-1220.024 C423.942,-1219.897 423.454,-1220.178 423.326,-1220.654 L419.792,-1233.746 C419.667,-1234.21 419.947,-1234.701 420.418,-1234.828 L435.463,-1238.889 z M433.825,-1238.372 C433.983,-1238.37 434.063,-1238.324 434.194,-1238.245 C434.069,-1238.341 433.977,-1238.353 433.825,-1238.372 z" fill="#FFFFFF"/>
      <path d="M455.526,-1228.421 L444.39,-1225.415 C444.101,-1225.368 444.273,-1225.378 443.875,-1225.434 C444.273,-1225.378 444.101,-1225.368 444.39,-1225.415 L442.437,-1224.888 C441.969,-1224.762 441.483,-1225.043 441.354,-1225.52 L437.821,-1238.612 C437.696,-1239.076 437.973,-1239.566 438.442,-1239.693 L440.394,-1240.22 C440.335,-1240.199 440.335,-1240.199 440.394,-1240.22 L451.531,-1243.225 C452.005,-1243.353 452.491,-1243.069 452.616,-1242.605 L456.15,-1229.513 C456.242,-1229.198 456.117,-1228.962 455.966,-1228.697 C456.166,-1228.949 456.2,-1229.208 456.15,-1229.513 L452.616,-1242.605 C452.491,-1243.069 452.005,-1243.353 451.531,-1243.225 L453.483,-1243.752 C453.956,-1243.88 454.443,-1243.595 454.568,-1243.131 L458.101,-1230.039 C458.23,-1229.563 457.952,-1229.075 457.478,-1228.948 L455.526,-1228.421 L455.694,-1228.485 L455.526,-1228.421 z M439.773,-1239.145 L439.774,-1239.139 L443.307,-1226.047 C443.412,-1225.77 443.335,-1225.925 443.583,-1225.604 C443.335,-1225.925 443.412,-1225.77 443.307,-1226.047 L439.774,-1239.139 L439.773,-1239.145 z M439.756,-1239.391 L439.745,-1239.313 L439.749,-1239.288 L439.756,-1239.391 z" fill="#FFFFFF"/>
      <path d="M458.419,-1245.084 C457.948,-1244.957 457.668,-1244.466 457.793,-1244.002 C457.668,-1244.466 457.948,-1244.957 458.419,-1245.084 L471.513,-1248.618 C471.984,-1248.745 472.466,-1248.46 472.591,-1247.996 L476.125,-1234.904 C476.253,-1234.427 475.98,-1233.941 475.508,-1233.814 L460.463,-1229.753 C459.992,-1229.626 459.503,-1229.907 459.374,-1230.383 L455.841,-1243.475 C455.716,-1243.939 455.996,-1244.43 456.468,-1244.558 L458.419,-1245.084 z M462.092,-1230.271 C462.107,-1230.265 462.098,-1230.267 462.118,-1230.267 L462.092,-1230.271 z M461.326,-1230.91 L461.391,-1230.741 L461.392,-1230.739 C461.392,-1230.74 461.391,-1230.74 461.391,-1230.741 C461.369,-1230.797 461.348,-1230.854 461.326,-1230.91 z" fill="#FFFFFF"/>
      <path d="M419.477,-1218.692 L406.385,-1215.158 C405.92,-1215.033 405.433,-1215.314 405.305,-1215.79 L401.771,-1228.882 C401.646,-1229.346 401.924,-1229.837 402.389,-1229.963 L415.481,-1233.496 C415.795,-1233.587 416.03,-1233.461 416.293,-1233.309 C416.043,-1233.509 415.786,-1233.546 415.481,-1233.496 L417.434,-1234.023 C417.906,-1234.151 418.394,-1233.866 418.52,-1233.402 L422.053,-1220.31 C422.181,-1219.834 421.902,-1219.346 421.429,-1219.218 L419.477,-1218.692 L419.645,-1218.755 L419.477,-1218.692 z M407.257,-1216.317 L407.257,-1216.317 C407.45,-1215.915 407.308,-1216.082 407.692,-1215.825 C407.318,-1216.102 407.457,-1215.933 407.257,-1216.317 z M403.706,-1229.661 L403.695,-1229.584 L403.699,-1229.558 L403.706,-1229.661 z M420.101,-1219.784 L416.567,-1232.876 C416.483,-1233.096 416.483,-1233.096 416.567,-1232.875 L420.1,-1219.784 L420.13,-1219.605 L420.101,-1219.784 z" fill="#FFFFFF"/>
      <path d="M399.407,-1229.158 C399.88,-1229.286 400.369,-1229.002 400.494,-1228.538 L404.028,-1215.446 C404.156,-1214.969 403.876,-1214.481 403.403,-1214.353 L388.358,-1210.293 C387.889,-1210.167 387.403,-1210.448 387.274,-1210.924 L383.741,-1224.016 C383.616,-1224.48 383.894,-1224.971 384.363,-1225.098 L399.407,-1229.158 z M402.105,-1214.74 C402.053,-1214.356 402.116,-1214.498 401.996,-1214.287 C402.116,-1214.498 402.053,-1214.356 402.105,-1214.74 z M398.398,-1228.282 L398.542,-1228.011 L398.478,-1228.176 L398.398,-1228.282 z M398.062,-1228.526 L398.394,-1228.287 C398.255,-1228.47 398.352,-1228.374 398.062,-1228.526 z" fill="#FFFFFF"/>
      <path d="M385.435,-1244.726 C385.905,-1244.853 386.401,-1244.576 386.529,-1244.103 L390.061,-1231.015 C390.188,-1230.542 389.899,-1230.052 389.429,-1229.925 L376.337,-1226.392 L376.333,-1226.391 L374.384,-1225.865 C373.916,-1225.739 373.429,-1226.019 373.302,-1226.492 L369.769,-1239.58 C369.642,-1240.052 369.921,-1240.539 370.39,-1240.665 L385.435,-1244.726 z M388.137,-1230.31 C388.073,-1229.856 388.147,-1230.068 387.917,-1229.674 C388.147,-1230.068 388.073,-1229.856 388.137,-1230.31 z M384.124,-1244.113 L384.298,-1244.014 L384.298,-1244.014 L384.298,-1244.014 L384.124,-1244.113 z" fill="#FFFFFF"/>
      <path d="M421.487,-1254.456 C421.96,-1254.583 422.441,-1254.302 422.569,-1253.829 L426.101,-1240.741 C426.229,-1240.269 425.955,-1239.783 425.482,-1239.655 L412.39,-1236.122 L412.386,-1236.121 L410.437,-1235.595 C409.969,-1235.469 409.481,-1235.749 409.353,-1236.221 L405.821,-1249.309 C405.693,-1249.782 405.974,-1250.269 406.443,-1250.396 L421.487,-1254.456 z" fill="#FFFFFF"/>
      <path d="M403.461,-1249.591 C403.933,-1249.718 404.422,-1249.439 404.549,-1248.966 L408.081,-1235.878 C408.209,-1235.406 407.927,-1234.917 407.456,-1234.79 L394.364,-1231.257 L394.36,-1231.256 L392.411,-1230.73 C391.942,-1230.604 391.451,-1230.883 391.324,-1231.355 L387.792,-1244.443 C387.664,-1244.916 387.948,-1245.404 388.416,-1245.53 L403.461,-1249.591 z" fill="#FFFFFF"/>
      <path d="M457.539,-1264.186 C458.013,-1264.314 458.491,-1264.032 458.619,-1263.559 L462.151,-1250.471 C462.279,-1249.998 462.008,-1249.513 461.534,-1249.385 L459.582,-1248.858 C459.758,-1248.917 459.934,-1249.002 460.023,-1249.172 C459.727,-1248.902 459.88,-1248.997 459.582,-1248.858 L448.444,-1245.852 L448.44,-1245.852 L446.492,-1245.326 C446.018,-1245.198 445.531,-1245.479 445.404,-1245.951 L441.872,-1259.039 C441.744,-1259.512 442.024,-1259.998 442.498,-1260.126 L457.539,-1264.186 z M456.341,-1263.476 C456.485,-1263.385 456.381,-1263.458 456.604,-1263.2 C456.393,-1263.465 456.504,-1263.403 456.341,-1263.476 z M455.897,-1263.672 L455.899,-1263.672 C455.899,-1263.672 455.899,-1263.672 455.898,-1263.672 C455.898,-1263.672 455.897,-1263.672 455.897,-1263.672 z" fill="#FFFFFF"/>
      <path d="M466.463,-1250.715 L466.459,-1250.715 L464.512,-1250.189 C464.04,-1250.062 463.553,-1250.343 463.426,-1250.815 L459.894,-1263.903 C459.766,-1264.376 460.046,-1264.862 460.517,-1264.989 L475.561,-1269.05 C476.036,-1269.178 476.522,-1268.898 476.649,-1268.425 L480.181,-1255.337 C480.309,-1254.864 480.03,-1254.377 479.556,-1254.249 L466.463,-1250.715 z M478.259,-1254.633 C478.198,-1254.18 478.27,-1254.391 478.044,-1253.999 C478.27,-1254.391 478.198,-1254.18 478.259,-1254.633 z M474.422,-1268.337 C473.639,-1268.787 474.422,-1268.338 474.422,-1268.337 C474.509,-1268.262 474.563,-1268.156 474.634,-1268.066 L474.422,-1268.337 z" fill="#FFFFFF"/>
      <path d="M439.513,-1259.321 C439.983,-1259.448 440.472,-1259.169 440.6,-1258.696 L444.132,-1245.608 C444.26,-1245.135 443.978,-1244.647 443.507,-1244.52 L430.425,-1240.989 L430.421,-1240.989 L428.472,-1240.463 C427.998,-1240.334 427.511,-1240.615 427.384,-1241.087 L423.851,-1254.176 C423.724,-1254.648 424.003,-1255.135 424.478,-1255.263 L439.513,-1259.321 z M441.999,-1244.324 C441.909,-1244.178 441.981,-1244.283 441.724,-1244.058 C441.989,-1244.271 441.927,-1244.16 441.999,-1244.324 z M442.195,-1244.772 L442.195,-1244.768 C442.196,-1244.77 442.195,-1244.769 442.195,-1244.772 z M438.505,-1258.444 L438.65,-1258.169 C438.568,-1258.375 438.619,-1258.285 438.505,-1258.444 z M438.11,-1258.732 L438.503,-1258.446 C438.347,-1258.664 438.459,-1258.547 438.11,-1258.732 z" fill="#FFFFFF"/>
      <path d="M493.593,-1273.916 C494.062,-1274.043 494.544,-1273.762 494.672,-1273.289 L498.204,-1260.201 C498.331,-1259.728 498.056,-1259.242 497.588,-1259.115 L495.636,-1258.589 C495.776,-1258.641 495.733,-1258.613 495.778,-1258.643 L495.636,-1258.589 L484.495,-1255.582 L484.492,-1255.582 L482.543,-1255.056 C482.069,-1254.928 481.584,-1255.209 481.456,-1255.681 L477.924,-1268.769 C477.796,-1269.242 478.075,-1269.728 478.549,-1269.856 L480.501,-1270.383 L480.459,-1270.367 L480.501,-1270.383 L493.593,-1273.916 z M491.787,-1273.414 C492.018,-1273.399 491.895,-1273.412 492.155,-1273.371 C491.895,-1273.412 492.018,-1273.399 491.787,-1273.414 z M496.071,-1258.863 L495.864,-1258.701 C495.966,-1258.769 495.894,-1258.719 496.071,-1258.863 z M479.876,-1269.296 L483.408,-1256.208 L483.454,-1256.088 L483.408,-1256.208 L479.876,-1269.296 L479.847,-1269.473 L479.876,-1269.296 z" fill="#FFFFFF"/>
    </g>
    <g>
      <path d="M-170.883,-1164.429 C-172.517,-1163.005 -174.822,-1161.894 -177.943,-1161.194 L-225.816,-1150.46 C-234.647,-1148.16 -239.889,-1153.427 -241.155,-1160.387 L-269.476,-1286.72 C-270.966,-1292.525 -269.967,-1296.497 -267.022,-1299.065 C-265.276,-1300.589 -262.842,-1301.62 -259.839,-1302.245 L-211.971,-1312.974 C-202.009,-1315.245 -198.207,-1310.076 -196.627,-1303.052 L-168.31,-1176.714 C-167.013,-1171.854 -167.428,-1167.443 -170.883,-1164.429" fill="#B7B5B0"/>
      <path d="M-183.027,-1156.761 L-230.895,-1146.031 C-239.725,-1143.73 -244.968,-1148.998 -246.234,-1155.957 L-274.555,-1282.29 C-276.929,-1291.539 -272.984,-1296.135 -264.918,-1297.815 L-217.05,-1308.545 C-207.087,-1310.815 -203.286,-1305.646 -201.71,-1298.619 L-173.388,-1172.284 C-171.484,-1165.127 -173.279,-1158.953 -183.027,-1156.761" fill="#FFFFFE"/>
      <path d="M-179.183,-1176.927 L-242.977,-1162.628 L-269.312,-1280.1 L-205.513,-1294.403 L-179.183,-1176.927" fill="#000105"/>
      <path d="M-203.269,-1162.189 C-202.568,-1159.06 -204.538,-1155.955 -207.662,-1155.258 C-210.789,-1154.556 -213.892,-1156.523 -214.592,-1159.65 C-215.293,-1162.779 -213.328,-1165.88 -210.201,-1166.582 C-207.077,-1167.279 -203.968,-1165.315 -203.269,-1162.189" fill="#F1F0EE"/>
      <path d="M-203.587,-1162.115 C-202.923,-1159.162 -204.78,-1156.232 -207.734,-1155.57 C-210.688,-1154.907 -213.621,-1156.764 -214.279,-1159.72 C-214.943,-1162.672 -213.085,-1165.602 -210.133,-1166.266 C-207.178,-1166.928 -204.245,-1165.071 -203.587,-1162.115" fill="#C5C5BD"/>
    </g>
    <g>
      <path d="M-856.879,-1130.905 C-858.431,-1130.905 -859.973,-1130.949 -861.503,-1131.037 C-831.588,-1132.749 -806.095,-1150.967 -793.992,-1176.724 L-784.744,-1176.724 C-797.467,-1149.649 -824.983,-1130.905 -856.879,-1130.905 M-782.525,-1181.919 L-791.773,-1181.919 C-789.647,-1187.434 -788.116,-1193.247 -787.261,-1199.275 C-782.231,-1200.566 -778.513,-1205.13 -778.513,-1210.564 C-778.513,-1215.996 -782.231,-1220.559 -787.261,-1221.85 C-787.993,-1227.012 -789.221,-1232.019 -790.894,-1236.814 L-781.646,-1236.814 C-778.779,-1228.595 -777.22,-1219.761 -777.22,-1210.564 C-777.22,-1200.468 -779.099,-1190.807 -782.525,-1181.919 M-783.667,-1242.009 L-792.915,-1242.009 C-804.534,-1269.024 -830.67,-1288.324 -861.503,-1290.089 C-859.973,-1290.176 -858.431,-1290.221 -856.879,-1290.221 C-824.051,-1290.221 -795.863,-1270.365 -783.667,-1242.009" fill="#ADA9A3"/>
      <path d="M-781.646,-1236.814 L-790.894,-1236.814 C-791.508,-1238.575 -792.182,-1240.306 -792.915,-1242.009 L-783.667,-1242.009 C-782.934,-1240.306 -782.261,-1238.575 -781.646,-1236.814" fill="#ADA9A3"/>
      <path d="M-784.744,-1176.724 L-793.992,-1176.724 C-793.193,-1178.424 -792.453,-1180.155 -791.773,-1181.919 L-782.526,-1181.919 C-783.206,-1180.155 -783.945,-1178.424 -784.744,-1176.724" fill="#ADA9A3"/>
      <path d="M-866.126,-1290.221 C-910.12,-1290.221 -945.784,-1254.557 -945.784,-1210.564 C-945.784,-1166.569 -910.12,-1130.905 -866.126,-1130.905 C-822.131,-1130.905 -786.467,-1166.569 -786.467,-1210.564 C-786.467,-1254.557 -822.131,-1290.221 -866.126,-1290.221" fill="#FFFFFE"/>
      <path d="M-866.126,-1282.53 C-905.809,-1282.53 -938.094,-1250.247 -938.094,-1210.564 C-938.094,-1170.88 -905.809,-1138.595 -866.126,-1138.595 C-826.443,-1138.595 -794.157,-1170.88 -794.157,-1210.564 C-794.157,-1250.247 -826.443,-1282.53 -866.126,-1282.53 M-866.126,-1135.927 C-907.28,-1135.927 -940.762,-1169.409 -940.762,-1210.564 C-940.762,-1251.717 -907.28,-1285.198 -866.126,-1285.198 C-824.971,-1285.198 -791.489,-1251.717 -791.489,-1210.564 C-791.489,-1169.409 -824.971,-1135.927 -866.126,-1135.927" fill="#D4D6D1"/>
      <path d="M-856.879,-1159.462 C-857.697,-1159.462 -858.511,-1159.481 -859.32,-1159.519 C-837.969,-1162.339 -820.742,-1178.241 -815.96,-1198.91 L-807.109,-1198.91 C-812.383,-1176.299 -832.666,-1159.462 -856.879,-1159.462 M-807.109,-1222.215 L-815.96,-1222.215 C-820.742,-1242.884 -837.965,-1258.786 -859.316,-1261.606 C-858.509,-1261.644 -857.696,-1261.663 -856.879,-1261.663 C-832.666,-1261.663 -812.382,-1244.823 -807.109,-1222.215" fill="#BDBEBA"/>
      <path d="M-790.166,-1222.215 L-815.96,-1222.215 C-821.241,-1245.041 -841.698,-1262.053 -866.127,-1262.053 C-894.563,-1262.053 -917.618,-1239.003 -917.618,-1210.564 C-917.618,-1182.122 -894.563,-1159.073 -866.127,-1159.073 C-841.698,-1159.073 -821.242,-1176.084 -815.961,-1198.91 L-790.166,-1198.91 C-783.731,-1198.91 -778.514,-1204.126 -778.514,-1210.564 C-778.514,-1216.999 -783.731,-1222.215 -790.166,-1222.215" fill="#F696CB"/>
      <path d="M-866.126,-1258.77 C-892.75,-1258.77 -914.335,-1237.188 -914.335,-1210.564 C-914.335,-1183.934 -892.75,-1162.355 -866.126,-1162.355 C-839.503,-1162.355 -817.916,-1183.934 -817.916,-1210.564 C-817.916,-1237.188 -839.503,-1258.77 -866.126,-1258.77" fill="#D4D6D1"/>
      <path d="M-866.43,-1253.092 C-889.916,-1253.092 -908.955,-1234.052 -908.955,-1210.564 C-908.955,-1187.075 -889.916,-1168.036 -866.43,-1168.036 C-842.943,-1168.036 -823.901,-1187.075 -823.901,-1210.564 C-823.901,-1234.052 -842.943,-1253.092 -866.43,-1253.092" fill="#302725"/>
      <path d="M-866.495,-1173.587 C-885.982,-1173.587 -901.779,-1190.06 -901.779,-1210.378 C-901.779,-1230.698 -885.982,-1247.169 -866.495,-1247.169 C-847.008,-1247.169 -831.211,-1230.698 -831.211,-1210.378 C-831.211,-1190.06 -847.008,-1173.587 -866.495,-1173.587" fill="#554D4C"/>
    </g>
    <g>
      <path d="M858.237,-1144.441 L858.237,-1144.441 C827.58,-1149 804.91,-1172.105 808.534,-1204.337 L813.345,-1250.038 C817.381,-1285.948 848.377,-1312.109 882.417,-1307.047 C916.455,-1301.985 938.498,-1267.938 931.912,-1232.407 L923.217,-1187.283 C917.305,-1155.391 888.893,-1139.883 858.237,-1144.441" fill="#9D8DCD"/>
      <path d="M923.217,-1187.283 L931.912,-1232.407 C938.498,-1267.938 916.455,-1301.985 882.417,-1307.047 L858.237,-1144.441 C888.893,-1139.883 917.305,-1155.391 923.217,-1187.283" fill="#8073A7"/>
      <path d="M924.636,-1246.11 C924.33,-1246.267 917.021,-1249.953 907.967,-1251.299 C900.096,-1252.469 893.181,-1251.586 887.414,-1248.673 C878.734,-1244.288 873.627,-1235.663 870.743,-1228.542 C870.055,-1236.194 867.678,-1245.932 860.649,-1252.653 C855.98,-1257.118 849.62,-1259.975 841.75,-1261.146 C832.695,-1262.492 824.631,-1261.093 824.292,-1261.032 L819.614,-1260.201 L818.993,-1255.491 C818.867,-1254.534 816.05,-1231.919 828.992,-1219.545 C833.617,-1215.122 839.903,-1212.279 847.671,-1211.088 C847.17,-1209.999 846.814,-1208.839 846.632,-1207.613 C846.097,-1204.014 847.113,-1200.51 849.284,-1197.506 C838.466,-1193.783 829.589,-1185.074 826.142,-1173.576 L823.988,-1166.394 L897.391,-1155.479 L897.42,-1162.977 C897.468,-1174.981 891.508,-1185.896 882.242,-1192.605 C885.193,-1194.848 887.185,-1197.904 887.72,-1201.503 C887.902,-1202.729 887.899,-1203.943 887.737,-1205.13 C895.515,-1204.009 902.356,-1204.9 908.068,-1207.786 C924.05,-1215.859 927.937,-1238.315 928.094,-1239.268 L928.87,-1243.954 L924.636,-1246.11" fill="#F696CB"/>
      <path d="M897.42,-1162.977 C897.468,-1174.981 891.508,-1185.896 882.242,-1192.605 C885.193,-1194.848 887.185,-1197.904 887.72,-1201.503 C887.902,-1202.729 887.899,-1203.943 887.737,-1205.13 C895.515,-1204.009 902.356,-1204.9 908.069,-1207.786 C924.05,-1215.859 927.937,-1238.315 928.094,-1239.268 L928.87,-1243.954 L924.637,-1246.11 C924.33,-1246.267 917.021,-1249.953 907.967,-1251.299 C900.096,-1252.469 893.182,-1251.586 887.414,-1248.673 C878.734,-1244.288 873.627,-1235.663 870.743,-1228.542 L860.69,-1160.937 L897.391,-1155.479 L897.42,-1162.977" fill="#F696CB"/>
      <path d="M880.507,-1294.204 L884.461,-1281.897 L896.841,-1278.177 L886.358,-1270.613 L886.645,-1257.69 L876.212,-1265.322 L864.009,-1261.055 L868.045,-1273.336 L860.216,-1283.623 L873.143,-1283.58 L880.507,-1294.204" fill="#FFFFFE"/>
      <path d="M864.213,-1217.556 C864.213,-1217.556 844.188,-1213.995 833.478,-1224.236 C822.768,-1234.477 825.428,-1254.642 825.428,-1254.642 C825.428,-1254.642 845.454,-1258.202 856.164,-1247.961 C866.874,-1237.72 864.213,-1217.556 864.213,-1217.556" fill="#FFFFFE"/>
      <path d="M873.793,-1216.132 C873.793,-1216.132 891.916,-1206.898 905.142,-1213.58 C918.369,-1220.261 921.69,-1240.327 921.69,-1240.327 C921.69,-1240.327 903.567,-1249.561 890.341,-1242.879 C877.115,-1236.197 873.793,-1216.132 873.793,-1216.132" fill="#FFFFFE"/>
      <path d="M890.929,-1163.003 C890.987,-1177.631 880.305,-1190.466 865.411,-1192.681 C850.516,-1194.896 836.56,-1185.725 832.359,-1171.712 L890.929,-1163.003" fill="#FFFFFE"/>
      <path d="M881.301,-1202.458 C880.536,-1197.317 873.593,-1194.089 865.793,-1195.249 C857.992,-1196.409 852.287,-1201.518 853.051,-1206.659 C853.816,-1211.8 860.76,-1215.027 868.561,-1213.867 C876.361,-1212.707 882.065,-1207.599 881.301,-1202.458" fill="#FFFFFE"/>
      <path d="M886.644,-1257.69 L886.357,-1270.613 L896.84,-1278.177 L884.46,-1281.897 L880.507,-1294.204 L876.212,-1265.322 L886.644,-1257.69" fill="#E5E5E0"/>
      <path d="M890.341,-1242.879 C877.115,-1236.197 873.793,-1216.132 873.793,-1216.132 C873.793,-1216.132 891.916,-1206.898 905.142,-1213.58 C918.369,-1220.261 921.69,-1240.327 921.69,-1240.327 C921.69,-1240.327 903.567,-1249.561 890.341,-1242.879" fill="#E5E5E0"/>
      <path d="M865.411,-1192.681 L861.645,-1167.357 L890.929,-1163.002 C890.988,-1177.631 880.305,-1190.466 865.411,-1192.681" fill="#E5E5E0"/>
      <path d="M881.301,-1202.458 C882.065,-1207.599 876.361,-1212.707 868.561,-1213.867 L865.792,-1195.249 C873.593,-1194.089 880.536,-1197.317 881.301,-1202.458" fill="#E5E5E0"/>
    </g>
    <g>
      <path d="M-684.36,-1264.735 Q-683.463,-1258.307 -687.664,-1253.192 Q-691.865,-1248.077 -698.482,-1247.154 Q-705.288,-1246.204 -710.634,-1249.988 Q-715.98,-1253.771 -716.877,-1260.199 Q-717.747,-1266.438 -713.654,-1271.634 Q-709.56,-1276.831 -702.754,-1277.78 Q-696.138,-1278.703 -690.684,-1274.838 Q-685.23,-1270.974 -684.36,-1264.735 z M-675.534,-1206.991 Q-675.006,-1203.21 -675.367,-1200.268 Q-677.979,-1185.835 -686.205,-1179.869 Q-690.399,-1176.778 -694.559,-1176.198 Q-700.797,-1175.328 -701.351,-1179.298 Q-701.747,-1182.134 -696.849,-1185.708 Q-696.145,-1186.191 -695.055,-1189.427 Q-706.332,-1191.516 -707.861,-1202.481 Q-708.732,-1208.72 -704.625,-1213.822 Q-700.519,-1218.924 -693.713,-1219.873 Q-687.096,-1220.796 -681.75,-1217.013 Q-676.404,-1213.229 -675.534,-1206.991 z" fill="#D28AB3"/>
      <path d="M-686.917,-1263.762 Q-686.02,-1257.334 -690.221,-1252.219 Q-694.422,-1247.104 -701.039,-1246.181 Q-707.845,-1245.232 -713.191,-1249.015 Q-718.537,-1252.798 -719.433,-1259.226 Q-720.304,-1265.465 -716.21,-1270.661 Q-712.117,-1275.858 -705.311,-1276.807 Q-698.694,-1277.73 -693.241,-1273.866 Q-687.787,-1270.001 -686.917,-1263.762 z M-678.091,-1206.018 Q-677.563,-1202.237 -677.924,-1199.296 Q-680.536,-1184.862 -688.762,-1178.896 Q-692.956,-1175.806 -697.115,-1175.225 Q-703.354,-1174.355 -703.908,-1178.325 Q-704.304,-1181.161 -699.406,-1184.735 Q-698.702,-1185.219 -697.612,-1188.455 Q-708.889,-1190.543 -710.418,-1201.508 Q-711.289,-1207.747 -707.182,-1212.849 Q-703.076,-1217.951 -696.27,-1218.9 Q-689.653,-1219.823 -684.307,-1216.04 Q-678.961,-1212.257 -678.091,-1206.018 z" fill="#FFFFFF"/>
    </g>
    <g>
      <g>
        <path d="M153.72,-1181.085 C151.943,-1181.227 150.234,-1182.075 149.061,-1183.559 L127.368,-1211.073 C125.307,-1213.681 125.621,-1217.395 128.091,-1219.643 L154.107,-1243.323 C156.749,-1245.733 160.903,-1245.592 163.37,-1243.011 C165.844,-1240.43 165.7,-1236.381 163.049,-1233.972 L141.395,-1214.258 L159.451,-1191.358 C161.662,-1188.558 161.125,-1184.541 158.251,-1182.389 C156.907,-1181.38 155.288,-1180.959 153.72,-1181.085" fill="#8F83B4"/>
        <path d="M215.738,-1176.102 C214.17,-1176.228 212.639,-1176.903 211.482,-1178.113 C209.012,-1180.694 209.156,-1184.742 211.807,-1187.151 L233.461,-1206.861 L215.405,-1229.766 C213.194,-1232.566 213.731,-1236.583 216.601,-1238.735 C219.471,-1240.883 223.584,-1240.36 225.791,-1237.564 L247.489,-1210.055 C249.549,-1207.438 249.235,-1203.725 246.765,-1201.476 L220.745,-1177.801 C219.339,-1176.523 217.511,-1175.96 215.738,-1176.102" fill="#8F83B4"/>
        <path d="M166.064,-1156.667 C165.38,-1156.721 164.692,-1156.884 164.023,-1157.164 C160.697,-1158.548 159.15,-1162.308 160.574,-1165.557 L202.223,-1260.595 C203.642,-1263.843 207.498,-1265.36 210.831,-1263.959 C214.162,-1262.575 215.704,-1258.814 214.281,-1255.566 L172.631,-1160.528 C171.49,-1157.929 168.8,-1156.447 166.064,-1156.667" fill="#8F83B4"/>
      </g>
      <g>
        <path d="M146.446,-1181.307 C144.669,-1181.461 142.966,-1182.32 141.804,-1183.812 L120.301,-1211.467 C118.259,-1214.089 118.598,-1217.801 121.084,-1220.033 L147.263,-1243.542 C149.922,-1245.934 154.075,-1245.766 156.523,-1243.169 C158.98,-1240.571 158.808,-1236.524 156.14,-1234.132 L134.35,-1214.56 L152.248,-1191.542 C154.439,-1188.728 153.875,-1184.714 150.986,-1182.582 C149.635,-1181.582 148.013,-1181.171 146.446,-1181.307" fill="#FFFFFF"/>
        <path d="M208.428,-1175.917 C206.861,-1176.053 205.335,-1176.738 204.186,-1177.955 C201.734,-1180.553 201.906,-1184.6 204.574,-1186.992 L226.364,-1206.559 L208.466,-1229.581 C206.275,-1232.396 206.839,-1236.409 209.724,-1238.542 C212.609,-1240.671 216.718,-1240.121 218.906,-1237.312 L240.413,-1209.66 C242.454,-1207.03 242.115,-1203.318 239.629,-1201.086 L213.447,-1177.582 C212.032,-1176.314 210.2,-1175.763 208.428,-1175.917" fill="#FFFFFF"/>
        <path d="M158.621,-1156.808 C157.938,-1156.868 157.251,-1157.034 156.583,-1157.319 C153.267,-1158.725 151.747,-1162.495 153.192,-1165.734 L195.498,-1260.496 C196.939,-1263.735 200.806,-1265.227 204.129,-1263.803 C207.45,-1262.397 208.966,-1258.627 207.52,-1255.389 L165.214,-1160.627 C164.056,-1158.035 161.355,-1156.57 158.621,-1156.808" fill="#FFFFFF"/>
      </g>
    </g>
    <g>
      <path d="M39.771,-1197.945 L28.389,-1202.194 C26.888,-1202.755 26.125,-1204.426 26.686,-1205.928 L31.998,-1220.158 C32.559,-1221.66 34.231,-1222.423 35.732,-1221.862 L47.114,-1217.613 C48.615,-1217.052 49.378,-1215.381 48.817,-1213.879 L43.505,-1199.649 C42.944,-1198.147 41.272,-1197.384 39.771,-1197.945" fill="#F696CB"/>
      <path d="M44.975,-1213.97 L38.204,-1216.498 C37.657,-1216.702 37.379,-1217.311 37.584,-1217.858 C37.788,-1218.404 38.396,-1218.682 38.944,-1218.478 L45.715,-1215.95 C46.261,-1215.746 46.539,-1215.137 46.335,-1214.59 C46.131,-1214.043 45.522,-1213.766 44.975,-1213.97" fill="#85552A"/>
      <path d="M43.682,-1210.506 L36.911,-1213.034 C36.364,-1213.239 36.086,-1213.848 36.291,-1214.395 C36.495,-1214.941 37.104,-1215.219 37.651,-1215.015 L44.422,-1212.487 C44.968,-1212.283 45.246,-1211.674 45.042,-1211.127 C44.838,-1210.58 44.229,-1210.302 43.682,-1210.506" fill="#85552A"/>
      <path d="M42.389,-1207.043 L35.618,-1209.571 C35.071,-1209.776 34.794,-1210.385 34.998,-1210.931 C35.202,-1211.478 35.811,-1211.756 36.358,-1211.552 L43.129,-1209.024 C43.675,-1208.82 43.953,-1208.211 43.749,-1207.664 C43.545,-1207.117 42.936,-1206.839 42.389,-1207.043" fill="#85552A"/>
      <path d="M41.096,-1203.581 L34.325,-1206.108 C33.778,-1206.313 33.501,-1206.922 33.705,-1207.468 C33.909,-1208.015 34.518,-1208.293 35.065,-1208.089 L41.836,-1205.561 C42.382,-1205.357 42.66,-1204.748 42.456,-1204.201 C42.252,-1203.654 41.643,-1203.376 41.096,-1203.581" fill="#85552A"/>
      <path d="M39.803,-1200.118 L33.032,-1202.646 C32.485,-1202.85 32.208,-1203.459 32.412,-1204.005 C32.616,-1204.552 33.225,-1204.83 33.772,-1204.626 L40.543,-1202.098 C41.089,-1201.894 41.368,-1201.285 41.163,-1200.738 C40.959,-1200.191 40.35,-1199.913 39.803,-1200.118" fill="#85552A"/>
      <path d="M-18.739,-1134.056 L-41.153,-1142.424 C-48.768,-1145.267 -52.636,-1153.745 -49.793,-1161.359 L3.439,-1303.943 C6.282,-1311.557 14.76,-1315.425 22.375,-1312.582 L44.789,-1304.214 C52.404,-1301.371 56.272,-1292.894 53.429,-1285.279 L0.196,-1142.696 C-2.647,-1135.081 -11.124,-1131.213 -18.739,-1134.056" fill="#8073A7"/>
      <path d="M10.445,-1172.22 L-38.186,-1190.376 C-44.602,-1192.772 -47.862,-1199.915 -45.466,-1206.332 L-22.765,-1267.137 C-20.369,-1273.554 -13.226,-1276.814 -6.809,-1274.418 L41.822,-1256.262 C48.238,-1253.866 51.498,-1246.722 49.102,-1240.306 L26.401,-1179.501 C24.005,-1173.084 16.861,-1169.824 10.445,-1172.22" fill="#F696CB"/>
      <path d="M9.784,-1176.136 L-35.12,-1192.901 C-41.045,-1195.113 -44.055,-1201.709 -41.843,-1207.634 L-20.881,-1263.779 C-18.669,-1269.704 -12.073,-1272.714 -6.148,-1270.502 L38.756,-1253.737 C44.681,-1251.525 47.691,-1244.929 45.479,-1239.004 L24.517,-1182.859 C22.305,-1176.934 15.709,-1173.924 9.784,-1176.136" fill="#1E1912"/>
      <path d="M32.549,-1211.876 L9.792,-1261.75 L37.838,-1251.279 C42.398,-1249.576 44.722,-1244.482 43.02,-1239.922 L32.549,-1211.876 z" fill="url(#Gradient_1)"/>
      <path d="M-16.972,-1218.603 L13.249,-1207.32 L19.734,-1224.69 L-10.487,-1235.973 z M13.462,-1205.32 L-18.444,-1217.232 C-18.909,-1217.406 -19.145,-1217.924 -18.971,-1218.389 L-11.857,-1237.444 C-11.684,-1237.909 -11.166,-1238.146 -10.7,-1237.972 L21.206,-1226.06 C21.671,-1225.887 21.907,-1225.369 21.734,-1224.904 L14.619,-1205.848 C14.446,-1205.383 13.927,-1205.147 13.462,-1205.32" fill="#FFFFFE"/>
      <path d="M-8.276,-1235.148 L1.747,-1222.627 L17.523,-1225.516 L-8.276,-1235.148 z M1.066,-1220.804 C0.917,-1220.86 0.783,-1220.955 0.679,-1221.084 L-11.717,-1236.568 C-11.97,-1236.884 -11.981,-1237.329 -11.743,-1237.657 C-11.506,-1237.985 -11.079,-1238.114 -10.7,-1237.972 L21.206,-1226.06 C21.585,-1225.919 21.822,-1225.542 21.787,-1225.139 C21.751,-1224.736 21.451,-1224.406 21.053,-1224.333 L1.543,-1220.762 C1.38,-1220.732 1.216,-1220.748 1.066,-1220.804" fill="#FFFFFE"/>
      <path d="M-18.444,-1217.233 C-18.645,-1217.308 -18.82,-1217.454 -18.927,-1217.659 C-19.156,-1218.1 -18.985,-1218.642 -18.545,-1218.872 L-2.76,-1227.097 C-2.319,-1227.326 -1.776,-1227.155 -1.547,-1226.715 C-1.317,-1226.275 -1.489,-1225.731 -1.929,-1225.502 L-17.714,-1217.277 C-17.949,-1217.155 -18.214,-1217.147 -18.444,-1217.233" fill="#FFFFFE"/>
      <path d="M13.41,-1205.34 C13.18,-1205.426 12.985,-1205.606 12.888,-1205.852 L6.355,-1222.409 C6.173,-1222.871 6.399,-1223.394 6.861,-1223.576 C7.323,-1223.758 7.846,-1223.532 8.028,-1223.069 L14.561,-1206.512 C14.743,-1206.05 14.516,-1205.528 14.054,-1205.346 C13.839,-1205.261 13.611,-1205.265 13.41,-1205.34" fill="#FFFFFE"/>
    </g>
    <g>
      <path d="M-499.724,-1274.735 L-560.334,-1260.561 C-586.966,-1254.333 -603.506,-1227.695 -597.278,-1201.063 C-591.05,-1174.431 -564.412,-1157.89 -537.78,-1164.118 C-519.628,-1168.363 -506.172,-1182.093 -501.411,-1198.837 L-482.982,-1203.147 L-499.724,-1274.735" fill="#F2F1F0"/>
      <path d="M-540.148,-1174.242 C-561.155,-1169.33 -582.242,-1182.423 -587.154,-1203.43 C-592.067,-1224.437 -578.973,-1245.524 -557.966,-1250.436 C-536.959,-1255.349 -515.872,-1242.256 -510.96,-1221.249 C-506.047,-1200.242 -519.141,-1179.155 -540.148,-1174.242" fill="#E4E4E3"/>
      <path d="M-550.073,-1244.08 L-562.222,-1241.239 C-563.405,-1240.963 -564.146,-1239.804 -563.877,-1238.652 L-560.829,-1225.618 C-560.697,-1225.054 -560.336,-1224.569 -559.829,-1224.273 L-552.411,-1219.951 C-551.396,-1219.36 -550.073,-1219.669 -549.426,-1220.65 L-544.694,-1227.813 C-544.37,-1228.303 -544.262,-1228.898 -544.394,-1229.462 L-547.442,-1242.495 C-547.712,-1243.647 -548.889,-1244.357 -550.073,-1244.08" fill="#636463"/>
      <path d="M-548.56,-1182.817 L-536.41,-1185.658 C-535.227,-1185.935 -534.486,-1187.093 -534.756,-1188.246 L-537.804,-1201.278 C-537.935,-1201.843 -538.296,-1202.328 -538.804,-1202.623 L-546.221,-1206.946 C-547.236,-1207.537 -548.559,-1207.228 -549.207,-1206.248 L-553.938,-1199.084 C-554.262,-1198.594 -554.37,-1197.999 -554.238,-1197.435 L-551.191,-1184.402 C-550.921,-1183.25 -549.743,-1182.54 -548.56,-1182.817" fill="#636463"/>
      <path d="M-518.684,-1214.205 L-521.526,-1226.354 C-521.802,-1227.538 -522.961,-1228.279 -524.113,-1228.009 L-537.146,-1224.961 C-537.71,-1224.829 -538.196,-1224.469 -538.491,-1223.961 L-542.813,-1216.544 C-543.405,-1215.528 -543.096,-1214.206 -542.115,-1213.558 L-534.952,-1208.827 C-534.462,-1208.503 -533.867,-1208.394 -533.303,-1208.526 L-520.27,-1211.574 C-519.118,-1211.844 -518.408,-1213.022 -518.684,-1214.205" fill="#636463"/>
      <path d="M-579.948,-1212.692 L-577.107,-1200.543 C-576.83,-1199.36 -575.671,-1198.618 -574.519,-1198.888 L-561.486,-1201.936 C-560.922,-1202.068 -560.437,-1202.429 -560.141,-1202.936 L-555.819,-1210.354 C-555.228,-1211.369 -555.537,-1212.691 -556.517,-1213.339 L-563.68,-1218.07 C-564.171,-1218.394 -564.765,-1218.502 -565.329,-1218.37 L-578.362,-1215.323 C-579.515,-1215.053 -580.224,-1213.875 -579.948,-1212.692" fill="#636463"/>
      <path d="M-499.724,-1274.735 L-439.114,-1288.909 C-412.482,-1295.137 -385.842,-1278.597 -379.614,-1251.965 C-373.385,-1225.333 -389.928,-1198.694 -416.56,-1192.466 C-434.712,-1188.221 -452.861,-1194.56 -464.554,-1207.456 L-482.982,-1203.147 L-499.724,-1274.735" fill="#E8E9E4"/>
      <path d="M-418.928,-1202.59 C-397.921,-1207.503 -384.827,-1228.59 -389.74,-1249.597 C-394.652,-1270.604 -415.739,-1283.697 -436.746,-1278.785 C-457.753,-1273.872 -470.847,-1252.785 -465.934,-1231.778 C-461.022,-1210.771 -439.935,-1197.678 -418.928,-1202.59" fill="#DADBD7"/>
      <path d="M-440.963,-1244.293 C-445.516,-1248.001 -452.213,-1247.315 -455.92,-1242.761 C-459.628,-1238.207 -458.942,-1231.51 -454.388,-1227.803 C-449.835,-1224.096 -443.138,-1224.781 -439.431,-1229.335 C-435.723,-1233.889 -436.409,-1240.586 -440.963,-1244.293" fill="#B8ABDF"/>
      <path d="M-424.499,-1252.96 C-420.791,-1257.513 -421.477,-1264.21 -426.031,-1267.918 C-430.584,-1271.625 -437.282,-1270.939 -440.989,-1266.386 C-444.696,-1261.832 -444.01,-1255.135 -439.457,-1251.428 C-434.903,-1247.72 -428.207,-1248.406 -424.499,-1252.96" fill="#B8ABDF"/>
      <path d="M-432.061,-1228.208 C-435.768,-1223.655 -435.082,-1216.958 -430.529,-1213.25 C-425.975,-1209.543 -419.278,-1210.229 -415.571,-1214.782 C-411.863,-1219.336 -412.549,-1226.033 -417.103,-1229.74 C-421.656,-1233.448 -428.353,-1232.762 -432.061,-1228.208" fill="#551367"/>
      <path d="M-401.285,-1253.572 C-405.839,-1257.279 -412.536,-1256.593 -416.244,-1252.04 C-419.951,-1247.486 -419.265,-1240.789 -414.711,-1237.082 C-410.158,-1233.374 -403.461,-1234.06 -399.753,-1238.614 C-396.046,-1243.167 -396.732,-1249.865 -401.285,-1253.572" fill="#551367"/>
      <path d="M-494.753,-1229.246 C-494.14,-1226.626 -495.768,-1224.004 -498.389,-1223.391 C-501.01,-1222.778 -503.631,-1224.406 -504.244,-1227.027 C-504.857,-1229.648 -503.229,-1232.269 -500.609,-1232.882 C-497.988,-1233.495 -495.366,-1231.867 -494.753,-1229.246" fill="#636463"/>
      <path d="M-484.007,-1231.76 C-483.394,-1229.139 -480.772,-1227.511 -478.151,-1228.124 C-475.53,-1228.737 -473.903,-1231.358 -474.515,-1233.979 C-475.128,-1236.6 -477.75,-1238.228 -480.371,-1237.615 C-482.992,-1237.002 -484.62,-1234.38 -484.007,-1231.76" fill="#4D4E4C"/>
      <path d="M-504.298,-1246.854 C-506.483,-1246.343 -507.839,-1244.159 -507.328,-1241.974 C-506.817,-1239.791 -504.633,-1238.434 -502.449,-1238.945 L-491.929,-1241.405 L-493.779,-1249.314 L-504.298,-1246.854" fill="#636463"/>
      <path d="M-483.26,-1251.774 L-493.779,-1249.314 L-491.929,-1241.405 L-481.41,-1243.865 C-479.226,-1244.375 -477.87,-1246.56 -478.38,-1248.744 C-478.891,-1250.928 -481.075,-1252.285 -483.26,-1251.774" fill="#4D4E4C"/>
    </g>
    <g>
      <path d="M672.335,-1292.753 C672.116,-1292.018 671.918,-1291.289 671.74,-1290.572 C669.062,-1279.639 671.395,-1271.371 671.395,-1271.371 C676.689,-1251.602 681.848,-1239.1 681.848,-1239.1 L704.899,-1246.568 C698.276,-1267.014 692.662,-1280.918 692.662,-1280.918 C692.136,-1282.277 691.4,-1283.519 690.522,-1284.65 C686.368,-1290.068 679.003,-1293.052 675.303,-1294.278 C674.814,-1294.443 674.308,-1294.435 673.851,-1294.288 C673.15,-1294.064 672.566,-1293.513 672.335,-1292.753" fill="#E461A9"/>
      <path d="M673.797,-1294.459 C674.304,-1294.621 674.849,-1294.621 675.359,-1294.448 C677.842,-1293.626 680.401,-1292.549 682.83,-1291.193 C686.077,-1289.38 688.76,-1287.243 690.664,-1284.76 C691.587,-1283.571 692.314,-1282.312 692.828,-1280.985 C692.838,-1280.959 692.859,-1280.908 692.889,-1280.833 C692.939,-1280.708 692.999,-1280.559 693.067,-1280.386 C693.262,-1279.893 693.491,-1279.311 693.75,-1278.643 C694.491,-1276.737 695.331,-1274.527 696.254,-1272.041 C699.101,-1264.371 702.092,-1255.814 705.07,-1246.623 L705.125,-1246.453 L704.955,-1246.398 L681.903,-1238.929 L681.746,-1238.878 L681.683,-1239.031 C681.678,-1239.042 681.678,-1239.042 681.658,-1239.093 C681.637,-1239.143 681.612,-1239.203 681.584,-1239.273 C681.504,-1239.473 681.409,-1239.71 681.301,-1239.985 C680.993,-1240.769 680.638,-1241.693 680.243,-1242.752 C677.342,-1250.528 674.205,-1260.188 671.223,-1271.322 C671.218,-1271.339 671.209,-1271.373 671.197,-1271.421 C671.176,-1271.501 671.152,-1271.597 671.126,-1271.706 C671.052,-1272.018 670.975,-1272.384 670.897,-1272.801 C670.674,-1273.989 670.494,-1275.349 670.385,-1276.858 C670.073,-1281.168 670.39,-1285.812 671.566,-1290.616 C671.751,-1291.356 671.95,-1292.086 672.163,-1292.804 L672.335,-1292.753 L672.164,-1292.805 C672.405,-1293.601 673.019,-1294.21 673.797,-1294.459 z M673.906,-1294.118 C673.211,-1293.894 672.755,-1293.369 672.506,-1292.701 C672.096,-1291.261 672.294,-1291.985 671.914,-1290.53 C670.747,-1285.765 670.433,-1281.159 670.742,-1276.884 C670.85,-1275.389 671.029,-1274.042 671.249,-1272.866 C671.325,-1272.455 671.402,-1272.095 671.474,-1271.789 C671.5,-1271.682 671.523,-1271.589 671.543,-1271.511 C671.555,-1271.465 671.563,-1271.434 671.568,-1271.417 C674.547,-1260.292 677.681,-1250.643 680.578,-1242.878 C680.973,-1241.82 681.326,-1240.898 681.634,-1240.116 C681.742,-1239.842 681.836,-1239.606 681.916,-1239.407 L681.951,-1239.321 L704.674,-1246.683 C701.943,-1255.158 698.995,-1263.561 695.918,-1271.917 C694.996,-1274.401 694.157,-1276.609 693.417,-1278.514 C693.158,-1279.18 692.929,-1279.762 692.734,-1280.254 C692.666,-1280.426 692.607,-1280.575 692.557,-1280.7 C692.527,-1280.775 692.506,-1280.825 692.495,-1280.853 C691.994,-1282.149 691.283,-1283.378 690.38,-1284.542 C688.509,-1286.982 685.863,-1289.089 682.655,-1290.88 C680.248,-1292.224 677.709,-1293.293 675.246,-1294.109 C674.807,-1294.257 674.341,-1294.257 673.906,-1294.118 z" fill="#B6BBC3"/>
      <path d="M671.818,-1291.579 L672.191,-1291.561 C672.295,-1290.933 672.475,-1290.297 672.673,-1289.689 C674.587,-1283.778 680.263,-1280.331 685.336,-1281.974 C687.145,-1282.56 688.682,-1283.731 689.797,-1285.333 L689.977,-1285.593 L690.176,-1285.347 C690.205,-1285.311 690.205,-1285.311 690.234,-1285.275 C690.298,-1285.196 690.328,-1285.159 690.363,-1285.116 C690.471,-1284.981 690.555,-1284.876 690.634,-1284.773 L690.38,-1284.542 C690.213,-1284.755 690.265,-1284.665 690.085,-1284.89 C688.972,-1283.302 687.27,-1282.183 685.483,-1281.52 C680.145,-1279.792 674.212,-1283.394 672.221,-1289.543 C672.016,-1290.173 671.926,-1290.927 671.818,-1291.579 z" fill="#B6BBC3"/>
      <path d="M691.57,-1209.925 L712.856,-1216.802 C715.116,-1217.533 716.473,-1219.591 715.885,-1221.4 L706.906,-1249.017 C706.319,-1250.821 704.196,-1251.143 701.94,-1250.422 L701.923,-1250.417 L680.462,-1244.092 C678.201,-1243.362 676.757,-1241.577 677.345,-1239.771 L686.456,-1211.739 C687.043,-1209.932 689.31,-1209.194 691.57,-1209.925" fill="#000000"/>
      <path d="M680.562,-1244.187 L702.019,-1250.511 L702.035,-1250.516 C704.547,-1251.319 706.636,-1250.81 707.226,-1248.997 L716.206,-1221.379 C716.827,-1219.467 715.409,-1217.315 713.061,-1216.555 L691.775,-1209.678 L691.775,-1209.678 C689.396,-1208.909 687.049,-1209.72 686.436,-1211.607 L677.325,-1239.639 C676.718,-1241.503 678.139,-1243.405 680.562,-1244.187 z M680.667,-1243.845 C678.417,-1243.118 677.13,-1241.395 677.666,-1239.75 L686.776,-1211.718 C687.321,-1210.042 689.456,-1209.304 691.665,-1210.019 L691.665,-1210.019 L712.951,-1216.896 C715.125,-1217.599 716.42,-1219.563 715.866,-1221.268 L706.886,-1248.886 C706.371,-1250.468 704.492,-1250.925 702.144,-1250.175 L702.125,-1250.169 L680.667,-1243.845 z" fill="#B6BBC3"/>
      <path d="M705.145,-1152.395 L736.12,-1162.404 C737.553,-1162.868 738.416,-1164.174 738.041,-1165.322 L721.205,-1217.122 C720.372,-1219.69 717.086,-1220.97 713.874,-1219.943 L713.85,-1219.935 L689.347,-1211.979 C686.129,-1210.94 684.202,-1207.993 685.04,-1205.418 L701.868,-1153.643 C702.241,-1152.494 703.709,-1151.932 705.145,-1152.395" fill="#000000"/>
      <path d="M689.172,-1212.05 L713.709,-1219.898 L713.733,-1219.906 C717.05,-1220.966 720.392,-1219.735 721.254,-1217.078 L738.056,-1165.387 C738.464,-1164.135 737.541,-1162.735 736.02,-1162.242 L705.044,-1152.234 L705.044,-1152.234 C703.517,-1151.741 701.956,-1152.321 701.551,-1153.569 L684.731,-1205.318 C683.862,-1207.989 685.857,-1210.98 689.172,-1212.05 z M689.281,-1211.709 C686.14,-1210.695 684.27,-1207.892 685.071,-1205.428 L701.891,-1153.679 C702.229,-1152.639 703.58,-1152.138 704.934,-1152.574 L704.934,-1152.574 L735.909,-1162.583 C737.257,-1163.02 738.056,-1164.232 737.715,-1165.276 L720.914,-1216.967 C720.119,-1219.417 716.987,-1220.57 713.842,-1219.565 L713.818,-1219.557 L689.281,-1211.709 z" fill="#B6BBC3"/>
      <path d="M722.396,-1212.633 L722.47,-1212.406 L686.235,-1200.544 L686.161,-1200.771 L722.396,-1212.633 z" fill="#B6BBC3"/>
    </g>
  </g>
</svg>
