<?xml version="1.0" encoding="UTF-8"?>
<!DOCTYPE svg PUBLIC "-//W3C//DTD SVG 1.1//EN" "http://www.w3.org/Graphics/SVG/1.1/DTD/svg11.dtd">
<svg version="1.1" xmlns="http://www.w3.org/2000/svg" xmlns:xlink="http://www.w3.org/1999/xlink" x="0" y="0" width="2000" height="585.938" viewBox="0, 0, 2000, 585.938">
  <defs>
    <linearGradient id="Gradient_1" gradientUnits="userSpaceOnUse" x1="-705.288" y1="-1289.858" x2="708.924" y2="-875.538">
      <stop offset="0" stop-color="#8073A7"/>
      <stop offset="1" stop-color="#F696CB"/>
    </linearGradient>
    <linearGradient id="Gradient_2" gradientUnits="userSpaceOnUse" x1="-298.847" y1="-1193.647" x2="-328.485" y2="-1167.883" gradientTransform="matrix(0.937, 0.35, -0.35, 0.937, 0, 0)">
      <stop offset="0" stop-color="#3C3527"/>
      <stop offset="1" stop-color="#1E1912"/>
    </linearGradient>
  </defs>
  <g id="Layer_1" opacity="0.763" transform="translate(998.182, 1375.667)">
    <path d="M-998.182,-1375.667 L1001.818,-1375.667 L1001.818,-789.729 L-998.182,-789.729 L-998.182,-1375.667 z" fill="url(#Gradient_1)"/>
    <g>
      <path d="M532.16,-958.201 L526.9,-956.781 C529.977,-957.612 531.82,-960.815 530.991,-963.886 L488.376,-1121.787 L493.631,-1123.205 L536.246,-965.304 C537.075,-962.233 535.231,-959.03 532.16,-958.201" fill="#B7B5B0"/>
      <path d="M107.602,-884.448 C107.41,-885.158 107.835,-885.918 108.559,-886.114 L131.615,-892.336 C132.338,-892.531 133.089,-892.089 133.281,-891.378 L139.637,-867.826 C139.833,-867.101 139.402,-866.355 138.68,-866.16 L115.624,-859.938 C114.899,-859.742 114.154,-860.17 113.958,-860.895 L107.602,-884.448 M100.147,-912.07 C99.953,-912.789 100.379,-913.543 101.104,-913.738 L131.139,-921.844 C131.861,-922.039 132.611,-921.603 132.805,-920.884 L138.219,-900.824 C138.413,-900.106 137.984,-899.351 137.262,-899.156 L107.227,-891.05 C106.503,-890.855 105.754,-891.292 105.561,-892.01 L100.147,-912.07 M92.689,-939.703 C92.497,-940.414 92.926,-941.16 93.65,-941.356 L137.198,-953.109 C137.927,-953.306 138.669,-952.875 138.861,-952.164 L144.278,-932.093 C144.473,-931.37 144.047,-930.63 143.318,-930.433 L99.77,-918.68 C99.046,-918.485 98.301,-918.909 98.106,-919.632 L92.689,-939.703 M85.233,-967.327 C85.042,-968.038 85.469,-968.791 86.193,-968.986 L123.204,-978.975 C123.929,-979.171 124.676,-978.735 124.868,-978.024 L130.283,-957.961 C130.48,-957.231 130.052,-956.483 129.327,-956.287 L92.316,-946.298 C91.592,-946.103 90.845,-946.534 90.648,-947.264 L85.233,-967.327 M77.78,-994.945 C77.584,-995.67 78.013,-996.415 78.737,-996.611 L101.794,-1002.833 C102.516,-1003.028 103.264,-1002.6 103.459,-1001.876 L108.872,-981.818 C109.068,-981.094 108.638,-980.346 107.915,-980.151 L84.859,-973.929 C84.135,-973.733 83.388,-974.163 83.193,-974.888 L77.78,-994.945 M105.41,-1002.402 C105.214,-1003.127 105.645,-1003.873 106.367,-1004.068 L129.411,-1010.287 C130.142,-1010.484 130.883,-1010.055 131.079,-1009.33 L136.492,-989.272 C136.687,-988.548 136.263,-987.802 135.532,-987.605 L112.489,-981.386 C111.766,-981.191 111.018,-981.62 110.823,-982.345 L105.41,-1002.402 M133.039,-1009.859 C132.844,-1010.584 133.27,-1011.328 133.986,-1011.522 L157.044,-1017.745 C157.766,-1017.94 158.512,-1017.511 158.708,-1016.786 L164.121,-996.729 C164.317,-996.005 163.888,-995.258 163.166,-995.063 L140.108,-988.84 C139.392,-988.647 138.648,-989.077 138.452,-989.801 L133.039,-1009.859 M160.658,-1017.313 C160.463,-1018.038 160.891,-1018.783 161.609,-1018.977 L184.665,-1025.199 C185.386,-1025.394 186.146,-1024.969 186.342,-1024.245 L191.755,-1004.187 C191.95,-1003.463 191.507,-1002.712 190.787,-1002.517 L167.731,-996.295 C167.013,-996.101 166.267,-996.531 166.072,-997.255 L160.658,-1017.313 M188.277,-1024.767 C188.082,-1025.492 188.517,-1026.239 189.235,-1026.432 L212.291,-1032.655 C213.014,-1032.85 213.763,-1032.423 213.958,-1031.698 L219.372,-1011.64 C219.567,-1010.916 219.135,-1010.168 218.412,-1009.973 L195.356,-1003.751 C194.638,-1003.557 193.886,-1003.985 193.69,-1004.709 L188.277,-1024.767 M215.907,-1032.224 C215.712,-1032.949 216.142,-1033.694 216.86,-1033.888 L239.916,-1040.111 C240.641,-1040.306 241.378,-1039.875 241.573,-1039.151 L246.986,-1019.093 C247.182,-1018.369 246.762,-1017.624 246.037,-1017.429 L222.982,-1011.206 C222.264,-1011.013 221.516,-1011.442 221.32,-1012.166 L215.907,-1032.224 M243.539,-1039.681 C243.343,-1040.406 243.772,-1041.151 244.498,-1041.347 L267.54,-1047.566 C268.261,-1047.761 269.01,-1047.333 269.206,-1046.608 L274.619,-1026.551 C274.815,-1025.827 274.383,-1025.079 273.661,-1024.884 L250.62,-1018.665 C249.893,-1018.469 249.147,-1018.899 248.952,-1019.624 L243.539,-1039.681 M271.155,-1047.134 C270.959,-1047.859 271.388,-1048.604 272.114,-1048.8 L295.165,-1055.022 C295.892,-1055.218 296.625,-1054.786 296.82,-1054.061 L302.233,-1034.004 C302.429,-1033.279 302.013,-1032.536 301.287,-1032.34 L278.235,-1026.118 C277.509,-1025.922 276.763,-1026.353 276.568,-1027.077 L271.155,-1047.134 M298.774,-1054.588 C298.578,-1055.313 299.007,-1056.058 299.729,-1056.253 L322.784,-1062.476 C323.511,-1062.672 324.256,-1062.243 324.451,-1061.518 L329.865,-1041.461 C330.06,-1040.737 329.633,-1039.99 328.905,-1039.794 L305.851,-1033.571 C305.129,-1033.377 304.382,-1033.807 304.187,-1034.531 L298.774,-1054.588 M326.405,-1062.046 C326.21,-1062.77 326.636,-1063.515 327.363,-1063.711 L350.418,-1069.933 C351.136,-1070.127 351.875,-1069.697 352.071,-1068.972 L357.484,-1048.915 C357.679,-1048.191 357.257,-1047.445 356.539,-1047.252 L333.484,-1041.029 C332.758,-1040.833 332.014,-1041.264 331.818,-1041.988 L326.405,-1062.046 M354.035,-1069.503 C353.84,-1070.227 354.27,-1070.973 354.984,-1071.166 L378.048,-1077.391 C378.759,-1077.582 379.511,-1077.156 379.706,-1076.431 L385.119,-1056.373 C385.315,-1055.649 384.881,-1054.901 384.169,-1054.708 L361.105,-1048.484 C360.392,-1048.291 359.644,-1048.721 359.448,-1049.445 L354.035,-1069.503 M381.649,-1076.955 C381.454,-1077.68 381.887,-1078.427 382.612,-1078.622 L405.666,-1084.844 C406.391,-1085.04 407.137,-1084.611 407.332,-1083.887 L412.745,-1063.829 C412.941,-1063.105 412.513,-1062.358 411.787,-1062.162 L388.733,-1055.94 C388.008,-1055.745 387.258,-1056.174 387.063,-1056.898 L381.649,-1076.955 M409.284,-1084.413 C409.088,-1085.138 409.517,-1085.884 410.23,-1086.076 L433.296,-1092.301 C434.014,-1092.495 434.755,-1092.065 434.951,-1091.341 L440.364,-1071.283 C440.56,-1070.559 440.136,-1069.813 439.417,-1069.619 L416.352,-1063.394 C415.638,-1063.202 414.892,-1063.632 414.697,-1064.356 L409.284,-1084.413 M436.908,-1091.869 C436.713,-1092.594 437.152,-1093.342 437.861,-1093.533 L474.872,-1103.522 C475.592,-1103.716 476.343,-1103.289 476.538,-1102.564 L481.951,-1082.507 C482.147,-1081.783 481.714,-1081.034 480.994,-1080.84 L443.982,-1070.851 C443.273,-1070.66 442.517,-1071.087 442.321,-1071.811 L436.908,-1091.869 M496.87,-1027.253 C496.961,-1026.916 496.923,-1026.544 496.734,-1026.224 C496.541,-1025.896 496.245,-1025.683 495.904,-1025.591 L479.398,-1021.136 C479.057,-1021.045 478.694,-1021.08 478.368,-1021.267 C478.049,-1021.45 477.824,-1021.751 477.733,-1022.088 L470.632,-1048.401 L465.394,-1046.987 C465.065,-1046.898 464.699,-1046.944 464.368,-1047.125 C464.042,-1047.312 463.833,-1047.62 463.742,-1047.957 L458.328,-1068.02 C458.237,-1068.357 458.265,-1068.72 458.454,-1069.04 C458.645,-1069.376 458.941,-1069.586 459.271,-1069.675 L482.327,-1075.898 C482.668,-1075.99 483.03,-1075.957 483.364,-1075.763 C483.689,-1075.581 483.907,-1075.285 483.997,-1074.948 L496.87,-1027.253 M512.94,-968.575 C513.135,-967.85 512.702,-967.103 511.976,-966.907 L488.931,-960.688 C488.21,-960.493 487.454,-960.919 487.259,-961.644 L484.434,-972.109 C484.24,-972.828 484.677,-973.585 485.397,-973.779 L508.443,-979.999 C509.169,-980.195 509.921,-979.759 510.115,-979.04 L512.94,-968.575 M480.266,-979.807 L485.091,-961.93 C485.239,-961.379 485.26,-960.791 485.116,-960.326 C484.966,-959.838 484.692,-959.544 484.357,-959.454 L461.302,-953.231 C460.971,-953.142 460.575,-953.255 460.203,-953.602 C459.846,-953.932 459.568,-954.451 459.42,-955.002 L453.282,-977.742 C453.193,-978.072 453.231,-978.445 453.413,-978.761 C453.602,-979.091 453.906,-979.318 454.238,-979.408 L477.293,-985.63 C477.628,-985.72 477.994,-985.674 478.326,-985.485 C478.645,-985.304 478.865,-985 478.953,-984.67 L480.266,-979.807 M457.686,-953.662 C457.881,-952.938 457.452,-952.192 456.73,-951.997 L433.687,-945.779 C432.954,-945.581 432.203,-946.007 432.007,-946.732 L429.183,-957.198 C428.989,-957.916 429.421,-958.672 430.154,-958.87 L453.196,-965.089 C453.918,-965.283 454.667,-964.846 454.861,-964.128 L457.686,-953.662 M430.071,-946.21 C430.266,-945.485 429.825,-944.736 429.104,-944.542 L406.047,-938.319 C405.332,-938.126 404.583,-938.553 404.387,-939.278 L398.031,-962.831 C397.839,-963.541 398.267,-964.302 398.983,-964.495 L422.039,-970.718 C422.76,-970.912 423.522,-970.472 423.714,-969.762 L430.071,-946.21 M402.436,-938.751 C402.632,-938.027 402.206,-937.282 401.479,-937.086 L371.227,-928.921 C370.514,-928.729 369.753,-929.153 369.558,-929.878 L363.201,-953.43 C363.01,-954.141 363.449,-954.905 364.163,-955.098 L394.414,-963.262 C395.141,-963.458 395.888,-963.014 396.08,-962.304 L402.436,-938.751 M359.217,-960.468 C359.411,-959.75 358.979,-958.995 358.252,-958.798 L335.204,-952.578 C334.485,-952.384 333.738,-952.821 333.544,-953.539 L328.13,-973.6 C327.936,-974.319 328.362,-975.072 329.081,-975.266 L352.128,-981.486 C352.855,-981.683 353.609,-981.247 353.803,-980.529 L359.217,-960.468 M367.615,-929.354 C367.81,-928.629 367.376,-927.882 366.649,-927.686 L233.1,-891.643 C232.388,-891.451 231.626,-891.874 231.43,-892.599 L225.073,-916.152 C224.882,-916.862 225.323,-917.627 226.035,-917.819 L359.584,-953.862 C360.311,-954.058 361.066,-953.616 361.258,-952.906 L367.615,-929.354 M221.087,-923.188 C221.28,-922.47 220.851,-921.716 220.14,-921.524 L197.084,-915.301 C196.362,-915.107 195.612,-915.543 195.418,-916.261 L190.004,-936.322 C189.81,-937.04 190.239,-937.795 190.961,-937.989 L214.017,-944.212 C214.728,-944.404 215.478,-943.968 215.672,-943.249 L221.087,-923.188 M229.484,-892.074 C229.679,-891.349 229.248,-890.603 228.537,-890.411 L198.276,-882.244 C197.556,-882.05 196.813,-882.479 196.617,-883.204 L190.261,-906.756 C190.069,-907.467 190.492,-908.226 191.212,-908.421 L221.472,-916.588 C222.184,-916.78 222.936,-916.337 223.127,-915.626 L229.484,-892.074 M194.74,-882.697 C194.936,-881.972 194.503,-881.226 193.78,-881.031 L170.725,-874.809 C170.005,-874.614 169.259,-875.043 169.063,-875.767 L162.707,-899.32 C162.515,-900.03 162.94,-900.791 163.66,-900.985 L186.716,-907.207 C187.438,-907.402 188.192,-906.96 188.384,-906.25 L194.74,-882.697 M155.769,-928.492 L158.762,-929.299 C159.48,-929.493 160.228,-929.057 160.422,-928.338 L165.836,-908.277 C166.03,-907.559 165.603,-906.805 164.885,-906.611 L141.828,-900.389 C141.113,-900.196 140.361,-900.631 140.167,-901.349 L134.753,-921.41 C134.559,-922.129 134.989,-922.884 135.705,-923.077 L155.769,-928.492 M185.534,-972.872 C185.731,-972.142 185.3,-971.393 184.576,-971.198 L161.522,-964.976 C160.804,-964.782 160.05,-965.211 159.853,-965.941 L154.438,-986.005 C154.246,-986.716 154.681,-987.47 155.399,-987.664 L178.453,-993.886 C179.177,-994.082 179.927,-993.647 180.119,-992.936 L185.534,-972.872 M188.047,-935.793 L193.461,-915.733 C193.655,-915.015 193.233,-914.262 192.511,-914.067 L169.452,-907.844 C168.743,-907.652 167.987,-908.087 167.793,-908.805 L162.379,-928.866 C162.185,-929.585 162.619,-930.341 163.329,-930.532 L186.387,-936.755 C187.109,-936.95 187.853,-936.512 188.047,-935.793 M189.468,-967.216 L192.46,-968.023 C193.182,-968.218 193.918,-967.786 194.109,-967.075 L199.526,-947.004 C199.722,-946.281 199.302,-945.542 198.58,-945.348 L175.513,-939.122 C174.802,-938.93 174.055,-939.354 173.86,-940.077 L168.443,-960.148 C168.251,-960.859 168.682,-961.606 169.393,-961.798 L189.468,-967.216 M213.159,-980.328 C213.356,-979.598 212.926,-978.849 212.201,-978.654 L189.145,-972.431 C188.427,-972.237 187.681,-972.669 187.484,-973.399 L182.069,-993.462 C181.878,-994.173 182.304,-994.926 183.022,-995.119 L206.078,-1001.342 C206.803,-1001.537 207.553,-1001.102 207.744,-1000.391 L213.159,-980.328 M217.087,-974.67 L220.079,-975.477 C220.801,-975.672 221.549,-975.243 221.741,-974.532 L227.158,-954.461 C227.353,-953.738 226.921,-952.997 226.199,-952.802 L203.141,-946.579 C202.425,-946.385 201.685,-946.81 201.49,-947.534 L196.073,-967.605 C195.881,-968.316 196.305,-969.061 197.021,-969.254 L217.087,-974.67 M240.783,-987.783 C240.979,-987.053 240.551,-986.305 239.827,-986.109 L216.771,-979.887 C216.059,-979.695 215.313,-980.126 215.116,-980.856 L209.701,-1000.919 C209.509,-1001.63 209.936,-1002.383 210.648,-1002.575 L233.704,-1008.798 C234.428,-1008.993 235.176,-1008.557 235.368,-1007.847 L240.783,-987.783 M243.302,-950.706 L248.716,-930.645 C248.91,-929.927 248.483,-929.173 247.757,-928.977 L224.703,-922.755 C223.991,-922.563 223.226,-922.996 223.033,-923.714 L217.618,-943.774 C217.424,-944.493 217.868,-945.251 218.58,-945.444 L241.634,-951.665 C242.36,-951.862 243.108,-951.425 243.302,-950.706 M244.716,-982.127 L247.708,-982.934 C248.433,-983.13 249.168,-982.697 249.36,-981.987 L254.777,-961.915 C254.972,-961.192 254.553,-960.454 253.828,-960.258 L230.768,-954.035 C230.048,-953.841 229.306,-954.265 229.111,-954.988 L223.694,-975.06 C223.502,-975.77 223.928,-976.516 224.648,-976.711 L244.716,-982.127 M268.401,-995.237 C268.598,-994.507 268.168,-993.758 267.456,-993.566 L244.4,-987.344 C243.678,-987.149 242.93,-987.58 242.733,-988.309 L237.318,-1008.373 C237.126,-1009.084 237.555,-1009.837 238.277,-1010.032 L261.333,-1016.254 C262.045,-1016.446 262.795,-1016.011 262.986,-1015.3 L268.401,-995.237 M270.925,-958.161 L276.339,-938.1 C276.533,-937.382 276.101,-936.627 275.388,-936.435 L252.336,-930.213 C251.617,-930.019 250.86,-930.453 250.666,-931.172 L245.252,-951.232 C245.058,-951.951 245.494,-952.707 246.213,-952.901 L269.265,-959.123 C269.977,-959.315 270.731,-958.88 270.925,-958.161 M272.344,-989.583 L275.336,-990.391 C276.049,-990.583 276.8,-990.155 276.991,-989.444 L282.408,-969.372 C282.604,-968.649 282.169,-967.907 281.456,-967.715 L258.391,-961.49 C257.675,-961.297 256.933,-961.721 256.738,-962.444 L251.321,-982.516 C251.129,-983.227 251.556,-983.972 252.271,-984.166 L272.344,-989.583 M296.027,-1002.693 C296.224,-1001.963 295.798,-1001.215 295.072,-1001.019 L272.022,-994.798 C271.304,-994.605 270.559,-995.036 270.362,-995.766 L264.948,-1015.83 C264.756,-1016.541 265.181,-1017.293 265.899,-1017.487 L288.949,-1023.707 C289.674,-1023.903 290.42,-1023.467 290.612,-1022.756 L296.027,-1002.693 M298.548,-965.616 L303.962,-945.555 C304.156,-944.837 303.727,-944.083 303.012,-943.89 L279.958,-937.668 C279.242,-937.475 278.492,-937.911 278.298,-938.629 L272.884,-958.69 C272.69,-959.408 273.119,-960.163 273.835,-960.356 L296.889,-966.578 C297.604,-966.771 298.354,-966.335 298.548,-965.616 M299.964,-997.037 L302.955,-997.844 C303.671,-998.038 304.423,-997.61 304.615,-996.899 L310.032,-976.828 C310.227,-976.105 309.791,-975.362 309.075,-975.169 L286.023,-968.947 C285.312,-968.755 284.55,-969.175 284.355,-969.898 L278.938,-989.969 C278.746,-990.68 279.192,-991.431 279.904,-991.623 L299.964,-997.037 M323.648,-1010.147 C323.845,-1009.417 323.425,-1008.672 322.703,-1008.477 L299.646,-1002.254 C298.924,-1002.059 298.175,-1002.489 297.978,-1003.219 L292.563,-1023.283 C292.371,-1023.994 292.8,-1024.747 293.523,-1024.942 L316.58,-1031.165 C317.302,-1031.36 318.041,-1030.922 318.233,-1030.211 L323.648,-1010.147 M326.175,-973.072 L331.59,-953.012 C331.783,-952.294 331.36,-951.541 330.637,-951.346 L307.58,-945.123 C306.856,-944.927 306.106,-945.363 305.912,-946.082 L300.498,-966.142 C300.304,-966.861 300.733,-967.615 301.457,-967.811 L324.514,-974.034 C325.237,-974.229 325.981,-973.791 326.175,-973.072 M327.587,-1004.492 L330.578,-1005.3 C331.297,-1005.493 332.045,-1005.065 332.237,-1004.354 L337.654,-984.282 C337.849,-983.559 337.416,-982.818 336.698,-982.624 L313.648,-976.403 C312.925,-976.208 312.181,-976.632 311.986,-977.355 L306.569,-997.426 C306.377,-998.137 306.805,-998.884 307.528,-999.079 L327.587,-1004.492 M351.275,-1017.604 C351.472,-1016.874 351.053,-1016.128 350.326,-1015.932 L327.267,-1009.708 C326.554,-1009.516 325.807,-1009.947 325.61,-1010.677 L320.195,-1030.74 C320.003,-1031.451 320.43,-1032.204 321.144,-1032.396 L344.203,-1038.62 C344.93,-1038.816 345.669,-1038.378 345.861,-1037.667 L351.275,-1017.604 M355.213,-1011.948 L358.204,-1012.755 C358.926,-1012.95 359.668,-1012.52 359.859,-1011.809 L365.276,-991.737 C365.472,-991.014 365.046,-990.274 364.324,-990.08 L341.268,-983.857 C340.549,-983.663 339.806,-984.087 339.611,-984.811 L334.194,-1004.882 C334.002,-1005.593 334.429,-1006.339 335.148,-1006.533 L355.213,-1011.948 M378.907,-1025.061 C379.104,-1024.331 378.674,-1023.582 377.949,-1023.387 L354.894,-1017.165 C354.175,-1016.97 353.426,-1017.401 353.229,-1018.131 L347.814,-1038.194 C347.623,-1038.905 348.051,-1039.658 348.771,-1039.853 L371.826,-1046.075 C372.551,-1046.271 373.3,-1045.835 373.492,-1045.125 L378.907,-1025.061 M381.429,-987.984 L386.843,-967.924 C387.037,-967.206 386.606,-966.451 385.883,-966.256 L362.831,-960.034 C362.117,-959.842 361.354,-960.274 361.161,-960.992 L355.746,-981.053 C355.552,-981.772 355.994,-982.53 356.707,-982.722 L379.76,-988.944 C380.483,-989.139 381.235,-988.703 381.429,-987.984 M382.842,-1019.405 L385.833,-1020.212 C386.545,-1020.404 387.3,-1019.977 387.492,-1019.266 L392.909,-999.195 C393.104,-998.472 392.665,-997.728 391.953,-997.536 L368.897,-991.314 C368.176,-991.119 367.429,-991.543 367.234,-992.266 L361.817,-1012.337 C361.625,-1013.048 362.056,-1013.795 362.777,-1013.99 L382.842,-1019.405 M406.526,-1032.515 C406.723,-1031.785 406.293,-1031.036 405.584,-1030.845 L382.527,-1024.622 C381.802,-1024.427 381.058,-1024.858 380.861,-1025.588 L375.446,-1045.652 C375.254,-1046.363 375.679,-1047.115 376.403,-1047.31 L399.461,-1053.533 C400.17,-1053.724 400.92,-1053.289 401.112,-1052.578 L406.526,-1032.515 M409.052,-995.44 L414.467,-975.379 C414.66,-974.661 414.24,-973.909 413.513,-973.713 L390.459,-967.491 C389.732,-967.294 388.986,-967.732 388.792,-968.45 L383.378,-988.511 C383.184,-989.229 383.609,-989.982 384.336,-990.179 L407.39,-996.401 C408.117,-996.597 408.858,-996.158 409.052,-995.44 M410.467,-1026.86 L413.458,-1027.668 C414.177,-1027.862 414.927,-1027.433 415.119,-1026.722 L420.536,-1006.651 C420.731,-1005.928 420.297,-1005.186 419.578,-1004.992 L396.518,-998.768 C395.793,-998.573 395.055,-998.998 394.86,-999.721 L389.443,-1019.793 C389.251,-1020.504 389.673,-1021.248 390.398,-1021.444 L410.467,-1026.86 M434.158,-1039.972 C434.354,-1039.242 433.925,-1038.494 433.198,-1038.298 L410.145,-1032.076 C409.436,-1031.885 408.681,-1032.314 408.484,-1033.043 L403.069,-1053.107 C402.877,-1053.818 403.312,-1054.573 404.022,-1054.764 L427.075,-1060.986 C427.802,-1061.182 428.551,-1060.747 428.743,-1060.036 L434.158,-1039.972 M436.677,-1002.895 L442.091,-982.835 C442.285,-982.116 441.855,-981.362 441.134,-981.167 L418.085,-974.947 C417.362,-974.751 416.61,-975.187 416.416,-975.905 L411.002,-995.966 C410.808,-996.685 411.239,-997.439 411.962,-997.635 L435.011,-1003.855 C435.731,-1004.05 436.483,-1003.614 436.677,-1002.895 M438.091,-1034.316 L441.081,-1035.123 C441.801,-1035.317 442.546,-1034.887 442.738,-1034.176 L448.155,-1014.105 C448.35,-1013.382 447.921,-1012.641 447.201,-1012.447 L424.151,-1006.226 C423.424,-1006.03 422.678,-1006.453 422.482,-1007.176 L417.065,-1027.248 C416.874,-1027.959 417.305,-1028.706 418.032,-1028.902 L438.091,-1034.316 M461.782,-1047.428 C461.979,-1046.698 461.547,-1045.949 460.832,-1045.756 L437.777,-1039.533 C437.053,-1039.338 436.304,-1039.769 436.107,-1040.499 L430.693,-1060.562 C430.501,-1061.273 430.93,-1062.026 431.654,-1062.222 L454.709,-1068.444 C455.423,-1068.637 456.176,-1068.202 456.368,-1067.491 L461.782,-1047.428 M494.251,-1019.843 L497.238,-1020.649 C497.958,-1020.844 498.711,-1020.408 498.905,-1019.69 L504.319,-999.629 C504.513,-998.911 504.082,-998.156 503.361,-997.961 L445.709,-982.402 C444.987,-982.207 444.236,-982.643 444.043,-983.361 L438.628,-1003.422 C438.434,-1004.141 438.863,-1004.895 439.586,-1005.09 L494.251,-1019.843 M475.779,-1021.56 C475.974,-1020.837 475.545,-1020.097 474.825,-1019.902 L451.766,-1013.679 C451.048,-1013.485 450.308,-1013.91 450.113,-1014.633 L444.696,-1034.705 C444.504,-1035.416 444.928,-1036.161 445.646,-1036.355 L468.705,-1042.578 C469.425,-1042.772 470.17,-1042.343 470.362,-1041.632 L475.779,-1021.56 M136.889,-958.328 L133.897,-957.521 C133.175,-957.326 132.433,-957.758 132.236,-958.488 L126.821,-978.551 C126.629,-979.262 127.052,-980.014 127.774,-980.209 L150.827,-986.43 C151.561,-986.628 152.302,-986.191 152.493,-985.48 L157.908,-965.416 C158.105,-964.687 157.684,-963.94 156.951,-963.742 L136.889,-958.328 M140.811,-952.691 C140.619,-953.401 141.06,-954.151 141.772,-954.344 L164.831,-960.567 C165.553,-960.762 166.3,-960.332 166.492,-959.622 L171.909,-939.55 C172.104,-938.827 171.673,-938.086 170.95,-937.891 L147.892,-931.668 C147.18,-931.476 146.423,-931.896 146.228,-932.619 L140.811,-952.691 M167.182,-875.26 C167.378,-874.535 166.95,-873.79 166.223,-873.593 L143.175,-867.373 C142.457,-867.18 141.708,-867.607 141.512,-868.332 L135.156,-891.884 C134.964,-892.594 135.393,-893.356 136.111,-893.55 L159.158,-899.77 C159.885,-899.966 160.634,-899.523 160.826,-898.812 L167.182,-875.26 M110.087,-844.289 L526.9,-956.781 C529.977,-957.612 531.82,-960.815 530.992,-963.886 L488.376,-1121.787 L60.376,-1006.276 L102.991,-848.375 C103.82,-845.303 107.014,-843.46 110.087,-844.289" fill="#C5C5BD"/>
      <path d="M191.271,-880.464 L190.788,-880.224 L170.725,-874.809 C170.005,-874.614 169.259,-875.043 169.063,-875.767 L162.707,-899.32 C162.515,-900.03 162.94,-900.791 163.66,-900.985 L183.724,-906.4 L183.724,-906.4 L186.716,-907.207 C187.438,-907.402 188.192,-906.96 188.384,-906.25 L194.74,-882.697 C194.936,-881.972 194.503,-881.226 193.78,-881.031 L190.788,-880.224 L191.271,-880.464 z M191.748,-881.89 L191.748,-881.89 L191.782,-881.351 L191.748,-881.89 z" fill="#FFFFFF"/>
      <path d="M131.615,-892.336 C132.338,-892.531 133.089,-892.088 133.281,-891.378 L139.637,-867.826 C139.833,-867.101 139.402,-866.355 138.68,-866.16 L115.624,-859.938 C114.899,-859.742 114.154,-860.17 113.958,-860.895 L107.602,-884.448 C107.41,-885.158 107.835,-885.918 108.559,-886.114 L131.615,-892.336 z M136.631,-866.312 C136.186,-865.601 136.437,-865.869 135.944,-865.45 C136.496,-865.88 136.272,-865.622 136.619,-866.224 L136.631,-866.312 z M130.117,-890.919 L130.206,-890.787 L130.192,-890.824 L130.117,-890.919 z" fill="#FFFFFF"/>
      <path d="M159.158,-899.77 C159.885,-899.966 160.634,-899.522 160.826,-898.812 L167.182,-875.26 C167.378,-874.535 166.95,-873.79 166.222,-873.593 L143.175,-867.373 C142.457,-867.18 141.708,-867.607 141.512,-868.332 L135.155,-891.884 C134.964,-892.594 135.393,-893.356 136.111,-893.55 L159.158,-899.77 z M164.181,-873.784 C163.861,-873.149 164.058,-873.388 163.657,-873.015 C164.042,-873.315 163.853,-873.117 164.164,-873.658 L164.181,-873.784 z M144.88,-868.585 C145.112,-868.363 144.969,-868.475 145.329,-868.277 C145.027,-868.491 145.176,-868.388 144.88,-868.585 z M138.147,-892.709 L138.147,-892.692 L144.504,-869.139 C144.648,-868.79 144.552,-868.9 144.706,-868.752 C144.572,-869.006 144.639,-868.877 144.504,-869.139 L138.148,-892.692 L138.147,-892.709 z M138.848,-894.259 C138.394,-893.888 138.54,-894.101 138.348,-893.666 C138.555,-894.081 138.407,-893.869 138.848,-894.259 z" fill="#FFFFFF"/>
      <path d="M104.096,-914.546 C103.799,-914.432 103.911,-914.504 103.739,-914.369 C103.911,-914.504 103.799,-914.432 104.096,-914.546 L131.139,-921.844 C131.861,-922.039 132.611,-921.603 132.805,-920.884 L138.219,-900.824 C138.413,-900.105 137.984,-899.351 137.262,-899.156 L107.227,-891.05 C106.503,-890.855 105.754,-891.291 105.561,-892.01 L100.147,-912.07 C99.953,-912.789 100.379,-913.543 101.104,-913.738 L104.096,-914.546 z M135.271,-899.746 C135.176,-899.052 135.286,-899.377 134.941,-898.773 C135.286,-899.377 135.176,-899.052 135.271,-899.746 z" fill="#FFFFFF"/>
      <path d="M186.387,-936.755 C187.109,-936.95 187.853,-936.512 188.047,-935.793 L193.461,-915.733 C193.655,-915.015 193.233,-914.262 192.511,-914.067 L172.444,-908.652 C172.005,-908.581 172.266,-908.596 171.658,-908.682 C172.266,-908.596 172.005,-908.581 172.444,-908.652 L169.452,-907.844 C168.743,-907.652 167.987,-908.087 167.793,-908.805 L162.379,-928.866 C162.185,-929.585 162.619,-930.341 163.329,-930.532 L166.32,-931.339 L166.321,-931.34 L186.387,-936.755 z M170.785,-909.613 L170.785,-909.613 L170.858,-909.421 L170.785,-909.613 z M183.988,-935.922 C184.447,-935.79 184.233,-935.88 184.635,-935.658 C184.243,-935.91 184.458,-935.819 183.988,-935.922 z" fill="#FFFFFF"/>
      <path d="M138.698,-923.884 C138.3,-923.719 138.46,-923.836 138.198,-923.562 C138.475,-923.817 138.313,-923.703 138.698,-923.884 L158.762,-929.299 C159.48,-929.493 160.228,-929.057 160.422,-928.338 L165.836,-908.277 C166.03,-907.559 165.603,-906.805 164.885,-906.611 L141.829,-900.389 C141.113,-900.195 140.361,-900.631 140.167,-901.349 L134.753,-921.41 C134.559,-922.129 134.989,-922.884 135.706,-923.077 L138.698,-923.884 z M157.346,-927.749 L157.429,-927.53 C157.349,-927.745 157.391,-927.68 157.346,-927.749 z M157.008,-928.201 L157.257,-927.881 C157.152,-928.04 157.229,-927.929 157.008,-928.201 z" fill="#FFFFFF"/>
      <path d="M164.831,-960.567 C165.553,-960.762 166.3,-960.332 166.492,-959.622 L171.909,-939.55 C172.104,-938.827 171.673,-938.086 170.951,-937.891 L147.892,-931.668 C147.18,-931.476 146.424,-931.896 146.228,-932.619 L140.811,-952.691 C140.619,-953.401 141.06,-954.151 141.772,-954.344 L164.831,-960.567 z M150.393,-932.461 C150.416,-932.451 150.402,-932.455 150.434,-932.456 L150.393,-932.461 z M149.22,-933.427 L149.318,-933.17 L149.321,-933.167 C149.32,-933.168 149.319,-933.169 149.318,-933.17 L149.22,-933.427 z M143.784,-953.924 C143.777,-953.903 143.778,-953.913 143.779,-953.892 L143.784,-953.924 z M144.334,-954.916 C143.977,-954.59 144.073,-954.767 143.961,-954.44 C144.21,-954.747 144.086,-954.589 144.334,-954.916 z" fill="#FFFFFF"/>
      <path d="M137.198,-953.109 C137.927,-953.306 138.669,-952.875 138.861,-952.164 L144.278,-932.093 C144.473,-931.37 144.047,-930.63 143.318,-930.433 L140.326,-929.626 C140.749,-929.786 140.512,-929.667 141.002,-930.047 C140.512,-929.668 140.749,-929.786 140.326,-929.626 L99.77,-918.68 C99.046,-918.485 98.301,-918.908 98.106,-919.632 L92.689,-939.703 C92.497,-940.414 92.926,-941.16 93.65,-941.356 L137.198,-953.109 z M101.969,-919.512 L101.969,-919.512 L102.39,-919.456 L101.969,-919.512 z M141.324,-931.055 L141.314,-930.893 L141.33,-931.015 L141.324,-931.055 z M135.786,-951.573 L135.869,-951.357 C135.789,-951.57 135.831,-951.505 135.786,-951.573 z M135.451,-952.02 L135.698,-951.703 C135.593,-951.86 135.67,-951.75 135.451,-952.02 z M96.48,-942.105 C96.318,-942.026 96.393,-942.073 96.254,-941.964 C96.393,-942.073 96.318,-942.026 96.48,-942.105 z" fill="#FFFFFF"/>
      <path d="M175.461,-993.078 L178.453,-993.886 C179.177,-994.082 179.927,-993.647 180.119,-992.936 L185.534,-972.872 C185.731,-972.142 185.3,-971.393 184.576,-971.198 L161.522,-964.976 C160.804,-964.782 160.049,-965.211 159.852,-965.941 L154.438,-986.005 C154.246,-986.716 154.681,-987.47 155.399,-987.664 L175.461,-993.078 L175.462,-993.079 L175.461,-993.078 z M182.391,-971.109 C182.141,-970.798 182.266,-970.959 182.018,-970.627 C182.377,-970.958 182.282,-970.778 182.391,-971.109 L182.391,-971.109 z M182.569,-971.664 L182.565,-971.635 C182.571,-971.655 182.57,-971.645 182.569,-971.664 z M176.055,-993.054 C176.517,-992.924 176.301,-993.013 176.706,-992.793 C176.311,-993.043 176.527,-992.953 176.055,-993.054 z" fill="#FFFFFF"/>
      <path d="M150.827,-986.43 C151.561,-986.628 152.302,-986.191 152.493,-985.48 L157.908,-965.416 C158.105,-964.687 157.684,-963.94 156.951,-963.742 L133.897,-957.521 C133.175,-957.326 132.433,-957.758 132.236,-958.488 L126.821,-978.551 C126.629,-979.262 127.051,-980.014 127.774,-980.209 L150.827,-986.43 z M154.636,-963.359 L154.315,-963.109 C154.473,-963.214 154.362,-963.137 154.636,-963.359 z M135.227,-959.295 C135.337,-959.001 135.265,-959.144 135.446,-958.871 C135.266,-959.144 135.337,-959.002 135.227,-959.295 z M129.785,-979.745 L129.769,-979.626 L129.775,-979.587 L129.785,-979.745 z M148.431,-985.599 C148.894,-985.47 148.678,-985.559 149.083,-985.338 C148.688,-985.589 148.904,-985.499 148.431,-985.599 z" fill="#FFFFFF"/>
      <path d="M123.204,-978.975 C123.929,-979.171 124.676,-978.735 124.868,-978.024 L130.283,-957.961 C130.48,-957.231 130.052,-956.483 129.327,-956.287 L92.316,-946.298 C91.592,-946.103 90.845,-946.534 90.648,-947.264 L85.233,-967.327 C85.041,-968.038 85.469,-968.791 86.193,-968.986 L123.204,-978.975 z M121.655,-977.633 L121.876,-977.217 C121.751,-977.529 121.829,-977.393 121.655,-977.633 z M121.051,-978.072 L121.651,-977.639 C121.413,-977.969 121.584,-977.791 121.051,-978.072 z" fill="#FFFFFF"/>
      <path d="M129.411,-1010.287 C130.142,-1010.484 130.883,-1010.055 131.078,-1009.33 L136.492,-989.272 C136.687,-988.548 136.263,-987.802 135.532,-987.605 L115.481,-982.193 L115.475,-982.192 L112.489,-981.386 C111.766,-981.191 111.018,-981.621 110.823,-982.345 L105.41,-1002.402 C105.214,-1003.127 105.645,-1003.873 106.367,-1004.068 L129.411,-1010.287 z M133.499,-988.465 C133.573,-988.02 133.556,-988.284 133.474,-987.671 C133.556,-988.284 133.573,-988.02 133.499,-988.465 z M127.61,-1009.267 C127.736,-1009.104 127.862,-1008.942 127.988,-1008.779 L127.989,-1008.778 L127.988,-1008.779 C127.862,-1008.942 127.736,-1009.104 127.61,-1009.267 z" fill="#FFFFFF"/>
      <path d="M154.052,-1016.937 C154.358,-1016.989 154.201,-1016.98 154.525,-1016.96 C154.201,-1016.98 154.359,-1016.989 154.052,-1016.937 L157.044,-1017.745 C157.766,-1017.94 158.512,-1017.511 158.708,-1016.786 L164.121,-996.729 C164.317,-996.005 163.888,-995.258 163.166,-995.063 L143.1,-989.647 L143.095,-989.646 L140.108,-988.84 C139.392,-988.647 138.648,-989.078 138.452,-989.801 L133.039,-1009.859 C132.843,-1010.584 133.27,-1011.328 133.986,-1011.522 L154.052,-1016.937 z M160.845,-994.677 L160.526,-994.428 C160.683,-994.533 160.572,-994.456 160.845,-994.677 z" fill="#FFFFFF"/>
      <path d="M101.794,-1002.833 C102.516,-1003.028 103.264,-1002.6 103.459,-1001.876 L108.872,-981.818 C109.068,-981.094 108.638,-980.346 107.915,-980.151 L87.852,-974.737 L87.846,-974.736 L84.859,-973.929 C84.135,-973.734 83.388,-974.164 83.193,-974.888 L77.78,-994.945 C77.584,-995.67 78.013,-996.415 78.738,-996.611 L101.794,-1002.833 z" fill="#FFFFFF"/>
      <path d="M508.443,-979.999 C509.169,-980.195 509.921,-979.759 510.115,-979.04 L512.94,-968.575 C513.135,-967.85 512.702,-967.103 511.976,-966.907 L508.988,-966.101 C509.139,-966.139 509.204,-966.182 508.988,-966.101 L488.931,-960.688 C488.21,-960.493 487.454,-960.919 487.259,-961.644 L484.434,-972.109 C484.24,-972.828 484.677,-973.584 485.398,-973.779 L488.38,-974.583 L488.385,-974.585 L508.443,-979.999 z M509.66,-966.523 L509.341,-966.274 C509.498,-966.379 509.387,-966.302 509.66,-966.523 z" fill="#FFFFFF"/>
      <path d="M453.196,-965.088 C453.918,-965.283 454.667,-964.846 454.861,-964.128 L457.686,-953.662 C457.881,-952.938 457.452,-952.192 456.73,-951.997 L433.688,-945.778 C432.954,-945.581 432.203,-946.007 432.007,-946.732 L429.183,-957.198 C428.989,-957.916 429.421,-958.671 430.155,-958.869 L433.14,-959.675 L433.145,-959.677 L453.196,-965.088 z" fill="#FFFFFF"/>
      <path d="M457.228,-980.215 C456.897,-980.125 456.593,-979.898 456.404,-979.568 C456.593,-979.898 456.897,-980.126 457.228,-980.215 L477.292,-985.63 C477.628,-985.72 477.993,-985.674 478.326,-985.485 C478.645,-985.304 478.864,-985 478.953,-984.67 L485.09,-961.93 C485.239,-961.379 485.26,-960.791 485.116,-960.326 C484.966,-959.838 484.692,-959.544 484.357,-959.454 L464.293,-954.039 C463.962,-953.949 463.566,-954.062 463.194,-954.409 C463.566,-954.062 463.961,-953.949 464.293,-954.039 L461.302,-953.231 C460.97,-953.142 460.575,-953.255 460.203,-953.602 C459.847,-953.932 459.568,-954.451 459.419,-955.002 L453.282,-977.742 C453.193,-978.072 453.231,-978.445 453.413,-978.761 C453.602,-979.091 453.906,-979.318 454.238,-979.408 L457.228,-980.215 z M481.933,-959.131 C481.789,-958.95 481.867,-959.041 481.699,-958.859 C481.867,-959.041 481.79,-958.95 481.933,-959.131 z M482.166,-960.823 L482.19,-960.701 L482.19,-960.706 L482.166,-960.823 z M475.791,-984.22 L475.892,-984.058 L475.875,-984.105 L475.791,-984.22 z M475.629,-984.425 L475.782,-984.233 C475.737,-984.302 475.684,-984.364 475.629,-984.425 z M474.85,-984.844 C475.183,-984.729 475.022,-984.784 475.333,-984.677 L475.524,-984.543 C475.522,-984.545 475.521,-984.546 475.52,-984.548 C475.457,-984.591 475.395,-984.634 475.333,-984.677 C475.022,-984.784 475.183,-984.729 474.85,-984.844 z" fill="#FFFFFF"/>
      <path d="M414.953,-998.442 C414.699,-998.348 414.82,-998.407 414.591,-998.266 C414.82,-998.407 414.699,-998.348 414.953,-998.442 L435.011,-1003.855 C435.731,-1004.05 436.483,-1003.614 436.677,-1002.895 L442.091,-982.835 C442.285,-982.116 441.854,-981.362 441.134,-981.167 L418.085,-974.947 C417.361,-974.751 416.61,-975.187 416.416,-975.905 L411.002,-995.966 C410.808,-996.685 411.238,-997.439 411.962,-997.635 L414.953,-998.442 z M439.076,-981.282 C439.032,-981.162 439.057,-981.22 439.003,-981.109 C439.057,-981.22 439.032,-981.162 439.076,-981.282 z" fill="#FFFFFF"/>
      <path d="M442.577,-1005.897 C442.492,-1005.865 442.406,-1005.832 442.321,-1005.799 C442.321,-1005.799 442.321,-1005.799 442.321,-1005.799 L442.577,-1005.897 L497.238,-1020.649 C497.958,-1020.844 498.711,-1020.408 498.905,-1019.69 L504.319,-999.629 C504.513,-998.911 504.081,-998.156 503.361,-997.961 L445.709,-982.402 C444.986,-982.207 444.236,-982.643 444.042,-983.361 L438.628,-1003.422 C438.434,-1004.141 438.863,-1004.895 439.586,-1005.09 L442.577,-1005.897 z M501.302,-998.229 C501.173,-997.767 501.262,-997.983 501.043,-997.578 C501.291,-997.973 501.202,-997.757 501.302,-998.229 z M495.727,-1019.252 L495.812,-1019.125 C495.772,-1019.223 495.801,-1019.181 495.727,-1019.252 z" fill="#FFFFFF"/>
      <path d="M371.227,-928.921 C370.514,-928.729 369.754,-929.153 369.558,-929.878 L363.202,-953.431 C363.01,-954.141 363.449,-954.905 364.163,-955.098 L394.414,-963.262 C395.141,-963.458 395.888,-963.014 396.08,-962.304 L402.436,-938.751 C402.632,-938.027 402.206,-937.282 401.479,-937.086 L371.227,-928.921 z M399.251,-936.949 C398.988,-936.527 399.152,-936.722 398.746,-936.377 C399.18,-936.703 399.018,-936.506 399.251,-936.949 z M392.545,-962.242 C393.022,-961.719 392.862,-961.982 393.089,-961.497 L392.992,-961.75 C392.851,-961.925 392.747,-962.13 392.545,-962.242 z" fill="#FFFFFF"/>
      <path d="M422.039,-970.718 C422.76,-970.912 423.522,-970.472 423.714,-969.762 L430.07,-946.21 C430.266,-945.485 429.825,-944.736 429.104,-944.542 L406.047,-938.319 C405.331,-938.125 404.583,-938.553 404.388,-939.278 L398.031,-962.831 C397.84,-963.541 398.266,-964.302 398.983,-964.495 L422.039,-970.718 z M427.062,-944.701 C426.632,-944 426.876,-944.264 426.395,-943.852 C426.924,-944.263 426.704,-944.013 427.049,-944.607 L427.062,-944.701 z M408.221,-939.17 L408.25,-939.154 L408.28,-939.149 L408.221,-939.17 z" fill="#FFFFFF"/>
      <path d="M233.1,-891.643 C232.388,-891.451 231.626,-891.874 231.43,-892.599 L225.073,-916.152 C224.882,-916.862 225.323,-917.627 226.035,-917.819 L229.027,-918.626 L229.027,-918.627 L359.584,-953.862 C360.311,-954.058 361.066,-953.616 361.258,-952.906 L367.614,-929.354 C367.81,-928.629 367.376,-927.882 366.649,-927.686 L233.1,-891.643 z M364.34,-927.384 C364.199,-927.16 364.312,-927.321 363.915,-926.977 C364.323,-927.304 364.227,-927.132 364.34,-927.384 z M364.643,-928.071 L364.643,-928.065 C364.644,-928.068 364.644,-928.066 364.643,-928.071 z M358.17,-952.352 L358.267,-952.099 L364.624,-928.546 L364.624,-928.545 L364.624,-928.546 L358.267,-952.099 L358.17,-952.352 z M357.192,-953.029 C357.431,-952.988 357.636,-952.882 357.845,-952.765 C357.65,-952.931 357.435,-952.98 357.192,-953.029 z" fill="#FFFFFF"/>
      <path d="M352.128,-981.486 C352.855,-981.683 353.609,-981.247 353.803,-980.529 L359.217,-960.468 C359.411,-959.75 358.979,-958.995 358.252,-958.798 L355.26,-957.991 L355.518,-958.09 L355.26,-957.991 L335.204,-952.578 C334.485,-952.384 333.738,-952.821 333.544,-953.539 L328.13,-973.6 C327.936,-974.318 328.362,-975.072 329.081,-975.266 L349.137,-980.679 L349.165,-980.684 L349.137,-980.679 L352.128,-981.486 z M356.2,-959.066 C356.069,-958.605 356.159,-958.821 355.937,-958.416 C356.188,-958.81 356.098,-958.595 356.2,-959.066 L356.2,-959.066 z M337.308,-953.475 C337.361,-953.449 337.333,-953.461 337.392,-953.44 L337.308,-953.475 z M336.535,-954.346 C336.667,-953.999 336.576,-954.163 336.814,-953.857 C336.576,-954.163 336.667,-953.999 336.535,-954.346 L336.535,-954.346 z M350.729,-979.94 L350.812,-979.722 L356.226,-959.661 L356.226,-959.66 L356.226,-959.661 L350.812,-979.722 C350.731,-979.937 350.774,-979.872 350.729,-979.94 L350.729,-979.94 z M350.389,-980.392 L350.639,-980.073 C350.533,-980.231 350.611,-980.12 350.389,-980.392 L350.389,-980.392 z" fill="#FFFFFF"/>
      <path d="M313.648,-976.403 C312.925,-976.208 312.181,-976.631 311.986,-977.355 L306.569,-997.426 C306.377,-998.137 306.805,-998.884 307.528,-999.079 L327.587,-1004.492 C328.298,-1004.537 327.967,-1004.615 328.581,-1004.264 C327.967,-1004.615 328.298,-1004.537 327.587,-1004.492 L330.578,-1005.3 C331.297,-1005.493 332.045,-1005.065 332.237,-1004.354 L337.654,-984.282 C337.849,-983.559 337.416,-982.818 336.698,-982.624 L313.648,-976.403 z M315.199,-977.739 C315.438,-977.406 315.267,-977.585 315.8,-977.303 L315.199,-977.739 z M314.977,-978.162 C315.101,-977.848 315.024,-977.985 315.198,-977.742 L314.977,-978.162 z M310.088,-999.652 C309.749,-999.368 309.866,-999.535 309.711,-999.172 C309.965,-999.484 309.839,-999.323 310.088,-999.652 z" fill="#FFFFFF"/>
      <path d="M358.204,-1012.755 C358.926,-1012.95 359.667,-1012.52 359.859,-1011.809 L365.276,-991.737 C365.471,-991.014 365.046,-990.274 364.324,-990.08 L361.332,-989.272 L341.268,-983.857 C340.548,-983.663 339.806,-984.087 339.611,-984.811 L334.194,-1004.882 C334.002,-1005.593 334.428,-1006.339 335.148,-1006.533 L358.204,-1012.755 z M362.003,-989.692 C361.807,-989.506 361.602,-989.373 361.352,-989.28 C361.61,-989.348 361.8,-989.528 362.003,-989.692 L362.003,-989.692 z M342.824,-985.196 C343.062,-984.863 342.891,-985.042 343.423,-984.759 L342.824,-985.196 z M342.602,-985.618 C342.727,-985.303 342.649,-985.441 342.823,-985.198 L342.602,-985.618 z M362.323,-990.7 L362.314,-990.538 L362.33,-990.659 L362.323,-990.7 z" fill="#FFFFFF"/>
      <path d="M407.39,-996.401 C408.117,-996.597 408.858,-996.158 409.052,-995.44 L414.466,-975.379 C414.66,-974.661 414.24,-973.909 413.513,-973.713 L393.45,-968.298 L393.147,-968.267 C393.304,-968.262 393.203,-968.26 393.45,-968.298 L390.459,-967.491 C389.732,-967.294 388.986,-967.732 388.792,-968.45 L383.378,-988.511 C383.184,-989.229 383.609,-989.982 384.336,-990.179 L407.39,-996.401 z M392.579,-968.369 C392.829,-968.256 392.709,-968.279 392.931,-968.273 L392.579,-968.369 z M411.452,-973.8 C411.421,-973.719 411.438,-973.76 411.398,-973.678 C411.438,-973.76 411.421,-973.719 411.452,-973.8 z M387.035,-990.85 C386.879,-990.776 386.937,-990.824 386.847,-990.727 L387.035,-990.85 z" fill="#FFFFFF"/>
      <path d="M359.699,-983.53 C359.299,-983.364 359.461,-983.48 359.197,-983.207 C359.475,-983.462 359.312,-983.348 359.699,-983.53 L379.76,-988.944 C380.483,-989.139 381.235,-988.703 381.429,-987.984 L386.843,-967.924 C387.036,-967.206 386.606,-966.451 385.883,-966.256 L362.83,-960.034 C362.117,-959.841 361.355,-960.274 361.161,-960.993 L355.747,-981.053 C355.553,-981.772 355.994,-982.53 356.707,-982.722 L359.699,-983.53 z M383.896,-966.847 C383.8,-966.153 383.911,-966.477 383.565,-965.873 C383.911,-966.477 383.8,-966.153 383.896,-966.847 z M378.035,-987.822 L378.34,-987.433 C378.225,-987.551 378.16,-987.713 378.035,-987.822 z M377.563,-988.108 L377.987,-987.864 C377.856,-987.955 377.703,-988.03 377.563,-988.108 z" fill="#FFFFFF"/>
      <path d="M385.833,-1020.212 C386.545,-1020.404 387.3,-1019.977 387.491,-1019.266 L392.908,-999.195 C393.104,-998.472 392.664,-997.728 391.953,-997.536 L388.962,-996.729 C389.379,-996.888 389.144,-996.77 389.629,-997.148 C389.144,-996.77 389.378,-996.888 388.962,-996.729 L368.896,-991.314 C368.176,-991.119 367.429,-991.542 367.234,-992.266 L361.817,-1012.337 C361.625,-1013.048 362.056,-1013.795 362.776,-1013.99 L385.833,-1020.212 z M370.607,-992.46 C370.876,-992.184 370.676,-992.351 371.314,-992.128 L370.607,-992.46 z M370.295,-992.891 C370.426,-992.626 370.348,-992.725 370.499,-992.571 L370.295,-992.891 z M389.955,-998.157 L389.945,-997.996 L389.962,-998.117 L389.955,-998.157 z" fill="#FFFFFF"/>
      <path d="M371.826,-1046.075 C372.551,-1046.27 373.3,-1045.835 373.492,-1045.124 L378.907,-1025.061 C379.104,-1024.331 378.674,-1023.582 377.949,-1023.387 L354.894,-1017.165 C354.174,-1016.97 353.426,-1017.401 353.229,-1018.131 L347.814,-1038.194 C347.623,-1038.905 348.051,-1039.658 348.771,-1039.853 L368.835,-1045.267 L368.837,-1045.268 L368.835,-1045.267 L371.826,-1046.075 z M375.329,-1022.765 L375.203,-1022.68 C375.3,-1022.72 375.258,-1022.691 375.329,-1022.765 z M370.404,-1044.57 L370.501,-1044.317 L375.916,-1024.254 L375.961,-1023.98 L375.916,-1024.254 L370.501,-1044.317 L370.404,-1044.57 z M369.429,-1045.243 C369.892,-1045.113 369.676,-1045.202 370.081,-1044.982 C369.686,-1045.232 369.902,-1045.142 369.429,-1045.243 z" fill="#FFFFFF"/>
      <path d="M376.403,-1047.31 L379.394,-1048.117 L379.394,-1048.117 L399.461,-1053.533 C400.17,-1053.724 400.92,-1053.289 401.112,-1052.578 L406.526,-1032.515 C406.723,-1031.785 406.293,-1031.036 405.584,-1030.845 L385.517,-1025.429 C384.793,-1025.234 384.049,-1025.666 383.852,-1026.396 L378.438,-1046.459 L378.437,-1046.465 L378.437,-1046.459 L383.852,-1026.395 C384.049,-1025.666 384.793,-1025.234 385.517,-1025.429 L382.526,-1024.622 C381.802,-1024.426 381.058,-1024.858 380.861,-1025.588 L375.446,-1045.651 C375.254,-1046.363 375.679,-1047.115 376.403,-1047.31 z M378.535,-1047.299 C378.47,-1047.177 378.452,-1047.031 378.42,-1046.898 C378.453,-1047.034 378.488,-1047.168 378.535,-1047.299 z M379.137,-1048.019 L379.137,-1048.019 C378.777,-1047.813 378.873,-1047.945 378.753,-1047.716 C378.827,-1047.803 379.279,-1047.931 379.137,-1048.019 z" fill="#FFFFFF"/>
      <path d="M344.203,-1038.62 C344.93,-1038.816 345.669,-1038.378 345.861,-1037.667 L351.275,-1017.603 C351.472,-1016.874 351.053,-1016.128 350.326,-1015.932 L327.267,-1009.708 C326.553,-1009.516 325.807,-1009.947 325.61,-1010.677 L320.195,-1030.74 C320.003,-1031.451 320.43,-1032.204 321.144,-1032.396 L344.203,-1038.62 z M328.601,-1011.484 C328.762,-1011.06 328.643,-1011.298 329.023,-1010.806 C328.643,-1011.298 328.762,-1011.06 328.601,-1011.484 z M323.151,-1031.76 C323.152,-1031.682 323.151,-1031.754 323.186,-1031.547 L323.151,-1031.76 z M323.364,-1032.596 L323.214,-1032.333 C323.13,-1032.029 323.15,-1032.181 323.151,-1031.877 L323.214,-1032.333 L323.364,-1032.596 z M342.306,-1037.612 C342.367,-1037.576 342.318,-1037.605 342.452,-1037.525 L342.306,-1037.612 z M341.79,-1037.819 L342.037,-1037.764 C341.953,-1037.81 342.027,-1037.771 341.79,-1037.819 z" fill="#FFFFFF"/>
      <path d="M482.132,-1021.899 L482.391,-1021.944 L479.398,-1021.136 C479.057,-1021.044 478.694,-1021.08 478.368,-1021.267 C478.049,-1021.45 477.824,-1021.751 477.733,-1022.088 L470.632,-1048.401 L473.625,-1049.208 L473.625,-1049.208 L468.387,-1047.795 C468.058,-1047.706 467.686,-1047.75 467.361,-1047.933 C467.035,-1048.12 466.821,-1048.426 466.73,-1048.763 L461.315,-1068.827 C461.224,-1069.163 461.258,-1069.528 461.447,-1069.848 L461.48,-1069.895 L461.447,-1069.848 C461.258,-1069.528 461.224,-1069.163 461.315,-1068.827 L466.73,-1048.763 C466.821,-1048.426 467.035,-1048.12 467.361,-1047.933 C467.686,-1047.75 468.058,-1047.706 468.387,-1047.795 L465.394,-1046.987 C465.065,-1046.898 464.699,-1046.944 464.368,-1047.125 C464.042,-1047.312 463.833,-1047.62 463.742,-1047.957 L458.327,-1068.02 C458.237,-1068.357 458.265,-1068.72 458.454,-1069.04 C458.645,-1069.375 458.941,-1069.586 459.271,-1069.675 L462.264,-1070.483 L462.241,-1070.474 L462.264,-1070.483 L482.327,-1075.897 C482.668,-1075.99 483.03,-1075.957 483.364,-1075.763 C483.689,-1075.581 483.907,-1075.285 483.998,-1074.948 L496.87,-1027.253 C496.961,-1026.916 496.923,-1026.544 496.734,-1026.224 C496.541,-1025.896 496.245,-1025.683 495.904,-1025.591 L482.391,-1021.944 C481.96,-1021.87 482.219,-1021.889 481.612,-1021.962 L482.132,-1021.899 z M493.47,-1025.11 L493.263,-1024.953 C493.423,-1025.031 493.355,-1024.979 493.471,-1025.11 L493.47,-1025.11 z" fill="#FFFFFF"/>
      <path d="M424.151,-1006.226 C423.424,-1006.03 422.678,-1006.453 422.483,-1007.177 L417.066,-1027.248 C416.874,-1027.959 417.304,-1028.706 418.031,-1028.902 L441.081,-1035.123 C441.8,-1035.317 442.546,-1034.887 442.737,-1034.176 L448.154,-1014.105 C448.349,-1013.382 447.92,-1012.641 447.201,-1012.447 L424.151,-1006.226 z M444.879,-1012.059 L444.561,-1011.811 C444.718,-1011.916 444.607,-1011.839 444.879,-1012.059 z M425.698,-1007.56 C425.937,-1007.227 425.765,-1007.406 426.301,-1007.125 L425.698,-1007.56 z M425.474,-1007.984 C425.599,-1007.669 425.521,-1007.806 425.695,-1007.564 L425.474,-1007.984 z M439.599,-1033.687 L439.65,-1033.621 L439.65,-1033.622 L439.599,-1033.687 z M420.59,-1029.476 C420.249,-1029.191 420.366,-1029.358 420.21,-1028.995 C420.466,-1029.307 420.339,-1029.147 420.59,-1029.476 z" fill="#FFFFFF"/>
      <path d="M396.517,-998.768 C395.793,-998.573 395.055,-998.998 394.859,-999.722 L389.442,-1019.793 C389.251,-1020.504 389.673,-1021.248 390.397,-1021.444 L413.458,-1027.668 C414.177,-1027.862 414.927,-1027.433 415.119,-1026.722 L420.535,-1006.651 C420.731,-1005.928 420.297,-1005.186 419.578,-1004.992 L416.587,-1004.185 L396.517,-998.768 z M393.147,-1022.131 C392.477,-1021.894 392.396,-1021.195 392.433,-1020.6 L397.85,-1000.529 C398.07,-999.798 398.725,-999.524 399.431,-999.57 C398.669,-999.396 398.159,-999.909 397.851,-1000.529 L392.434,-1020.6 C392.292,-1021.222 392.571,-1021.843 393.147,-1022.131 z M417.582,-1005.613 L417.572,-1005.452 L417.589,-1005.573 L417.582,-1005.613 z" fill="#FFFFFF"/>
      <path d="M468.705,-1042.578 C469.425,-1042.772 470.17,-1042.343 470.362,-1041.632 L475.779,-1021.56 C475.974,-1020.837 475.545,-1020.097 474.825,-1019.902 L471.837,-1019.096 C472.254,-1019.255 472.02,-1019.137 472.505,-1019.515 C472.02,-1019.137 472.254,-1019.255 471.837,-1019.096 L451.766,-1013.679 C451.048,-1013.485 450.308,-1013.91 450.113,-1014.633 L444.696,-1034.705 C444.504,-1035.416 444.928,-1036.161 445.646,-1036.355 L468.705,-1042.578 z M453.326,-1015.019 C453.562,-1014.686 453.392,-1014.865 453.923,-1014.582 L453.326,-1015.019 z M453.104,-1015.441 C453.228,-1015.127 453.151,-1015.264 453.324,-1015.021 L453.104,-1015.441 z M472.829,-1020.523 L472.819,-1020.361 L472.836,-1020.483 L472.829,-1020.523 z M467.291,-1041.042 L467.374,-1040.825 C467.294,-1041.038 467.337,-1040.974 467.291,-1041.042 z M447.655,-1035.71 C447.658,-1035.629 447.654,-1035.695 447.687,-1035.512 L447.655,-1035.71 z M447.673,-1035.997 C447.649,-1035.836 447.648,-1035.893 447.65,-1035.829 L447.673,-1035.997 z M466.954,-1041.488 L467.203,-1041.172 C467.098,-1041.329 467.175,-1041.219 466.954,-1041.488 z" fill="#FFFFFF"/>
      <path d="M454.709,-1068.443 C455.423,-1068.636 456.176,-1068.202 456.368,-1067.491 L461.782,-1047.428 C461.979,-1046.698 461.547,-1045.948 460.832,-1045.755 L437.777,-1039.533 C437.053,-1039.338 436.304,-1039.769 436.107,-1040.498 L430.693,-1060.562 C430.501,-1061.273 430.93,-1062.026 431.654,-1062.221 L454.709,-1068.443 z M458.789,-1046.62 C458.863,-1046.172 458.847,-1046.438 458.765,-1045.821 C458.847,-1046.438 458.863,-1046.172 458.789,-1046.62 z M453.158,-1067.089 L453.242,-1066.982 L453.278,-1066.936 L453.279,-1066.934 L453.278,-1066.936 C453.17,-1067.074 453.21,-1067.023 453.158,-1067.089 z M434.215,-1062.798 C433.951,-1062.653 433.852,-1062.404 433.712,-1062.155 C433.833,-1062.431 433.977,-1062.62 434.215,-1062.798 z" fill="#FFFFFF"/>
      <path d="M427.075,-1060.985 C427.802,-1061.182 428.551,-1060.747 428.743,-1060.036 L434.157,-1039.972 C434.354,-1039.242 433.925,-1038.494 433.198,-1038.298 L410.145,-1032.076 C409.435,-1031.884 408.681,-1032.313 408.484,-1033.043 L403.069,-1053.107 C402.877,-1053.818 403.312,-1054.573 404.022,-1054.764 L427.075,-1060.985 z" fill="#FFFFFF"/>
      <path d="M430.304,-1091.494 L430.574,-1091.538 L430.304,-1091.494 L433.296,-1092.301 C434.014,-1092.495 434.755,-1092.065 434.951,-1091.341 L440.364,-1071.283 C440.56,-1070.559 440.135,-1069.813 439.417,-1069.619 L436.426,-1068.812 L436.681,-1068.909 L436.426,-1068.812 L419.343,-1064.202 L419.337,-1064.201 L416.352,-1063.395 C415.638,-1063.202 414.892,-1063.632 414.696,-1064.356 L409.283,-1084.413 C409.088,-1085.138 409.517,-1085.884 410.23,-1086.076 L430.304,-1091.494 z M431.887,-1090.726 L431.96,-1090.533 L437.373,-1070.476 L437.418,-1070.204 L437.373,-1070.476 L431.96,-1090.533 C431.936,-1090.598 431.911,-1090.662 431.887,-1090.726 L431.887,-1090.726 z" fill="#FFFFFF"/>
      <path d="M378.048,-1077.39 C378.759,-1077.582 379.51,-1077.156 379.706,-1076.431 L385.119,-1056.373 C385.315,-1055.649 384.881,-1054.901 384.169,-1054.708 L364.096,-1049.291 L364.09,-1049.29 L361.105,-1048.484 C360.391,-1048.292 359.643,-1048.721 359.448,-1049.445 L354.035,-1069.503 C353.839,-1070.227 354.27,-1070.973 354.984,-1071.166 L378.048,-1077.39 z M381.851,-1054.407 C381.712,-1054.183 381.823,-1054.344 381.431,-1053.998 C381.834,-1054.326 381.74,-1054.155 381.851,-1054.407 z M382.149,-1055.092 L382.148,-1055.088 C382.149,-1055.09 382.149,-1055.088 382.149,-1055.092 z M376.494,-1076.044 L376.715,-1075.624 L376.617,-1075.881 L376.494,-1076.044 z M375.982,-1076.419 L376.491,-1076.047 C376.276,-1076.332 376.426,-1076.184 375.982,-1076.419 z" fill="#FFFFFF"/>
      <path d="M474.872,-1103.522 C475.592,-1103.716 476.343,-1103.289 476.538,-1102.564 L481.951,-1082.507 C482.147,-1081.783 481.714,-1081.035 480.993,-1080.84 L446.975,-1071.659 L446.97,-1071.658 L443.982,-1070.852 C443.273,-1070.66 442.517,-1071.088 442.321,-1071.811 L436.908,-1091.869 C436.712,-1092.594 437.152,-1093.342 437.861,-1093.533 L474.872,-1103.522 z" fill="#FFFFFF"/>
      <path d="M405.666,-1084.844 C406.391,-1085.04 407.136,-1084.611 407.332,-1083.887 L412.745,-1063.829 C412.941,-1063.105 412.513,-1062.358 411.787,-1062.162 L391.724,-1056.748 L391.719,-1056.747 L388.733,-1055.941 C388.009,-1055.745 387.258,-1056.174 387.062,-1056.898 L381.649,-1076.955 C381.454,-1077.68 381.887,-1078.427 382.611,-1078.622 L405.666,-1084.844 z" fill="#FFFFFF"/>
      <path d="M198.276,-882.244 C197.556,-882.05 196.813,-882.479 196.617,-883.204 L190.261,-906.756 C190.069,-907.466 190.491,-908.226 191.212,-908.421 L221.472,-916.588 C222.184,-916.78 222.936,-916.337 223.127,-915.626 L229.484,-892.074 C229.68,-891.349 229.248,-890.603 228.537,-890.411 L198.276,-882.244 z M219.012,-915.811 C220.05,-915.206 219.743,-915.601 220.135,-914.819 L226.492,-891.266 C226.548,-890.389 226.616,-890.884 226.02,-889.843 C226.616,-890.884 226.548,-890.389 226.492,-891.267 L220.135,-914.819 C219.743,-915.601 220.05,-915.206 219.012,-915.811 z" fill="#FFFFFF"/>
      <path d="M241.634,-951.665 C242.36,-951.861 243.108,-951.425 243.302,-950.706 L248.716,-930.645 C248.91,-929.927 248.483,-929.173 247.757,-928.977 L224.703,-922.756 C223.991,-922.563 223.226,-922.995 223.033,-923.714 L217.618,-943.774 C217.424,-944.493 217.868,-945.251 218.58,-945.444 L221.572,-946.251 C221.246,-946.126 221.389,-946.21 221.136,-946.011 C221.389,-946.21 221.246,-946.126 221.572,-946.251 L241.634,-951.665 z M245.737,-929.277 C245.715,-929.048 245.75,-929.144 245.661,-928.983 C245.75,-929.144 245.715,-929.048 245.737,-929.277 L245.737,-929.277 z" fill="#FFFFFF"/>
      <path d="M307.58,-945.123 C306.856,-944.927 306.106,-945.363 305.912,-946.082 L300.498,-966.142 C300.304,-966.861 300.733,-967.615 301.457,-967.811 L324.514,-974.034 C325.237,-974.229 325.981,-973.791 326.175,-973.072 L331.589,-953.012 C331.783,-952.294 331.36,-951.541 330.637,-951.346 L307.58,-945.123 z M310.178,-945.902 L310.299,-945.886 L310.339,-945.892 L310.178,-945.902 z M328.504,-951.366 L328.07,-950.763 C328.402,-951.003 328.223,-950.831 328.504,-951.366 z" fill="#FFFFFF"/>
      <path d="M249.206,-953.709 C248.877,-953.583 249.022,-953.667 248.767,-953.468 C249.022,-953.667 248.877,-953.583 249.206,-953.709 L269.265,-959.123 C269.977,-959.315 270.731,-958.88 270.925,-958.161 L276.339,-938.1 C276.533,-937.382 276.101,-936.627 275.388,-936.435 L252.337,-930.214 C251.617,-930.019 250.86,-930.453 250.666,-931.172 L245.252,-951.232 C245.058,-951.951 245.493,-952.707 246.214,-952.902 L249.206,-953.709 z M273.258,-936.442 C273.132,-936.095 273.228,-936.255 272.96,-935.97 C273.238,-936.249 273.143,-936.089 273.258,-936.442 z M266.904,-958.307 C267.146,-958.273 267.014,-958.311 267.286,-958.154 C267.015,-958.311 267.146,-958.273 266.904,-958.307 z" fill="#FFFFFF"/>
      <path d="M276.827,-961.164 C276.429,-960.999 276.589,-961.115 276.328,-960.842 C276.604,-961.096 276.442,-960.983 276.827,-961.164 L296.889,-966.578 C297.604,-966.771 298.354,-966.335 298.548,-965.616 L303.962,-945.555 C304.156,-944.837 303.727,-944.083 303.012,-943.89 L279.958,-937.668 C279.242,-937.475 278.492,-937.911 278.298,-938.629 L272.884,-958.69 C272.69,-959.408 273.119,-960.163 273.835,-960.356 L276.827,-961.164 z M300.956,-944.18 C300.847,-943.75 300.925,-943.952 300.725,-943.573 C300.953,-943.942 300.874,-943.741 300.956,-944.18 z" fill="#FFFFFF"/>
      <path d="M255.264,-984.973 C255.179,-984.941 255.094,-984.909 255.01,-984.876 C255.01,-984.876 255.01,-984.876 255.01,-984.876 L255.264,-984.973 L275.336,-990.391 C276.049,-990.583 276.8,-990.155 276.991,-989.444 L282.408,-969.372 C282.604,-968.649 282.169,-967.907 281.456,-967.715 L258.391,-961.49 C257.675,-961.297 256.933,-961.721 256.738,-962.444 L251.321,-982.516 C251.129,-983.227 251.556,-983.972 252.271,-984.166 L255.264,-984.973 z M279.131,-967.326 C278.822,-967.076 278.97,-967.183 278.691,-966.997 C278.97,-967.183 278.822,-967.076 279.131,-967.326 z M260.597,-962.324 C260.597,-962.324 260.597,-962.324 260.598,-962.324 C260.669,-962.314 260.74,-962.304 260.812,-962.295 L260.597,-962.324 z M260.15,-962.581 L260.15,-962.581 L260.197,-962.554 L260.15,-962.581 z M259.73,-963.252 C259.842,-962.957 259.772,-963.068 259.903,-962.899 C259.772,-963.068 259.842,-962.957 259.73,-963.252 z M254.27,-983.59 C254.268,-983.531 254.305,-983.369 254.313,-983.323 L254.27,-983.59 z" fill="#FFFFFF"/>
      <path d="M220.079,-975.477 C220.801,-975.672 221.549,-975.243 221.741,-974.532 L227.158,-954.461 C227.353,-953.738 226.921,-952.997 226.199,-952.802 L223.207,-951.994 L203.141,-946.579 C202.425,-946.385 201.685,-946.81 201.49,-947.534 L196.073,-967.605 C195.881,-968.316 196.305,-969.061 197.021,-969.254 L220.079,-975.477 z M223.879,-952.414 C223.567,-952.163 223.717,-952.271 223.436,-952.084 C223.717,-952.271 223.568,-952.163 223.879,-952.414 L223.879,-952.414 z M205.644,-947.372 C205.666,-947.363 205.653,-947.366 205.682,-947.367 L205.644,-947.372 z M224.204,-953.423 L224.194,-953.262 L224.21,-953.383 L224.204,-953.423 z M204.579,-948.086 L204.579,-948.084 L204.584,-948.079 L204.579,-948.086 z" fill="#FFFFFF"/>
      <path d="M244.716,-982.127 L244.73,-982.129 L244.716,-982.127 L247.708,-982.934 C248.433,-983.13 249.168,-982.697 249.36,-981.986 L254.777,-961.915 C254.972,-961.192 254.553,-960.454 253.828,-960.258 L250.836,-959.451 C251.256,-959.611 251.021,-959.492 251.506,-959.87 C251.021,-959.492 251.256,-959.611 250.836,-959.451 L230.769,-954.035 C230.048,-953.84 229.306,-954.264 229.111,-954.988 L223.694,-975.059 C223.502,-975.77 223.928,-976.516 224.649,-976.711 L244.716,-982.127 z M232.325,-955.373 C232.562,-955.04 232.392,-955.219 232.924,-954.937 L232.325,-955.373 z M246.368,-981.179 L251.785,-961.108 C251.858,-960.664 251.842,-960.927 251.761,-960.317 C251.842,-960.927 251.858,-960.664 251.785,-961.108 L246.368,-981.179 z M232.103,-955.796 C232.227,-955.481 232.149,-955.619 232.323,-955.375 L232.103,-955.796 z M227.211,-977.285 L227.211,-977.285 C226.872,-977 226.989,-977.167 226.835,-976.804 C227.088,-977.116 226.962,-976.956 227.211,-977.285 z" fill="#FFFFFF"/>
      <path d="M302.955,-997.845 C303.671,-998.038 304.423,-997.61 304.615,-996.899 L310.032,-976.828 C310.227,-976.105 309.791,-975.362 309.075,-975.169 L306.084,-974.361 C306.502,-974.521 306.267,-974.403 306.753,-974.781 C306.267,-974.403 306.502,-974.521 306.084,-974.361 L286.024,-968.948 C285.312,-968.755 284.55,-969.174 284.355,-969.898 L278.938,-989.969 C278.746,-990.68 279.192,-991.431 279.904,-991.623 L302.955,-997.845 z M288.521,-969.741 C288.544,-969.73 288.531,-969.734 288.563,-969.735 L288.521,-969.741 z M307.079,-975.79 L307.068,-975.627 L307.085,-975.749 L307.079,-975.79 z M287.422,-970.51 L287.445,-970.449 L287.448,-970.445 C287.447,-970.447 287.446,-970.448 287.445,-970.449 L287.422,-970.51 z M301.479,-996.405 L301.55,-996.283 L301.527,-996.344 L301.479,-996.405 z M282.114,-991.825 C281.966,-991.633 281.945,-991.492 281.916,-991.259 C281.92,-991.501 281.992,-991.624 282.114,-991.825 z" fill="#FFFFFF"/>
      <path d="M214.016,-944.212 C214.728,-944.404 215.478,-943.968 215.672,-943.249 L221.086,-923.188 C221.28,-922.47 220.851,-921.716 220.14,-921.524 L197.084,-915.301 C196.362,-915.106 195.611,-915.543 195.417,-916.261 L190.003,-936.321 C189.809,-937.04 190.238,-937.794 190.96,-937.989 L214.016,-944.212 z" fill="#FFFFFF"/>
      <path d="M192.46,-968.023 C193.182,-968.218 193.918,-967.786 194.109,-967.075 L199.526,-947.004 C199.722,-946.281 199.302,-945.543 198.58,-945.348 L175.513,-939.122 C174.802,-938.93 174.055,-939.353 173.86,-940.077 L168.443,-960.148 C168.251,-960.859 168.682,-961.606 169.393,-961.798 L192.46,-968.023 z M176.934,-940.671 C177.199,-940.234 177.028,-940.375 177.392,-940.187 C177.03,-940.385 177.199,-940.241 176.934,-940.671 z M190.686,-966.865 L190.686,-966.865 C191.042,-966.526 190.896,-966.723 191.117,-966.268 L196.534,-946.196 C196.592,-945.851 196.591,-946.016 196.55,-945.7 C196.591,-946.016 196.592,-945.851 196.534,-946.196 L191.117,-966.268 C190.908,-966.733 191.054,-966.536 190.686,-966.865 z M172.362,-962.597 C171.976,-962.434 172.131,-962.548 171.878,-962.28 C172.145,-962.53 171.988,-962.419 172.362,-962.597 z" fill="#FFFFFF"/>
      <path d="M261.333,-1016.254 C262.045,-1016.446 262.795,-1016.011 262.986,-1015.3 L268.401,-995.237 C268.598,-994.507 268.168,-993.758 267.456,-993.566 L244.4,-987.344 C243.678,-987.149 242.93,-987.58 242.733,-988.309 L237.318,-1008.373 C237.126,-1009.084 237.555,-1009.837 238.277,-1010.032 L261.333,-1016.254 z M258.823,-1015.462 C259.065,-1015.459 259.189,-1015.388 259.389,-1015.267 C259.197,-1015.414 259.056,-1015.434 258.823,-1015.462 z" fill="#FFFFFF"/>
      <path d="M292.08,-1000.212 L275.014,-995.606 C274.572,-995.534 274.834,-995.549 274.225,-995.635 C274.834,-995.549 274.572,-995.534 275.014,-995.606 L272.022,-994.798 C271.304,-994.605 270.559,-995.036 270.362,-995.766 L264.947,-1015.83 C264.756,-1016.541 265.18,-1017.293 265.898,-1017.486 L268.89,-1018.294 C268.801,-1018.262 268.801,-1018.262 268.89,-1018.294 L285.957,-1022.9 C286.684,-1023.096 287.429,-1022.66 287.621,-1021.949 L293.036,-1001.885 C293.177,-1001.403 292.986,-1001.042 292.754,-1000.635 C293.061,-1001.021 293.113,-1001.418 293.036,-1001.885 L287.621,-1021.949 C287.429,-1022.66 286.684,-1023.096 285.957,-1022.9 L288.948,-1023.707 C289.674,-1023.903 290.42,-1023.467 290.612,-1022.756 L296.027,-1002.693 C296.224,-1001.963 295.798,-1001.215 295.072,-1001.019 L292.08,-1000.212 L292.338,-1000.31 L292.08,-1000.212 z M267.938,-1016.647 L267.94,-1016.637 L273.355,-996.574 C273.516,-996.15 273.397,-996.388 273.777,-995.896 C273.397,-996.388 273.516,-996.15 273.355,-996.574 L267.94,-1016.637 L267.938,-1016.647 z M267.912,-1017.024 L267.896,-1016.905 L267.902,-1016.866 L267.912,-1017.024 z" fill="#FFFFFF"/>
      <path d="M296.514,-1025.749 C295.791,-1025.554 295.362,-1024.801 295.554,-1024.09 C295.362,-1024.801 295.792,-1025.554 296.514,-1025.749 L316.58,-1031.165 C317.302,-1031.36 318.041,-1030.922 318.233,-1030.211 L323.648,-1010.147 C323.845,-1009.417 323.425,-1008.672 322.703,-1008.477 L299.646,-1002.254 C298.924,-1002.059 298.175,-1002.489 297.978,-1003.219 L292.563,-1023.283 C292.371,-1023.994 292.8,-1024.747 293.523,-1024.942 L296.514,-1025.749 z M302.143,-1003.047 C302.165,-1003.038 302.152,-1003.041 302.182,-1003.042 L302.143,-1003.047 z M300.969,-1004.027 L301.068,-1003.768 L301.07,-1003.765 C301.069,-1003.766 301.068,-1003.767 301.068,-1003.768 C301.035,-1003.854 301.002,-1003.94 300.969,-1004.027 z" fill="#FFFFFF"/>
      <path d="M236.835,-985.302 L216.771,-979.887 C216.059,-979.695 215.313,-980.126 215.116,-980.856 L209.701,-1000.919 C209.509,-1001.63 209.936,-1002.383 210.648,-1002.575 L230.712,-1007.99 C231.193,-1008.13 231.552,-1007.936 231.956,-1007.704 C231.572,-1008.01 231.178,-1008.066 230.712,-1007.99 L233.704,-1008.797 C234.428,-1008.993 235.176,-1008.557 235.368,-1007.847 L240.783,-987.783 C240.98,-987.053 240.551,-986.305 239.827,-986.109 L236.835,-985.302 L237.092,-985.4 L236.835,-985.302 z M218.108,-981.663 L218.108,-981.663 C218.403,-981.047 218.186,-981.303 218.775,-980.909 C218.201,-981.334 218.415,-981.075 218.108,-981.663 z M212.666,-1002.114 L212.649,-1001.994 L212.656,-1001.955 L212.666,-1002.114 z M237.791,-986.976 L232.376,-1007.039 C232.247,-1007.376 232.247,-1007.376 232.376,-1007.039 L237.791,-986.975 L237.836,-986.702 L237.791,-986.976 z" fill="#FFFFFF"/>
      <path d="M206.078,-1001.342 C206.803,-1001.537 207.552,-1001.102 207.744,-1000.391 L213.159,-980.328 C213.356,-979.598 212.926,-978.849 212.201,-978.654 L189.145,-972.431 C188.427,-972.237 187.681,-972.669 187.484,-973.399 L182.069,-993.462 C181.878,-994.173 182.304,-994.925 183.022,-995.119 L206.078,-1001.342 z M210.212,-979.247 C210.133,-978.657 210.229,-978.875 210.045,-978.553 C210.229,-978.875 210.133,-978.657 210.212,-979.247 z M204.531,-999.999 L204.752,-999.584 L204.655,-999.837 L204.531,-999.999 z M204.017,-1000.373 L204.526,-1000.007 C204.313,-1000.287 204.461,-1000.14 204.017,-1000.373 z" fill="#FFFFFF"/>
      <path d="M184.665,-1025.199 C185.386,-1025.394 186.146,-1024.969 186.342,-1024.245 L191.755,-1004.187 C191.95,-1003.463 191.507,-1002.712 190.787,-1002.517 L170.723,-997.102 L170.717,-997.101 L167.731,-996.295 C167.013,-996.102 166.267,-996.532 166.071,-997.255 L160.658,-1017.313 C160.463,-1018.038 160.891,-1018.783 161.609,-1018.977 L184.665,-1025.199 z M188.807,-1003.108 C188.708,-1002.412 188.821,-1002.737 188.47,-1002.133 C188.821,-1002.737 188.708,-1002.412 188.807,-1003.108 z M182.657,-1024.26 L182.923,-1024.109 L182.924,-1024.108 L182.923,-1024.109 L182.657,-1024.26 z" fill="#FFFFFF"/>
      <path d="M239.916,-1040.111 C240.641,-1040.306 241.377,-1039.875 241.573,-1039.151 L246.986,-1019.093 C247.182,-1018.369 246.762,-1017.624 246.037,-1017.429 L225.974,-1012.014 L225.969,-1012.013 L222.982,-1011.207 C222.264,-1011.013 221.516,-1011.443 221.32,-1012.166 L215.907,-1032.224 C215.711,-1032.949 216.142,-1033.694 216.86,-1033.888 L239.916,-1040.111 z" fill="#FFFFFF"/>
      <path d="M212.291,-1032.655 C213.013,-1032.85 213.763,-1032.423 213.958,-1031.698 L219.371,-1011.64 C219.567,-1010.916 219.135,-1010.168 218.412,-1009.973 L198.349,-1004.558 L198.343,-1004.557 L195.356,-1003.751 C194.638,-1003.557 193.886,-1003.986 193.69,-1004.709 L188.277,-1024.767 C188.082,-1025.492 188.517,-1026.239 189.235,-1026.432 L212.291,-1032.655 z" fill="#FFFFFF"/>
      <path d="M295.165,-1055.022 C295.892,-1055.218 296.625,-1054.786 296.82,-1054.061 L302.233,-1034.004 C302.429,-1033.279 302.013,-1032.536 301.287,-1032.34 L298.295,-1031.532 C298.565,-1031.622 298.835,-1031.752 298.972,-1032.013 C298.518,-1031.599 298.753,-1031.745 298.295,-1031.532 L281.226,-1026.926 L281.221,-1026.925 L278.235,-1026.119 C277.509,-1025.923 276.763,-1026.353 276.568,-1027.077 L271.155,-1047.134 C270.959,-1047.859 271.388,-1048.604 272.114,-1048.8 L295.165,-1055.022 z M293.328,-1053.934 C293.55,-1053.795 293.391,-1053.906 293.732,-1053.511 C293.408,-1053.917 293.578,-1053.823 293.328,-1053.934 z M292.648,-1054.235 L292.652,-1054.234 C292.651,-1054.234 292.651,-1054.235 292.651,-1054.235 C292.65,-1054.235 292.649,-1054.235 292.648,-1054.235 z" fill="#FFFFFF"/>
      <path d="M308.841,-1034.379 L308.836,-1034.378 L305.85,-1033.572 C305.128,-1033.377 304.382,-1033.807 304.187,-1034.531 L298.773,-1054.588 C298.578,-1055.313 299.007,-1056.058 299.729,-1056.253 L322.784,-1062.476 C323.511,-1062.672 324.256,-1062.243 324.451,-1061.518 L329.864,-1041.461 C330.06,-1040.737 329.632,-1039.99 328.905,-1039.794 L308.841,-1034.379 z M326.918,-1040.382 C326.824,-1039.688 326.935,-1040.012 326.589,-1039.41 C326.935,-1040.012 326.824,-1039.688 326.918,-1040.382 z M321.038,-1061.384 C319.838,-1062.074 321.038,-1061.384 321.038,-1061.384 C321.171,-1061.269 321.254,-1061.107 321.362,-1060.968 L321.038,-1061.384 z" fill="#FFFFFF"/>
      <path d="M267.54,-1047.566 C268.261,-1047.761 269.01,-1047.333 269.206,-1046.608 L274.619,-1026.551 C274.815,-1025.827 274.383,-1025.079 273.661,-1024.884 L253.612,-1019.473 L253.607,-1019.472 L250.62,-1018.666 C249.893,-1018.47 249.147,-1018.9 248.952,-1019.624 L243.539,-1039.681 C243.343,-1040.406 243.772,-1041.151 244.499,-1041.347 L267.54,-1047.566 z M271.35,-1024.584 C271.211,-1024.36 271.323,-1024.521 270.929,-1024.176 C271.334,-1024.503 271.239,-1024.332 271.35,-1024.584 z M271.651,-1025.27 L271.65,-1025.264 C271.652,-1025.267 271.651,-1025.265 271.651,-1025.27 z M265.995,-1046.223 L266.217,-1045.802 C266.092,-1046.117 266.17,-1045.979 265.995,-1046.223 z M265.391,-1046.663 L265.993,-1046.226 C265.754,-1046.56 265.925,-1046.38 265.391,-1046.663 z" fill="#FFFFFF"/>
      <path d="M350.418,-1069.933 C351.136,-1070.127 351.875,-1069.697 352.071,-1068.972 L357.484,-1048.915 C357.679,-1048.191 357.257,-1047.445 356.539,-1047.252 L353.548,-1046.444 C353.763,-1046.525 353.698,-1046.482 353.766,-1046.528 L353.548,-1046.444 L336.476,-1041.837 L336.47,-1041.836 L333.484,-1041.03 C332.758,-1040.834 332.014,-1041.265 331.818,-1041.988 L326.405,-1062.046 C326.209,-1062.77 326.636,-1063.515 327.363,-1063.711 L330.354,-1064.519 L330.29,-1064.494 L330.354,-1064.519 L350.418,-1069.933 z M347.65,-1069.164 C348.003,-1069.142 347.815,-1069.161 348.214,-1069.099 C347.815,-1069.161 348.003,-1069.142 347.65,-1069.164 z M354.214,-1046.865 L353.898,-1046.616 C354.054,-1046.721 353.944,-1046.645 354.214,-1046.865 z M329.396,-1062.853 L334.81,-1042.796 L334.88,-1042.612 L334.81,-1042.796 L329.396,-1062.853 L329.352,-1063.125 L329.396,-1062.853 z" fill="#FFFFFF"/>
    </g>
    <g>
      <path d="M-38.325,-901.409 C-40.828,-899.226 -44.361,-897.524 -49.145,-896.452 L-122.509,-880.002 C-136.042,-876.477 -144.076,-884.549 -146.017,-895.214 L-189.418,-1088.819 C-191.701,-1097.716 -190.171,-1103.802 -185.657,-1107.739 C-182.981,-1110.073 -179.252,-1111.653 -174.649,-1112.611 L-101.292,-1129.055 C-86.025,-1132.534 -80.199,-1124.613 -77.777,-1113.849 L-34.382,-920.236 C-32.394,-912.788 -33.031,-906.027 -38.325,-901.409" fill="#B7B5B0"/>
      <path d="M-56.935,-889.657 L-130.292,-873.214 C-143.825,-869.689 -151.859,-877.761 -153.8,-888.426 L-197.201,-1082.031 C-200.84,-1096.205 -194.794,-1103.248 -182.432,-1105.823 L-109.075,-1122.266 C-93.808,-1125.745 -87.982,-1117.825 -85.567,-1107.054 L-42.164,-913.447 C-39.246,-902.48 -41.996,-893.016 -56.935,-889.657" fill="#FFFFFE"/>
      <path d="M-51.044,-920.562 L-148.809,-898.65 L-189.167,-1078.675 L-91.395,-1100.595 L-51.044,-920.562" fill="#000105"/>
      <path d="M-87.956,-897.976 C-86.881,-893.182 -89.901,-888.423 -94.688,-887.355 C-99.48,-886.279 -104.236,-889.293 -105.309,-894.086 C-106.383,-898.88 -103.372,-903.634 -98.579,-904.709 C-93.792,-905.777 -89.027,-902.767 -87.956,-897.976" fill="#F1F0EE"/>
      <path d="M-88.443,-897.864 C-87.425,-893.338 -90.272,-888.848 -94.799,-887.832 C-99.326,-886.817 -103.82,-889.662 -104.829,-894.193 C-105.846,-898.717 -103,-903.207 -98.474,-904.225 C-93.946,-905.239 -89.452,-902.393 -88.443,-897.864" fill="#C5C5BD"/>
    </g>
    <g>
      <path d="M-758.596,-879.055 C-760.974,-879.055 -763.337,-879.122 -765.682,-879.257 C-719.838,-881.88 -680.77,-909.799 -662.221,-949.271 L-648.049,-949.271 C-667.547,-907.779 -709.716,-879.055 -758.596,-879.055 M-644.649,-957.232 L-658.821,-957.232 C-655.563,-965.684 -653.217,-974.593 -651.906,-983.831 C-644.198,-985.809 -638.501,-992.804 -638.501,-1001.131 C-638.501,-1009.455 -644.198,-1016.449 -651.906,-1018.427 C-653.028,-1026.339 -654.91,-1034.012 -657.474,-1041.359 L-643.302,-1041.359 C-638.908,-1028.764 -636.518,-1015.226 -636.518,-1001.132 C-636.518,-985.659 -639.399,-970.854 -644.649,-957.232 M-646.398,-1049.32 L-660.571,-1049.32 C-678.377,-1090.721 -718.43,-1120.299 -765.682,-1123.003 C-763.337,-1123.137 -760.974,-1123.205 -758.596,-1123.205 C-708.287,-1123.205 -665.089,-1092.776 -646.398,-1049.32" fill="#ADA9A3"/>
      <path d="M-643.302,-1041.359 L-657.474,-1041.359 C-658.415,-1044.058 -659.448,-1046.711 -660.571,-1049.32 L-646.398,-1049.32 C-645.276,-1046.711 -644.243,-1044.058 -643.302,-1041.359" fill="#ADA9A3"/>
      <path d="M-648.049,-949.271 L-662.221,-949.271 C-660.997,-951.877 -659.863,-954.53 -658.821,-957.232 L-644.649,-957.232 C-645.691,-954.53 -646.825,-951.877 -648.049,-949.271" fill="#ADA9A3"/>
      <path d="M-772.767,-1123.205 C-840.186,-1123.205 -894.841,-1068.55 -894.841,-1001.131 C-894.841,-933.709 -840.186,-879.055 -772.767,-879.055 C-705.345,-879.055 -650.69,-933.709 -650.69,-1001.131 C-650.69,-1068.55 -705.345,-1123.205 -772.767,-1123.205" fill="#FFFFFE"/>
      <path d="M-772.767,-1111.42 C-833.581,-1111.42 -883.057,-1061.945 -883.057,-1001.131 C-883.057,-940.316 -833.581,-890.839 -772.767,-890.839 C-711.952,-890.839 -662.474,-940.316 -662.474,-1001.131 C-662.474,-1061.945 -711.952,-1111.42 -772.767,-1111.42 M-772.767,-886.75 C-835.836,-886.75 -887.145,-938.061 -887.145,-1001.131 C-887.145,-1064.199 -835.836,-1115.508 -772.767,-1115.508 C-709.697,-1115.508 -658.386,-1064.199 -658.386,-1001.131 C-658.386,-938.061 -709.697,-886.75 -772.767,-886.75" fill="#D4D6D1"/>
      <path d="M-758.596,-922.817 C-759.85,-922.817 -761.096,-922.847 -762.336,-922.905 C-729.615,-927.227 -703.216,-951.596 -695.888,-983.272 L-682.324,-983.272 C-690.405,-948.621 -721.489,-922.817 -758.596,-922.817 M-682.324,-1018.986 L-695.887,-1018.986 C-703.215,-1050.662 -729.611,-1075.031 -762.331,-1079.354 C-761.094,-1079.412 -759.847,-1079.441 -758.596,-1079.441 C-721.489,-1079.441 -690.404,-1053.633 -682.324,-1018.986" fill="#BDBEBA"/>
      <path d="M-656.359,-1018.986 L-695.887,-1018.986 C-703.98,-1053.967 -735.33,-1080.038 -772.767,-1080.038 C-816.347,-1080.038 -851.678,-1044.714 -851.678,-1001.131 C-851.678,-957.545 -816.347,-922.222 -772.767,-922.222 C-735.33,-922.222 -703.981,-948.291 -695.888,-983.272 L-656.359,-983.272 C-646.497,-983.272 -638.501,-991.266 -638.501,-1001.131 C-638.501,-1010.993 -646.497,-1018.986 -656.359,-1018.986" fill="#F696CB"/>
      <path d="M-772.767,-1075.008 C-813.568,-1075.008 -846.647,-1041.933 -846.647,-1001.131 C-846.647,-960.321 -813.568,-927.251 -772.767,-927.251 C-731.966,-927.251 -698.885,-960.321 -698.885,-1001.131 C-698.885,-1041.933 -731.966,-1075.008 -772.767,-1075.008" fill="#D4D6D1"/>
      <path d="M-773.232,-1066.306 C-809.225,-1066.306 -838.402,-1037.127 -838.402,-1001.131 C-838.402,-965.134 -809.225,-935.957 -773.232,-935.957 C-737.239,-935.957 -708.057,-965.134 -708.057,-1001.131 C-708.057,-1037.127 -737.239,-1066.306 -773.232,-1066.306" fill="#302725"/>
      <path d="M-773.333,-944.464 C-803.196,-944.464 -827.405,-969.708 -827.405,-1000.847 C-827.405,-1031.986 -803.196,-1057.228 -773.333,-1057.228 C-743.469,-1057.228 -719.26,-1031.986 -719.26,-1000.847 C-719.26,-969.708 -743.469,-944.464 -773.333,-944.464" fill="#554D4C"/>
    </g>
    <g>
      <path d="M778.68,-1064.88 L778.68,-1064.88 C731.697,-1071.866 696.956,-1107.274 702.509,-1156.669 L709.882,-1226.707 C716.068,-1281.738 763.569,-1321.829 815.735,-1314.072 C867.899,-1306.315 901.679,-1254.138 891.586,-1199.687 L878.26,-1130.535 C869.201,-1081.661 825.66,-1057.894 778.68,-1064.88" fill="#9D8DCD"/>
      <path d="M878.261,-1130.535 L891.586,-1199.687 C901.68,-1254.138 867.899,-1306.315 815.735,-1314.072 L778.68,-1064.88 C825.66,-1057.894 869.201,-1081.661 878.261,-1130.535" fill="#8073A7"/>
      <path d="M880.437,-1220.687 C879.967,-1220.928 868.766,-1226.575 854.89,-1228.639 C842.829,-1230.432 832.232,-1229.079 823.394,-1224.614 C810.091,-1217.894 802.265,-1204.677 797.845,-1193.764 C796.79,-1205.491 793.148,-1220.413 782.376,-1230.713 C775.22,-1237.556 765.475,-1241.935 753.413,-1243.729 C739.537,-1245.792 727.178,-1243.648 726.659,-1243.554 L719.49,-1242.28 L718.538,-1235.063 C718.345,-1233.596 714.029,-1198.939 733.861,-1179.976 C740.95,-1173.197 750.583,-1168.841 762.487,-1167.015 C761.72,-1165.347 761.175,-1163.568 760.895,-1161.69 C760.075,-1156.175 761.631,-1150.805 764.959,-1146.201 C748.381,-1140.495 734.777,-1127.15 729.493,-1109.528 L726.193,-1098.523 L838.682,-1081.796 L838.727,-1093.285 C838.801,-1111.681 829.667,-1128.408 815.467,-1138.691 C819.99,-1142.127 823.042,-1146.812 823.862,-1152.327 C824.142,-1154.205 824.137,-1156.066 823.888,-1157.885 C835.808,-1156.167 846.292,-1157.533 855.046,-1161.956 C879.538,-1174.328 885.494,-1208.741 885.736,-1210.201 L886.924,-1217.383 L880.437,-1220.687" fill="#F696CB"/>
      <path d="M838.727,-1093.285 C838.801,-1111.681 829.667,-1128.408 815.467,-1138.691 C819.99,-1142.127 823.042,-1146.812 823.862,-1152.327 C824.142,-1154.205 824.137,-1156.066 823.888,-1157.885 C835.808,-1156.167 846.292,-1157.533 855.046,-1161.956 C879.538,-1174.328 885.494,-1208.741 885.736,-1210.201 L886.924,-1217.383 L880.437,-1220.687 C879.967,-1220.928 868.766,-1226.575 854.89,-1228.639 C842.829,-1230.432 832.232,-1229.079 823.394,-1224.614 C810.091,-1217.894 802.265,-1204.677 797.845,-1193.764 L782.439,-1090.159 L838.682,-1081.796 L838.727,-1093.285" fill="#F696CB"/>
      <path d="M812.808,-1294.391 L818.867,-1275.53 L837.839,-1269.829 L821.774,-1258.238 L822.214,-1238.432 L806.227,-1250.129 L787.526,-1243.591 L793.71,-1262.411 L781.713,-1278.175 L801.523,-1278.109 L812.808,-1294.391" fill="#FFFFFE"/>
      <path d="M787.837,-1176.928 C787.837,-1176.928 757.15,-1171.471 740.737,-1187.166 C724.323,-1202.859 728.4,-1233.761 728.4,-1233.761 C728.4,-1233.761 759.089,-1239.218 775.503,-1223.524 C791.915,-1207.829 787.837,-1176.928 787.837,-1176.928" fill="#FFFFFE"/>
      <path d="M802.519,-1174.745 C802.519,-1174.745 830.292,-1160.595 850.561,-1170.835 C870.832,-1181.073 875.922,-1211.825 875.922,-1211.825 C875.922,-1211.825 848.148,-1225.975 827.878,-1215.735 C807.609,-1205.495 802.519,-1174.745 802.519,-1174.745" fill="#FFFFFE"/>
      <path d="M828.78,-1093.325 C828.87,-1115.743 812.498,-1135.413 789.673,-1138.807 C766.847,-1142.201 745.459,-1128.146 739.022,-1106.672 L828.78,-1093.325" fill="#FFFFFE"/>
      <path d="M814.025,-1153.79 C812.853,-1145.911 802.212,-1140.965 790.258,-1142.742 C778.303,-1144.52 769.561,-1152.349 770.733,-1160.228 C771.904,-1168.106 782.546,-1173.052 794.501,-1171.275 C806.455,-1169.497 815.196,-1161.669 814.025,-1153.79" fill="#FFFFFE"/>
      <path d="M822.214,-1238.432 L821.774,-1258.238 L837.839,-1269.829 L818.867,-1275.53 L812.808,-1294.391 L806.227,-1250.129 L822.214,-1238.432" fill="#E5E5E0"/>
      <path d="M827.878,-1215.735 C807.609,-1205.495 802.519,-1174.745 802.519,-1174.745 C802.519,-1174.745 830.292,-1160.595 850.561,-1170.835 C870.832,-1181.073 875.922,-1211.825 875.922,-1211.825 C875.922,-1211.825 848.148,-1225.975 827.878,-1215.735" fill="#E5E5E0"/>
      <path d="M789.673,-1138.807 L783.902,-1099.998 L828.78,-1093.325 C828.87,-1115.743 812.498,-1135.413 789.673,-1138.807" fill="#E5E5E0"/>
      <path d="M814.024,-1153.79 C815.196,-1161.668 806.455,-1169.497 794.501,-1171.275 L790.258,-1142.742 C802.212,-1140.965 812.853,-1145.911 814.024,-1153.79" fill="#E5E5E0"/>
    </g>
    <g>
      <path d="M-650.524,-1307.32 Q-649.15,-1297.469 -655.588,-1289.63 Q-662.027,-1281.791 -672.167,-1280.377 Q-682.597,-1278.922 -690.789,-1284.72 Q-698.982,-1290.518 -700.356,-1300.368 Q-701.69,-1309.929 -695.417,-1317.893 Q-689.144,-1325.856 -678.714,-1327.311 Q-668.574,-1328.726 -660.216,-1322.803 Q-651.858,-1316.88 -650.524,-1307.32 z M-636.999,-1218.827 Q-636.19,-1213.032 -636.743,-1208.525 Q-640.746,-1186.405 -653.352,-1177.263 Q-659.78,-1172.527 -666.154,-1171.637 Q-675.715,-1170.304 -676.564,-1176.388 Q-677.17,-1180.734 -669.664,-1186.211 Q-668.586,-1186.952 -666.915,-1191.911 Q-684.197,-1195.112 -686.541,-1211.916 Q-687.874,-1221.477 -681.581,-1229.295 Q-675.288,-1237.114 -664.858,-1238.569 Q-654.718,-1239.984 -646.525,-1234.186 Q-638.332,-1228.388 -636.999,-1218.827 z" fill="#D28AB3"/>
      <path d="M-654.443,-1305.829 Q-653.069,-1295.979 -659.507,-1288.14 Q-665.945,-1280.301 -676.085,-1278.886 Q-686.515,-1277.431 -694.708,-1283.229 Q-702.901,-1289.027 -704.275,-1298.878 Q-705.608,-1308.438 -699.335,-1316.402 Q-693.062,-1324.366 -682.632,-1325.821 Q-672.492,-1327.235 -664.134,-1321.312 Q-655.777,-1315.39 -654.443,-1305.829 z M-640.917,-1217.336 Q-640.109,-1211.542 -640.661,-1207.034 Q-644.664,-1184.915 -657.271,-1175.772 Q-663.699,-1171.036 -670.072,-1170.147 Q-679.633,-1168.813 -680.482,-1174.897 Q-681.088,-1179.243 -673.582,-1184.72 Q-672.504,-1185.462 -670.833,-1190.42 Q-688.115,-1193.621 -690.459,-1210.425 Q-691.793,-1219.986 -685.5,-1227.805 Q-679.206,-1235.624 -668.776,-1237.079 Q-658.636,-1238.493 -650.443,-1232.695 Q-642.251,-1226.897 -640.917,-1217.336 z" fill="#FFFFFF"/>
    </g>
    <g>
      <g>
        <path d="M353.86,-1220.067 C352.131,-1220.206 350.468,-1221.031 349.327,-1222.475 L328.223,-1249.241 C326.219,-1251.778 326.524,-1255.391 328.927,-1257.579 L354.236,-1280.616 C356.807,-1282.961 360.848,-1282.824 363.248,-1280.313 C365.655,-1277.801 365.515,-1273.863 362.936,-1271.519 L341.869,-1252.34 L359.435,-1230.061 C361.586,-1227.337 361.064,-1223.43 358.268,-1221.336 C356.96,-1220.355 355.386,-1219.945 353.86,-1220.067" fill="#8F83B4"/>
        <path d="M414.194,-1215.22 C412.669,-1215.343 411.18,-1215.999 410.054,-1217.176 C407.651,-1219.687 407.792,-1223.625 410.37,-1225.969 L431.437,-1245.144 L413.871,-1267.427 C411.72,-1270.151 412.242,-1274.059 415.034,-1276.152 C417.826,-1278.242 421.828,-1277.733 423.975,-1275.014 L445.084,-1248.251 C447.087,-1245.706 446.782,-1242.093 444.379,-1239.905 L419.066,-1216.872 C417.698,-1215.63 415.919,-1215.082 414.194,-1215.22" fill="#8F83B4"/>
        <path d="M365.869,-1196.312 C365.203,-1196.365 364.534,-1196.523 363.883,-1196.796 C360.647,-1198.142 359.143,-1201.801 360.528,-1204.961 L401.047,-1297.419 C402.427,-1300.579 406.178,-1302.055 409.421,-1300.692 C412.661,-1299.345 414.161,-1295.687 412.777,-1292.527 L372.257,-1200.069 C371.148,-1197.54 368.53,-1196.098 365.869,-1196.312" fill="#8F83B4"/>
      </g>
      <g>
        <path d="M346.783,-1220.283 C345.055,-1220.434 343.398,-1221.269 342.267,-1222.721 L321.348,-1249.625 C319.361,-1252.176 319.691,-1255.787 322.11,-1257.958 L347.578,-1280.829 C350.164,-1283.157 354.205,-1282.993 356.587,-1280.466 C358.977,-1277.939 358.809,-1274.001 356.215,-1271.674 L335.016,-1252.634 L352.428,-1230.241 C354.559,-1227.503 354.01,-1223.599 351.2,-1221.523 C349.885,-1220.551 348.308,-1220.151 346.783,-1220.283" fill="#FFFFFF"/>
        <path d="M407.083,-1215.04 C405.558,-1215.172 404.073,-1215.839 402.956,-1217.023 C400.57,-1219.55 400.738,-1223.487 403.333,-1225.814 L424.532,-1244.85 L407.12,-1267.248 C404.988,-1269.986 405.537,-1273.89 408.344,-1275.965 C411.15,-1278.036 415.148,-1277.501 417.276,-1274.768 L438.2,-1247.867 C440.186,-1245.308 439.856,-1241.698 437.437,-1239.526 L411.965,-1216.66 C410.589,-1215.426 408.807,-1214.89 407.083,-1215.04" fill="#FFFFFF"/>
        <path d="M358.628,-1196.45 C357.963,-1196.508 357.294,-1196.67 356.645,-1196.947 C353.419,-1198.314 351.94,-1201.983 353.346,-1205.133 L394.504,-1297.323 C395.906,-1300.474 399.667,-1301.925 402.901,-1300.541 C406.131,-1299.173 407.606,-1295.505 406.2,-1292.354 L365.042,-1200.164 C363.915,-1197.643 361.288,-1196.218 358.628,-1196.45" fill="#FFFFFF"/>
      </g>
    </g>
    <g>
      <path d="M131.996,-1150.472 L114.554,-1156.984 C112.253,-1157.843 111.084,-1160.404 111.944,-1162.706 L120.085,-1184.513 C120.944,-1186.815 123.506,-1187.984 125.807,-1187.125 L143.249,-1180.613 C145.55,-1179.754 146.719,-1177.192 145.86,-1174.89 L137.718,-1153.083 C136.859,-1150.781 134.297,-1149.613 131.996,-1150.472" fill="#F696CB"/>
      <path d="M139.972,-1175.03 L129.596,-1178.904 C128.757,-1179.217 128.332,-1180.15 128.645,-1180.988 C128.957,-1181.826 129.89,-1182.252 130.729,-1181.939 L141.105,-1178.065 C141.943,-1177.752 142.369,-1176.819 142.056,-1175.981 C141.743,-1175.142 140.81,-1174.717 139.972,-1175.03" fill="#85552A"/>
      <path d="M137.99,-1169.722 L127.614,-1173.596 C126.775,-1173.909 126.35,-1174.843 126.663,-1175.681 C126.976,-1176.519 127.909,-1176.945 128.747,-1176.632 L139.124,-1172.758 C139.961,-1172.445 140.387,-1171.512 140.075,-1170.674 C139.762,-1169.835 138.828,-1169.41 137.99,-1169.722" fill="#85552A"/>
      <path d="M136.009,-1164.415 L125.632,-1168.289 C124.794,-1168.602 124.369,-1169.536 124.681,-1170.373 C124.995,-1171.212 125.927,-1171.637 126.766,-1171.324 L137.142,-1167.45 C137.98,-1167.137 138.406,-1166.205 138.093,-1165.366 C137.78,-1164.528 136.847,-1164.103 136.009,-1164.415" fill="#85552A"/>
      <path d="M134.028,-1159.108 L123.651,-1162.982 C122.813,-1163.295 122.387,-1164.229 122.7,-1165.066 C123.013,-1165.905 123.946,-1166.33 124.784,-1166.017 L135.161,-1162.143 C135.999,-1161.83 136.425,-1160.898 136.112,-1160.059 C135.799,-1159.221 134.865,-1158.796 134.028,-1159.108" fill="#85552A"/>
      <path d="M132.046,-1153.801 L121.67,-1157.675 C120.831,-1157.988 120.406,-1158.922 120.719,-1159.759 C121.032,-1160.598 121.964,-1161.023 122.803,-1160.71 L133.179,-1156.836 C134.017,-1156.523 134.443,-1155.591 134.13,-1154.752 C133.817,-1153.914 132.884,-1153.489 132.046,-1153.801" fill="#85552A"/>
      <path d="M42.33,-1052.561 L7.98,-1065.386 C-3.69,-1069.743 -9.617,-1082.735 -5.261,-1094.404 L76.318,-1312.913 C80.675,-1324.582 93.667,-1330.51 105.337,-1326.153 L139.687,-1313.329 C151.356,-1308.972 157.284,-1295.98 152.927,-1284.311 L71.348,-1065.803 C66.991,-1054.133 53.999,-1048.205 42.33,-1052.561" fill="#8073A7"/>
      <path d="M87.055,-1111.048 L12.528,-1138.873 C2.695,-1142.544 -2.301,-1153.492 1.371,-1163.325 L36.16,-1256.509 C39.832,-1266.342 50.779,-1271.338 60.612,-1267.667 L135.14,-1239.842 C144.973,-1236.171 149.968,-1225.223 146.297,-1215.39 L111.507,-1122.206 C107.835,-1112.373 96.888,-1107.377 87.055,-1111.048" fill="#F696CB"/>
      <path d="M86.041,-1117.05 L17.226,-1142.742 C8.147,-1146.132 3.534,-1156.241 6.924,-1165.32 L39.047,-1251.363 C42.437,-1260.442 52.546,-1265.055 61.625,-1261.666 L130.441,-1235.974 C139.521,-1232.584 144.133,-1222.475 140.744,-1213.395 L108.62,-1127.353 C105.23,-1118.273 95.121,-1113.66 86.041,-1117.05" fill="#1E1912"/>
      <path d="M120.929,-1171.821 L86.053,-1248.252 L129.034,-1232.205 C136.022,-1229.596 139.584,-1221.79 136.975,-1214.802 L120.929,-1171.821 z" fill="url(#Gradient_2)"/>
      <path d="M45.038,-1182.13 L91.352,-1164.839 L101.29,-1191.459 L54.976,-1208.75 z M91.679,-1161.775 L42.783,-1180.03 C42.07,-1180.296 41.708,-1181.089 41.974,-1181.803 L52.876,-1211.005 C53.143,-1211.717 53.936,-1212.08 54.649,-1211.814 L103.545,-1193.559 C104.258,-1193.293 104.62,-1192.498 104.354,-1191.786 L93.452,-1162.584 C93.185,-1161.87 92.391,-1161.509 91.679,-1161.775" fill="#FFFFFE"/>
      <path d="M58.364,-1207.485 L73.725,-1188.298 L97.902,-1192.724 L58.364,-1207.485 z M72.682,-1185.503 C72.453,-1185.589 72.247,-1185.735 72.088,-1185.932 L53.091,-1209.661 C52.704,-1210.145 52.687,-1210.828 53.051,-1211.331 C53.414,-1211.833 54.069,-1212.031 54.649,-1211.814 L103.545,-1193.559 C104.126,-1193.342 104.49,-1192.764 104.436,-1192.146 C104.381,-1191.529 103.921,-1191.024 103.311,-1190.912 L73.412,-1185.438 C73.163,-1185.393 72.911,-1185.418 72.682,-1185.503" fill="#FFFFFE"/>
      <path d="M42.782,-1180.03 C42.474,-1180.145 42.206,-1180.369 42.042,-1180.684 C41.691,-1181.359 41.953,-1182.191 42.628,-1182.542 L66.818,-1195.147 C67.493,-1195.499 68.325,-1195.236 68.677,-1194.562 C69.029,-1193.887 68.766,-1193.055 68.092,-1192.703 L43.901,-1180.098 C43.541,-1179.911 43.135,-1179.898 42.782,-1180.03" fill="#FFFFFE"/>
      <path d="M91.599,-1161.805 C91.246,-1161.936 90.947,-1162.212 90.798,-1162.59 L80.787,-1187.963 C80.508,-1188.671 80.855,-1189.472 81.563,-1189.751 C82.27,-1190.031 83.071,-1189.683 83.351,-1188.974 L93.362,-1163.601 C93.641,-1162.893 93.294,-1162.093 92.586,-1161.813 C92.256,-1161.683 91.906,-1161.69 91.599,-1161.805" fill="#FFFFFE"/>
    </g>
    <g>
      <path d="M-453.388,-1185.11 L-546.273,-1163.389 C-587.086,-1153.844 -612.434,-1113.021 -602.89,-1072.208 C-593.345,-1031.394 -552.523,-1006.046 -511.71,-1015.591 C-483.891,-1022.096 -463.27,-1043.137 -455.973,-1068.798 L-427.732,-1075.402 L-453.388,-1185.11" fill="#F2F1F0"/>
      <path d="M-515.338,-1031.106 C-547.531,-1023.577 -579.847,-1043.643 -587.376,-1075.836 C-594.904,-1108.03 -574.838,-1140.345 -542.645,-1147.873 C-510.452,-1155.402 -478.136,-1135.337 -470.607,-1103.143 C-463.079,-1070.95 -483.145,-1038.635 -515.338,-1031.106" fill="#E4E4E3"/>
      <path d="M-530.548,-1138.133 L-549.167,-1133.779 C-550.98,-1133.354 -552.116,-1131.578 -551.703,-1129.813 L-547.032,-1109.839 C-546.83,-1108.975 -546.277,-1108.232 -545.499,-1107.778 L-534.132,-1101.155 C-532.576,-1100.249 -530.549,-1100.723 -529.557,-1102.225 L-522.306,-1113.202 C-521.809,-1113.953 -521.644,-1114.865 -521.846,-1115.729 L-526.517,-1135.703 C-526.93,-1137.469 -528.735,-1138.557 -530.548,-1138.133" fill="#636463"/>
      <path d="M-528.229,-1044.247 L-509.611,-1048.601 C-507.797,-1049.025 -506.662,-1050.8 -507.075,-1052.566 L-511.745,-1072.539 C-511.948,-1073.403 -512.5,-1074.147 -513.279,-1074.6 L-524.646,-1081.224 C-526.201,-1082.13 -528.228,-1081.656 -529.221,-1080.154 L-536.472,-1069.176 C-536.968,-1068.425 -537.134,-1067.513 -536.932,-1066.649 L-532.261,-1046.676 C-531.848,-1044.91 -530.043,-1043.823 -528.229,-1044.247" fill="#636463"/>
      <path d="M-482.446,-1092.349 L-486.8,-1110.968 C-487.224,-1112.781 -489,-1113.916 -490.765,-1113.504 L-510.739,-1108.833 C-511.603,-1108.63 -512.347,-1108.078 -512.8,-1107.3 L-519.423,-1095.933 C-520.33,-1094.377 -519.856,-1092.35 -518.353,-1091.358 L-507.376,-1084.106 C-506.625,-1083.61 -505.713,-1083.444 -504.849,-1083.646 L-484.875,-1088.317 C-483.11,-1088.73 -482.021,-1090.536 -482.446,-1092.349" fill="#636463"/>
      <path d="M-576.331,-1090.03 L-571.977,-1071.412 C-571.553,-1069.598 -569.778,-1068.462 -568.012,-1068.875 L-548.039,-1073.546 C-547.175,-1073.748 -546.431,-1074.302 -545.978,-1075.079 L-539.354,-1086.447 C-538.448,-1088.002 -538.922,-1090.029 -540.424,-1091.021 L-551.402,-1098.272 C-552.153,-1098.769 -553.065,-1098.934 -553.929,-1098.732 L-573.902,-1094.062 C-575.668,-1093.648 -576.755,-1091.844 -576.331,-1090.03" fill="#636463"/>
      <path d="M-453.388,-1185.11 L-360.504,-1206.832 C-319.691,-1216.376 -278.864,-1191.029 -269.32,-1150.216 C-259.775,-1109.402 -285.127,-1068.578 -325.94,-1059.034 C-353.758,-1052.528 -381.572,-1062.243 -399.491,-1082.007 L-427.732,-1075.402 L-453.388,-1185.11" fill="#E8E9E4"/>
      <path d="M-329.568,-1074.549 C-297.375,-1082.078 -277.309,-1114.394 -284.838,-1146.587 C-292.367,-1178.78 -324.682,-1198.845 -356.875,-1191.317 C-389.069,-1183.788 -409.135,-1151.473 -401.606,-1119.28 C-394.077,-1087.087 -361.762,-1067.021 -329.568,-1074.549" fill="#DADBD7"/>
      <path d="M-363.337,-1138.459 C-370.315,-1144.141 -380.578,-1143.089 -386.26,-1136.111 C-391.941,-1129.132 -390.89,-1118.869 -383.912,-1113.188 C-376.933,-1107.506 -366.671,-1108.557 -360.989,-1115.536 C-355.307,-1122.514 -356.359,-1132.777 -363.337,-1138.459" fill="#B8ABDF"/>
      <path d="M-338.107,-1151.74 C-332.424,-1158.718 -333.476,-1168.982 -340.454,-1174.663 C-347.433,-1180.345 -357.696,-1179.293 -363.377,-1172.315 C-369.059,-1165.337 -368.008,-1155.074 -361.03,-1149.392 C-354.051,-1143.711 -343.788,-1144.762 -338.107,-1151.74" fill="#B8ABDF"/>
      <path d="M-349.695,-1113.808 C-355.377,-1106.83 -354.325,-1096.567 -347.347,-1090.885 C-340.369,-1085.204 -330.106,-1086.255 -324.424,-1093.233 C-318.742,-1100.212 -319.793,-1110.475 -326.772,-1116.157 C-333.75,-1121.839 -344.014,-1120.787 -349.695,-1113.808" fill="#551367"/>
      <path d="M-302.532,-1152.679 C-309.511,-1158.36 -319.774,-1157.309 -325.455,-1150.331 C-331.137,-1143.352 -330.086,-1133.089 -323.107,-1127.407 C-316.129,-1121.726 -305.866,-1122.777 -300.184,-1129.756 C-294.502,-1136.734 -295.554,-1146.997 -302.532,-1152.679" fill="#551367"/>
      <path d="M-445.771,-1115.4 C-444.832,-1111.383 -447.326,-1107.365 -451.343,-1106.426 C-455.359,-1105.487 -459.377,-1107.982 -460.316,-1111.998 C-461.255,-1116.015 -458.761,-1120.032 -454.744,-1120.972 C-450.728,-1121.911 -446.71,-1119.416 -445.771,-1115.4" fill="#636463"/>
      <path d="M-429.302,-1119.251 C-428.363,-1115.235 -424.345,-1112.74 -420.329,-1113.679 C-416.312,-1114.618 -413.817,-1118.636 -414.757,-1122.653 C-415.696,-1126.669 -419.714,-1129.164 -423.73,-1128.224 C-427.747,-1127.285 -430.241,-1123.267 -429.302,-1119.251" fill="#4D4E4C"/>
      <path d="M-460.399,-1142.383 C-463.746,-1141.6 -465.825,-1138.253 -465.042,-1134.905 C-464.259,-1131.559 -460.912,-1129.479 -457.564,-1130.262 L-441.443,-1134.032 L-444.278,-1146.153 L-460.399,-1142.383" fill="#636463"/>
      <path d="M-428.157,-1149.923 L-444.278,-1146.153 L-441.443,-1134.032 L-425.323,-1137.802 C-421.975,-1138.585 -419.897,-1141.933 -420.679,-1145.28 C-421.462,-1148.627 -424.81,-1150.706 -428.157,-1149.923" fill="#4D4E4C"/>
    </g>
    <g>
      <path d="M601.06,-1076.521 C600.725,-1075.394 600.422,-1074.276 600.148,-1073.178 C596.045,-1056.423 599.62,-1043.752 599.62,-1043.752 C607.734,-1013.456 615.639,-994.297 615.639,-994.297 L650.965,-1005.742 C640.815,-1037.076 632.212,-1058.383 632.212,-1058.383 C631.405,-1060.466 630.278,-1062.37 628.932,-1064.103 C622.566,-1072.406 611.28,-1076.979 605.609,-1078.858 C604.86,-1079.111 604.084,-1079.097 603.384,-1078.873 C602.309,-1078.53 601.414,-1077.685 601.06,-1076.521" fill="#E461A9"/>
      <path d="M603.3,-1079.135 C604.078,-1079.383 604.913,-1079.382 605.695,-1079.118 C609.5,-1077.858 613.421,-1076.208 617.144,-1074.129 C622.119,-1071.35 626.231,-1068.077 629.149,-1064.271 C630.564,-1062.449 631.679,-1060.519 632.466,-1058.485 C632.482,-1058.446 632.513,-1058.369 632.559,-1058.253 C632.636,-1058.061 632.727,-1057.832 632.832,-1057.568 C633.132,-1056.812 633.482,-1055.92 633.879,-1054.897 C635.015,-1051.976 636.302,-1048.589 637.716,-1044.779 C642.079,-1033.024 646.664,-1019.911 651.226,-1005.826 L651.311,-1005.566 L651.05,-1005.481 L615.724,-994.036 L615.482,-993.958 L615.385,-994.192 C615.379,-994.208 615.379,-994.208 615.347,-994.286 C615.316,-994.363 615.278,-994.455 615.235,-994.562 C615.112,-994.869 614.967,-995.232 614.801,-995.653 C614.328,-996.855 613.785,-998.271 613.179,-999.894 C608.734,-1011.81 603.926,-1026.614 599.356,-1043.677 C599.349,-1043.704 599.335,-1043.755 599.316,-1043.829 C599.284,-1043.952 599.247,-1044.098 599.208,-1044.266 C599.095,-1044.744 598.976,-1045.305 598.856,-1045.943 C598.516,-1047.765 598.239,-1049.849 598.072,-1052.162 C597.594,-1058.767 598.08,-1065.884 599.882,-1073.245 C600.165,-1074.379 600.47,-1075.498 600.797,-1076.599 L601.06,-1076.521 L600.798,-1076.6 C601.168,-1077.82 602.108,-1078.753 603.3,-1079.135 z M603.468,-1078.612 C602.403,-1078.269 601.704,-1077.464 601.323,-1076.441 C600.694,-1074.234 600.997,-1075.344 600.415,-1073.113 C598.627,-1065.812 598.145,-1058.752 598.619,-1052.202 C598.785,-1049.91 599.058,-1047.846 599.395,-1046.044 C599.513,-1045.414 599.63,-1044.862 599.742,-1044.392 C599.78,-1044.228 599.816,-1044.087 599.847,-1043.967 C599.865,-1043.896 599.878,-1043.849 599.885,-1043.823 C604.451,-1026.774 609.254,-1011.987 613.693,-1000.086 C614.298,-998.466 614.84,-997.053 615.312,-995.854 C615.477,-995.435 615.621,-995.072 615.744,-994.768 L615.797,-994.636 L650.619,-1005.918 C646.435,-1018.906 641.916,-1031.784 637.202,-1044.588 C635.789,-1048.396 634.502,-1051.779 633.368,-1054.699 C632.971,-1055.72 632.621,-1056.611 632.322,-1057.365 C632.217,-1057.63 632.127,-1057.858 632.05,-1058.049 C632.004,-1058.164 631.973,-1058.241 631.956,-1058.284 C631.187,-1060.27 630.099,-1062.153 628.715,-1063.936 C625.847,-1067.677 621.792,-1070.905 616.876,-1073.65 C613.187,-1075.71 609.296,-1077.347 605.521,-1078.598 C604.849,-1078.825 604.135,-1078.825 603.468,-1078.612 z" fill="#B6BBC3"/>
      <path d="M600.269,-1074.721 L600.839,-1074.694 C600.999,-1073.731 601.275,-1072.756 601.578,-1071.825 C604.512,-1062.766 613.211,-1057.484 620.985,-1060.001 C623.756,-1060.9 626.113,-1062.694 627.821,-1065.15 L628.097,-1065.547 L628.402,-1065.17 C628.446,-1065.115 628.446,-1065.115 628.49,-1065.061 C628.589,-1064.939 628.635,-1064.882 628.688,-1064.816 C628.854,-1064.61 628.982,-1064.449 629.104,-1064.291 L628.715,-1063.936 C628.458,-1064.264 628.539,-1064.125 628.263,-1064.47 C626.556,-1062.037 623.949,-1060.322 621.211,-1059.305 C613.03,-1056.657 603.937,-1062.178 600.886,-1071.6 C600.571,-1072.566 600.434,-1073.723 600.269,-1074.721 z" fill="#B6BBC3"/>
      <path d="M630.538,-949.587 L663.158,-960.125 C666.622,-961.246 668.702,-964.399 667.801,-967.172 L654.04,-1009.496 C653.141,-1012.259 649.887,-1012.753 646.429,-1011.648 L646.405,-1011.64 L613.515,-1001.947 C610.05,-1000.828 607.837,-998.093 608.738,-995.325 L622.7,-952.366 C623.6,-949.597 627.074,-948.466 630.538,-949.587" fill="#000000"/>
      <path d="M613.668,-1002.093 L646.552,-1011.784 L646.576,-1011.792 C650.425,-1013.022 653.627,-1012.242 654.531,-1009.464 L668.293,-967.14 C669.245,-964.209 667.071,-960.911 663.473,-959.747 L630.853,-949.209 L630.853,-949.209 C627.206,-948.029 623.61,-949.272 622.67,-952.165 L608.708,-995.123 C607.778,-997.979 609.956,-1000.894 613.668,-1002.093 z M613.83,-1001.569 C610.382,-1000.456 608.409,-997.814 609.23,-995.293 L623.192,-952.334 C624.026,-949.767 627.298,-948.636 630.684,-949.731 L630.684,-949.731 L663.305,-960.269 C666.636,-961.347 668.62,-964.357 667.771,-966.97 L654.01,-1009.294 C653.221,-1011.718 650.341,-1012.419 646.743,-1011.269 L646.713,-1011.26 L613.83,-1001.569 z" fill="#B6BBC3"/>
      <path d="M651.341,-861.423 L698.811,-876.761 C701.007,-877.472 702.33,-879.473 701.755,-881.233 L675.954,-960.616 C674.677,-964.552 669.641,-966.512 664.72,-964.939 L664.682,-964.927 L627.132,-952.734 C622.199,-951.142 619.247,-946.626 620.53,-942.68 L646.32,-863.334 C646.892,-861.574 649.141,-860.713 651.341,-861.423" fill="#000000"/>
      <path d="M626.863,-952.843 L664.466,-964.87 L664.503,-964.882 C669.586,-966.507 674.708,-964.621 676.029,-960.548 L701.777,-881.332 C702.403,-879.414 700.989,-877.269 698.657,-876.513 L651.187,-861.175 L651.187,-861.175 C648.847,-860.42 646.455,-861.308 645.833,-863.221 L620.057,-942.526 C618.726,-946.62 621.782,-951.204 626.863,-952.843 z M627.031,-952.321 C622.216,-950.767 619.351,-946.471 620.579,-942.695 L646.355,-863.39 C646.873,-861.796 648.943,-861.028 651.018,-861.697 L651.018,-861.697 L698.488,-877.035 C700.554,-877.704 701.778,-879.562 701.256,-881.162 L675.507,-960.379 C674.289,-964.133 669.49,-965.9 664.67,-964.36 L664.633,-964.348 L627.031,-952.321 z" fill="#B6BBC3"/>
      <path d="M677.778,-953.737 L677.892,-953.389 L622.362,-935.21 L622.248,-935.558 L677.778,-953.737 z" fill="#B6BBC3"/>
    </g>
  </g>
</svg>
